<svg width="20" height="25" viewBox="0 0 20 25" fill="none" xmlns="http://www.w3.org/2000/svg">
<path d="M14.8951 0.0126605C14.8438 -0.047235 12.9592 0.0360977 11.3181 1.84338C9.6771 3.65066 9.93095 5.72226 9.96685 5.77564C10.0053 5.82773 12.3053 5.91106 13.7746 3.80951C15.2438 1.70796 14.9477 0.0725559 14.8951 0.0126605ZM19.9939 18.3459C19.9195 18.1948 16.4169 16.4175 16.7426 12.9983C17.0695 9.5777 19.3195 8.64021 19.3554 8.53865C19.39 8.43709 18.4362 7.30428 17.4259 6.73137C16.6835 6.32735 15.862 6.09607 15.0208 6.05429C14.8541 6.04908 14.2772 5.90455 13.0925 6.23397C12.3105 6.45142 10.5489 7.15454 10.0643 7.18319C9.5771 7.21053 8.13221 6.36679 6.57706 6.14413C5.5809 5.94882 4.52576 6.34856 3.76934 6.65585C3.01676 6.96314 1.58213 7.83422 0.579556 10.1519C-0.42302 12.467 0.101345 16.1363 0.476991 17.2769C0.851354 18.4162 1.43854 20.2834 2.43471 21.6453C3.32061 23.1818 4.49627 24.2495 4.9873 24.6128C5.47833 24.9747 6.86296 25.2156 7.82323 24.7169C8.59503 24.2352 9.98992 23.9591 10.5399 23.98C11.0887 23.9995 12.172 24.2208 13.281 24.8224C14.1592 25.1297 14.99 25.0021 15.822 24.6583C16.6554 24.312 17.8605 23.0034 19.2657 20.3485C19.8003 19.1141 20.0426 18.4474 19.9939 18.3459Z" fill="#EEEEEE"/>
</svg>
