<svg width="28" height="28" viewBox="0 0 28 28" fill="none" xmlns="http://www.w3.org/2000/svg">
<path d="M14 0.666504C17.5362 0.666504 20.9276 2.07126 23.4281 4.57175C25.9286 7.07223 27.3334 10.4636 27.3334 13.9998C27.3334 17.5361 25.9286 20.9274 23.4281 23.4279C20.9276 25.9284 17.5362 27.3332 14 27.3332C10.4638 27.3332 7.07241 25.9284 4.57193 23.4279C2.07144 20.9274 0.666687 17.5361 0.666687 13.9998C0.666687 10.4636 2.07144 7.07223 4.57193 4.57175C7.07241 2.07126 10.4638 0.666504 14 0.666504ZM8.16669 13.1665C7.94567 13.1665 7.73371 13.2543 7.57743 13.4106C7.42115 13.5669 7.33335 13.7788 7.33335 13.9998C7.33335 14.2208 7.42115 14.4328 7.57743 14.5891C7.73371 14.7454 7.94567 14.8332 8.16669 14.8332H17.8214L14.2427 18.4092C14.0995 18.5684 14.0228 18.7765 14.0285 18.9906C14.0342 19.2047 14.1219 19.4084 14.2734 19.5597C14.4249 19.7111 14.6288 19.7985 14.8428 19.804C15.0569 19.8095 15.265 19.7326 15.424 19.5892L20.424 14.5892C20.5016 14.5118 20.5632 14.4198 20.6052 14.3186C20.6472 14.2173 20.6688 14.1088 20.6688 13.9992C20.6688 13.8896 20.6472 13.781 20.6052 13.6798C20.5632 13.5785 20.5016 13.4866 20.424 13.4092L15.424 8.40917C15.3465 8.3316 15.2544 8.27007 15.153 8.22809C15.0517 8.18611 14.943 8.16451 14.8334 8.16451C14.7237 8.16451 14.615 8.18611 14.5137 8.22809C14.4123 8.27007 14.3203 8.3316 14.2427 8.40917C14.1651 8.48674 14.1036 8.57882 14.0616 8.68017C14.0196 8.78152 13.998 8.89014 13.998 8.99984C13.998 9.10953 14.0196 9.21816 14.0616 9.3195C14.1036 9.42085 14.1651 9.51294 14.2427 9.5905L17.8214 13.1665H8.16669Z" fill="white"/>
</svg>
