<svg width="100" height="100" viewBox="0 0 100 100" fill="none" xmlns="http://www.w3.org/2000/svg">
<g clip-path="url(#clip0_879_2804)">
<path d="M25.9217 14.9645C29.2555 5.22033 38.529 1.1111 48.7734 0.949219C54.2141 1.14711 59.9659 2.70315 64.0193 5.79175C68.2281 8.99853 70.8452 12.2773 71.8671 17.3991C72.5911 21.0247 72.3932 23.1364 71.999 25.9065L71.2706 29.276C71.8478 29.0476 72.4734 28.9688 73.0893 29.0469C73.524 29.0919 73.9444 29.2283 74.3228 29.4472C74.7011 29.666 75.0289 29.9624 75.2847 30.3168C75.5526 30.7777 75.7075 31.2954 75.7368 31.8276C75.9391 33.8636 75.9011 35.8923 74.8404 37.7474C74.3503 38.6669 73.6533 39.4601 72.8044 40.0642C71.8734 40.6434 70.8378 41.0342 69.7562 41.2144L69.5421 41.2431C68.3354 45.9582 63.6045 51.6307 55.3654 53.9099C51.4435 55.0803 45.3343 55.2357 41.0211 54.1394C33.3684 52.035 28.413 46.137 27.5044 41.237L27.2163 41.2136C26.135 41.0336 25.0995 40.6431 24.1686 40.0642C23.32 39.4597 22.6234 38.6663 22.1338 37.7466C21.0731 35.8915 21.0342 33.8615 21.2374 31.8267C21.2665 31.2946 21.4213 30.7769 21.689 30.316C21.9448 29.9617 22.2726 29.6654 22.6509 29.4466C23.0291 29.2277 23.4494 29.0912 23.8841 29.0461C24.7991 28.923 25.7263 29.1588 26.4713 29.7041L25.8343 26.07C24.7461 23.4982 24.651 19.6091 25.4389 16.5735C25.5822 16.0213 25.7431 15.4849 25.9217 14.9645Z" fill="white"/>
<path d="M21.5668 84.783C23.014 83.4499 24.5818 82.0517 26.2349 81.4411L26.5656 81.3366C24.9408 80.1037 23.5283 78.6138 22.3839 76.9255C21.8764 76.1865 20.3807 72.6253 20.532 71.7455C20.3624 69.5083 20.5869 67.2587 21.1953 65.0992C22.3305 61.4489 24.2491 57.3935 28.073 54.2596C29.9468 52.7286 31.8112 51.4292 34.0034 50.7234C36.1057 52.2918 38.4837 53.4519 41.0138 54.1434C45.3343 55.2397 51.4435 55.0843 55.3731 53.914C58.0622 53.1877 60.5992 51.9849 62.8635 50.3628C65.6777 50.9132 67.9222 52.413 70.1763 54.2596C74.0002 57.3935 75.9189 61.4489 77.056 65.0992C77.668 67.2581 77.8941 69.508 77.7238 71.7455C77.6833 73.8377 76.5174 75.9033 75.9921 76.6244C74.8889 78.1262 73.6184 79.4975 72.205 80.7118C73.4017 80.9878 77.2361 84.0614 79.1281 86.2488L79.5506 86.5819C79.8948 85.8149 80.392 85.1263 81.0119 84.5584C81.6302 84.0223 82.3583 83.6281 83.1452 83.4034C83.9321 83.1787 84.7586 83.129 85.5667 83.2577C86.3646 83.387 87.1231 83.6942 87.786 84.1565C88.449 84.6189 88.9993 85.2246 89.3963 85.9287C89.8067 86.7355 90.0437 87.6193 90.092 88.5232C90.2364 90.4345 89.5444 92.2718 88.5218 93.9424C87.6205 95.3783 86.3789 96.5696 84.9071 97.4109C83.4352 98.2521 81.7786 98.7173 80.0839 98.7651C79.4907 98.7559 78.9079 98.6085 78.3817 98.3345C77.8554 98.0605 77.4004 97.6675 77.0528 97.1868C73.4915 97.978 70.8076 97.9083 67.0974 97.3446C67.0974 97.3446 57.2007 95.8347 52.0611 95.103C49.0906 94.6392 46.0516 94.9122 43.2113 95.8978C34.9678 99.1354 30.345 99.5955 21.5247 98.5526L21.2184 98.5162C20.8026 98.6852 20.3572 98.7695 19.9084 98.7643C18.2134 98.7167 16.5564 98.2516 15.0843 97.4103C13.6121 96.5689 12.3703 95.3773 11.469 93.9412C10.4463 92.2698 9.75428 90.4333 9.89875 88.5219C9.94663 87.618 10.1836 86.7341 10.5944 85.9275C10.9912 85.2233 11.5415 84.6175 12.2045 84.1551C12.8675 83.6927 13.6261 83.3856 14.424 83.2565C15.2321 83.1278 16.0587 83.1775 16.8455 83.4022C17.6324 83.6269 18.3605 84.0211 18.9788 84.5572C19.4551 84.9876 19.8573 85.4935 20.1694 86.0545C20.6215 85.6587 21.0877 85.2241 21.5668 84.783Z" fill="#6604C8"/>
<path d="M34.3417 60.4829C34.2948 58.2939 34.8909 56.2256 35.2 54.9698C35.4483 54.0046 35.7883 53.0653 36.2154 52.1649C37.7276 53.0183 39.3392 53.6822 41.0138 54.1414C45.3343 55.2377 51.4435 55.0823 55.3731 53.9119C57.893 53.2292 60.2812 52.1303 62.439 50.6606C62.7973 51.1297 63.1147 51.6286 63.3876 52.1519C64.8344 55.277 65.5199 64.149 60.9081 66.6953C57.4848 68.5828 54.5645 69.028 51.4383 69.3129C48.1861 69.5694 44.9141 69.3732 41.716 68.7297C35.8763 67.1992 34.4109 63.7103 34.3417 60.4829Z" fill="white"/>
<path d="M38.3271 77.9434C38.9071 77.81 39.5046 77.7698 40.0972 77.8244C40.4808 77.8643 40.8451 78.0127 41.1476 78.252C41.45 78.4914 41.678 78.8119 41.805 79.176C42.0037 79.9191 41.4481 80.8296 40.6792 80.8207C41.977 81.159 42.6771 82.7155 42.4161 84.0307C42.1551 85.346 41.1644 86.4071 40.0588 87.1663C39.4915 87.6105 38.803 87.8727 38.0839 87.9182C37.5928 87.8945 37.1125 87.7652 36.676 87.539C35 86.7489 33.6406 85.415 32.8188 83.7543" fill="white"/>
<path d="M60.3795 77.7469C59.812 77.5684 59.2197 77.4813 58.6248 77.4887C58.2391 77.4984 57.8642 77.6177 57.5439 77.8327C57.2236 78.0477 56.9712 78.3495 56.8162 78.7028C56.5596 79.4276 57.0416 80.3786 57.8085 80.4308C56.4884 80.6651 55.6677 82.1609 55.8255 83.4927C55.9834 84.8246 56.8854 85.9593 57.9275 86.8031C58.4578 87.2908 59.1233 87.6065 59.8364 87.7088C60.3276 87.7238 60.8163 87.6327 61.269 87.4417C63.0013 86.7862 64.4608 85.5638 65.4102 83.9735" fill="white"/>
<path d="M76.7926 96.2495C74.4554 96.7631 72.053 96.9132 69.67 96.6947C68.5741 96.5964 67.4883 96.4296 66.4009 96.2641C63.2459 95.7844 60.0902 95.3101 56.9336 94.8412C55.1529 94.5769 53.369 94.2823 51.5799 94.0703C49.4202 93.8193 47.2342 93.9156 45.1048 94.3556C44.1318 94.5688 43.178 94.8623 42.2534 95.2329C40.1261 96.0721 37.9433 96.7626 35.7205 97.2997C31.0313 98.3831 26.2673 98.1394 21.5227 97.583C21.2655 97.5844 21.0193 97.6871 20.8374 97.869C20.6556 98.0508 20.5528 98.2971 20.5514 98.5542C20.5574 98.81 20.6616 99.0536 20.8425 99.2344C21.0234 99.4153 21.267 99.5195 21.5227 99.5255C25.8824 100.037 30.2563 100.281 34.6007 99.5085C36.6986 99.1169 38.7621 98.5588 40.7714 97.8396C42.0377 97.3985 43.2692 96.8363 44.5642 96.4814C46.3147 96.0136 48.126 95.8135 49.9365 95.8877C51.8005 96.0147 53.6561 96.2453 55.4945 96.5785C58.7938 97.0642 62.0919 97.5588 65.3888 98.0626C66.6377 98.2524 67.8857 98.4531 69.1423 98.5862C71.8714 98.8739 74.6291 98.7173 77.3081 98.1224C78.5287 97.8553 78.0123 95.982 76.7918 96.2495H76.7926Z" fill="#211715"/>
<path d="M21.3721 86.28C22.2273 85.5013 23.0625 84.7017 23.9569 83.966C24.0678 83.8753 24.1795 83.7856 24.292 83.6968C24.3325 83.6636 24.4025 83.6127 24.3203 83.675C24.3831 83.6276 24.4458 83.5803 24.5089 83.5337C24.7331 83.369 24.9618 83.21 25.1969 83.0607C25.4243 82.915 25.657 82.7774 25.8958 82.6527C26.0123 82.5916 26.1305 82.5313 26.2499 82.4779C26.3021 82.4536 26.3551 82.4297 26.4081 82.4071C26.2143 82.488 26.4753 82.3848 26.4939 82.3779C26.7392 82.3045 26.9466 82.1392 27.0731 81.9166C27.1995 81.694 27.2352 81.4312 27.1726 81.1829C27.1015 80.9361 26.9366 80.727 26.7133 80.6003C26.4899 80.4735 26.2259 80.4392 25.9775 80.5046C23.623 81.3913 21.825 83.2448 19.9986 84.904C19.8184 85.0872 19.7173 85.3338 19.7173 85.5908C19.7173 85.8478 19.8184 86.0944 19.9986 86.2775C20.1835 86.4545 20.4295 86.5533 20.6854 86.5533C20.9413 86.5533 21.1873 86.4545 21.3721 86.2775V86.28Z" fill="#211715"/>
<path d="M71.9448 81.6461C71.9743 81.6533 72.2022 81.7432 72.2123 81.7351C72.175 81.7634 71.9792 81.6238 72.1605 81.7181C72.2094 81.7432 72.2592 81.7667 72.3078 81.7922C72.5627 81.9249 72.808 82.0754 73.0492 82.2325C73.3458 82.4255 73.636 82.6291 73.9217 82.8395C74.0919 82.9647 74.2608 83.0916 74.4284 83.2203C74.2896 83.1131 74.5263 83.2976 74.5291 83.3012C74.6174 83.3709 74.7052 83.4409 74.7926 83.5113C76.1065 84.5433 77.3268 85.6892 78.4393 86.9358C78.6225 87.1158 78.8691 87.2166 79.126 87.2166C79.3829 87.2166 79.6295 87.1158 79.8128 86.9358C79.9903 86.7512 80.0895 86.5051 80.0895 86.249C80.0895 85.9929 79.9903 85.7468 79.8128 85.5623C78.6572 84.2677 77.386 83.0811 76.0152 82.0172C75.3632 81.4983 74.6987 80.9896 73.9982 80.5372C73.5299 80.2021 73.0106 79.9447 72.4603 79.7752C72.2119 79.7067 71.9465 79.7397 71.7224 79.8669C71.4983 79.9942 71.334 80.2052 71.2655 80.4536C71.197 80.7021 71.23 80.9675 71.3573 81.1916C71.4845 81.4157 71.6955 81.58 71.944 81.6485L71.9448 81.6461Z" fill="#211715"/>
<path d="M61.5964 51.1464C61.9695 51.6359 62.298 52.1577 62.5782 52.7057C62.6838 52.9258 62.503 52.507 62.594 52.7433C62.6126 52.7915 62.6316 52.8392 62.6494 52.887C62.717 53.0671 62.7785 53.2512 62.8352 53.4329C63.0608 54.1817 63.2276 54.947 63.3342 55.7218C63.5686 57.4214 63.5584 59.1457 63.3038 60.8424C63.0173 62.4992 62.4706 64.0965 61.3107 65.2054C61.046 65.4642 60.7453 65.6836 60.418 65.8565C59.7716 66.221 59.103 66.5445 58.416 66.8249C57.1621 67.328 55.8604 67.7025 54.5309 67.9427C51.8629 68.4242 49.1453 68.5717 46.4408 68.3818C44.9425 68.3089 43.4528 68.1126 41.9867 67.795C40.1748 67.4162 38.5043 66.5399 37.1628 65.2645C36.6571 64.745 36.2441 64.1427 35.9418 63.4838C35.9354 63.4705 35.8152 63.1932 35.8929 63.3806C35.8581 63.2968 35.8257 63.2119 35.7945 63.1269C35.743 62.986 35.6955 62.8439 35.6521 62.7003C35.5432 62.332 35.4582 61.957 35.3975 61.5777C35.3656 61.3871 35.3894 61.5372 35.3947 61.5757C35.3793 61.4604 35.3672 61.3442 35.3567 61.2285C35.3381 61.0272 35.3254 60.8249 35.3186 60.6214C35.3061 60.2523 35.3126 59.8825 35.3336 59.5138C35.3542 59.1564 35.3894 58.7999 35.4364 58.445C35.404 58.6915 35.4404 58.4244 35.4465 58.3855C35.4631 58.2815 35.4789 58.1775 35.4963 58.0739C35.5262 57.8975 35.5585 57.7213 35.593 57.5454C35.8873 55.8634 36.3783 54.2219 37.056 52.6547C37.1786 52.4305 37.2108 52.168 37.146 51.9209C37.0812 51.6738 36.9243 51.4608 36.7075 51.3257C36.4846 51.1977 36.2203 51.1626 35.9717 51.2277C35.723 51.2929 35.51 51.4533 35.3785 51.6741C34.6627 53.2856 34.1289 54.9718 33.7869 56.7016C33.4617 58.0986 33.3293 59.5337 33.3935 60.9666C33.4641 62.6071 33.9856 64.1964 34.9006 65.5599C36.1571 67.233 37.8891 68.4883 39.8702 69.1616C41.4013 69.6876 42.9917 70.0216 44.6051 70.156C47.4891 70.4862 50.4027 70.4619 53.2808 70.0835C56.1651 69.7088 59.0728 68.9504 61.5823 67.4259C63.2751 66.398 64.3071 64.6214 64.8542 62.7618C65.3885 60.8162 65.5692 58.7904 65.3876 56.7809C65.3061 55.0543 64.9283 53.3545 64.2706 51.7559C63.9937 51.1927 63.66 50.6592 63.2747 50.1638C63.1397 49.9469 62.9267 49.7899 62.6795 49.7251C62.4324 49.6603 62.1698 49.6926 61.9457 49.8154C61.7247 49.9468 61.5644 50.1598 61.4992 50.4085C61.434 50.6571 61.4692 50.9215 61.5972 51.1444L61.5964 51.1464Z" fill="#211715"/>
<path d="M45.5905 62.8209C44.6559 62.7103 43.7606 62.3805 42.9774 61.8586C42.8473 61.7622 42.7242 61.6568 42.6087 61.5433C42.541 61.4778 42.4757 61.4103 42.4128 61.341C42.3817 61.307 42.3517 61.2718 42.3206 61.2374C42.206 61.1095 42.3347 61.2653 42.2744 61.1844C42.159 61.0297 42.0541 60.8675 41.9604 60.6988C41.9175 60.6223 41.8795 60.5438 41.839 60.4652C41.8192 60.4248 41.8018 60.3863 41.7831 60.3467C41.7164 60.203 41.8584 60.5555 41.7633 60.2977C41.6343 59.9462 41.5361 59.5841 41.4699 59.2156C41.4594 59.1593 41.4509 59.1022 41.4428 59.0456C41.4448 59.0593 41.4622 59.2075 41.4497 59.0909C41.4404 59.0059 41.4315 58.9205 41.4246 58.8351C41.4088 58.6368 41.4007 58.4385 41.3991 58.2398C41.3971 57.8664 41.416 57.4931 41.4557 57.1217C41.4638 57.0407 41.4736 56.9626 41.4829 56.8829C41.4549 57.1201 41.4885 56.8473 41.497 56.7923C41.5233 56.6191 41.5537 56.4471 41.5865 56.2751C41.6974 55.6988 41.8471 55.1326 42.0017 54.5669C42.3315 53.3593 40.4582 52.8441 40.1284 54.0505C39.302 57.0743 38.7998 60.9707 41.5618 63.2042C42.58 64.0036 43.7925 64.5179 45.0749 64.6943C45.323 64.7549 45.5848 64.7184 45.8069 64.5923C46.029 64.4663 46.1945 64.2601 46.2696 64.016C46.3361 63.7677 46.3022 63.5032 46.1753 63.2796C46.0484 63.0561 45.8386 62.8915 45.5913 62.8214L45.5905 62.8209Z" fill="#211715"/>
<path d="M57.456 54.2288C57.4965 54.3098 57.5317 54.3976 57.575 54.4785C57.6345 54.5902 57.5111 54.3065 57.5556 54.4324C57.5754 54.4882 57.5993 54.5429 57.6203 54.5983C57.6984 54.8071 57.7668 55.0192 57.8271 55.2337C57.8992 55.4878 57.9599 55.7441 58.0092 56.0026C58.0362 56.1407 58.0597 56.2791 58.0797 56.4178C58.0643 56.3118 58.0756 56.3773 58.0825 56.4453C58.0906 56.5263 58.0999 56.6072 58.1068 56.6881C58.1315 56.9714 58.1432 57.2547 58.14 57.538C58.1383 57.6915 58.1321 57.8446 58.1213 57.9973C58.1169 58.0657 58.1108 58.1341 58.1043 58.2025C58.0999 58.2478 58.076 58.4348 58.095 58.3037C58.0524 58.5965 57.9888 58.8859 57.9048 59.1697C57.8296 59.4473 57.7225 59.7152 57.5855 59.9682C57.4613 60.1919 57.4282 60.455 57.4932 60.7026C57.5581 60.9501 57.716 61.1631 57.934 61.2972C58.157 61.4246 58.4211 61.4594 58.6696 61.3943C58.9181 61.3292 59.1311 61.1692 59.263 60.9487C60.4706 58.6157 60.3075 55.5708 59.1335 53.247C59.0033 53.0246 58.7901 52.863 58.5407 52.7978C58.2914 52.7325 58.0263 52.769 57.8039 52.8992C57.5814 53.0294 57.4198 53.2426 57.3546 53.492C57.2893 53.7413 57.3258 54.0064 57.456 54.2288Z" fill="#211715"/>
<path d="M49.0385 36.7953C49.0043 36.8146 48.9692 36.832 48.9332 36.8475L49.1651 36.7496C49.1095 36.7726 49.0512 36.7885 48.9915 36.797L49.2497 36.7626C49.192 36.769 49.1336 36.7682 49.0761 36.7601L49.3343 36.7949C49.3007 36.7901 49.2675 36.7836 49.2343 36.7771C49.1206 36.7549 49.0057 36.7423 48.8908 36.7278C48.7608 36.722 48.6316 36.7509 48.5164 36.8115C48.3428 36.8874 48.1945 37.0112 48.0888 37.1684C47.9831 37.3256 47.9243 37.5096 47.9195 37.699L47.9539 37.9572C47.9986 38.1194 48.0848 38.2671 48.204 38.3858L48.4003 38.5375C48.5489 38.6249 48.7183 38.6707 48.8908 38.6703H48.8964L48.6382 38.6355C48.6787 38.6411 48.7228 38.6508 48.7649 38.6585C48.8713 38.6784 48.9794 38.6905 49.0886 38.7035C49.1137 38.7063 49.1388 38.7083 49.1643 38.7091C49.1914 38.7095 49.2184 38.7081 49.2453 38.7051C49.3436 38.6946 49.444 38.6824 49.5415 38.6646C49.5565 38.6618 49.571 38.6585 49.5856 38.6549C49.6197 38.6461 49.6531 38.6349 49.6856 38.6213C49.8012 38.5787 49.914 38.5286 50.0231 38.4712C50.234 38.3349 50.3912 38.1298 50.4682 37.8908C50.5085 37.7656 50.5145 37.6319 50.4856 37.5035C50.4798 37.3751 50.44 37.2506 50.3703 37.1426L50.2185 36.9459C50.0993 36.8274 49.9513 36.7418 49.7892 36.6974L49.531 36.6626C49.3586 36.6623 49.1892 36.7081 49.0405 36.7953H49.0385Z" fill="#211715"/>
<path d="M45.0802 43.7813C46.1125 44.7931 47.7382 45.0933 49.1271 45.0925C50.516 45.0917 52.14 44.7923 53.174 43.7813C53.3537 43.5987 53.4539 43.3524 53.4529 43.0962C53.4518 42.84 53.3496 42.5946 53.1684 42.4134C52.9872 42.2322 52.7418 42.13 52.4856 42.1289C52.2294 42.1279 51.9831 42.2281 51.8005 42.4078C51.76 42.4459 51.5759 42.5928 51.7195 42.4887C51.8632 42.3847 51.6176 42.5547 51.5666 42.5863C51.4796 42.6397 51.3897 42.6891 51.2987 42.7348C51.2371 42.7656 51.1744 42.7939 51.1121 42.8226C51.2303 42.7684 51.2084 42.785 51.1012 42.8226C50.4711 43.0579 49.8014 43.1691 49.1291 43.15C48.9268 43.15 48.7285 43.1431 48.529 43.1278C48.4185 43.1193 48.3076 43.11 48.1979 43.095C48.3238 43.112 48.14 43.0832 48.0975 43.0756C47.7897 43.0216 47.487 42.9416 47.1927 42.8364C47.1522 42.8218 46.9207 42.715 47.1457 42.8226C47.0935 42.7975 47.0409 42.7749 46.9895 42.7494C46.8879 42.6996 46.7872 42.6454 46.6917 42.5875C46.6637 42.5701 46.5014 42.4345 46.4768 42.4418C46.5367 42.4244 46.6641 42.6037 46.5379 42.4843C46.5116 42.4588 46.4836 42.4349 46.4569 42.409C46.2743 42.2293 46.028 42.1291 45.7718 42.1301C45.5156 42.1312 45.2702 42.2334 45.089 42.4146C44.9078 42.5958 44.8056 42.8412 44.8045 43.0974C44.8035 43.3536 44.9037 43.5999 45.0834 43.7825L45.0802 43.7813Z" fill="#211715"/>
<path d="M37.7929 31.0484C37.4311 32.2196 37.6585 34.9112 39.8681 35.1358C42.7896 35.1103 42.9531 31.8549 41.9725 30.3272C41.1713 29.0751 38.805 28.5604 37.7929 31.0484Z" fill="#211715"/>
<path d="M59.8255 31.0484C60.1873 32.22 59.9602 34.9116 57.7506 35.1358C54.8292 35.1103 54.6657 31.8549 55.6462 30.3272C56.4479 29.0751 58.8138 28.5604 59.8255 31.0484Z" fill="#211715"/>
<path d="M70.9918 30.5444C71.9582 29.8285 73.6348 29.7046 74.4316 30.7771C74.8141 31.2926 74.8003 32.0895 74.8363 32.6993C74.8929 33.4452 74.8741 34.1948 74.7801 34.9369C74.5845 36.3589 73.9354 37.6799 72.9294 38.7038C71.9776 39.5736 70.7778 40.1243 69.4976 40.2788C69.2501 40.3487 69.0402 40.5132 68.9132 40.7369C68.7862 40.9605 68.7525 41.2251 68.8194 41.4735C68.8932 41.7183 69.0585 41.9254 69.281 42.0517C69.5034 42.1779 69.7659 42.2138 70.014 42.1517C71.4002 41.9399 72.7047 41.3617 73.7926 40.477C74.8805 39.5922 75.7123 38.4329 76.2021 37.119C76.7278 35.6482 76.9204 34.0791 76.7659 32.5249C76.6611 30.9742 76.3482 29.5464 74.9314 28.6804C74.1798 28.2363 73.3163 28.0179 72.4439 28.0512C71.5715 28.0845 70.7272 28.3681 70.0116 28.8681C69.795 29.0034 69.6382 29.2164 69.5734 29.4634C69.5087 29.7105 69.5408 29.973 69.6631 30.1971C69.7944 30.4181 70.0074 30.5786 70.256 30.6438C70.5046 30.709 70.7689 30.6737 70.9918 30.5456V30.5444Z" fill="#211715"/>
<path d="M26.9613 28.8669C26.3289 28.4247 25.5941 28.1512 24.8265 28.0722C24.0588 27.9932 23.2837 28.1112 22.5745 28.4152C21.8938 28.6939 21.3087 29.1642 20.8901 29.7689C20.5044 30.4203 20.287 31.1574 20.2576 31.9138C19.9557 34.919 20.5142 38.1116 22.8416 40.2383C23.999 41.2622 25.4295 41.9268 26.9585 42.1509C27.2065 42.2111 27.4682 42.1744 27.6902 42.0484C27.9122 41.9224 28.0777 41.7165 28.1531 41.4726C28.2198 41.2243 28.186 40.9597 28.059 40.7362C27.9321 40.5126 27.7222 40.348 27.4749 40.278C26.2217 40.1259 25.0447 39.5955 24.1006 38.7575C23.0634 37.7271 22.3938 36.3844 22.1949 34.936C22.1009 34.194 22.082 33.4443 22.1386 32.6985C22.1738 32.0915 22.1609 31.3084 22.5352 30.7912C23.3223 29.7042 25.0107 29.8256 25.9812 30.5443C26.204 30.6725 26.4683 30.7077 26.7169 30.6425C26.9655 30.5773 27.1785 30.4169 27.3098 30.1959C27.434 29.9721 27.4671 29.709 27.4022 29.4615C27.3372 29.2139 27.1793 29.0009 26.9613 28.8669Z" fill="#211715"/>
<path d="M26.3847 39.9521C26.5664 44.1205 29.2094 47.9521 32.2899 50.5862C34.2398 52.2487 36.4637 53.5597 38.8625 54.4607C39.5221 54.717 40.1981 54.9288 40.886 55.0949C41.1725 55.1616 40.9463 55.1252 40.9042 55.1127C40.9734 55.1329 41.0458 55.1467 41.1162 55.1633C41.2595 55.197 41.4033 55.2288 41.5476 55.2588C41.8684 55.3262 42.1908 55.3867 42.5148 55.4401C43.8962 55.6663 45.2912 55.7994 46.6904 55.8387C49.7051 55.9762 52.7227 55.6419 55.6341 54.848C55.855 54.78 56.0445 54.6357 56.1689 54.441C56.2934 54.2463 56.3447 54.0137 56.3137 53.7847C56.2827 53.5557 56.1714 53.3451 55.9997 53.1905C55.828 53.0359 55.6069 52.9472 55.3759 52.9403H55.3682L55.6264 54.848C61.3868 53.2337 66.9635 49.534 69.568 43.9845C70.126 42.8397 70.5113 41.6186 70.7113 40.3609C70.7712 40.1128 70.7344 39.8513 70.6085 39.6294C70.4825 39.4075 70.2767 39.2419 70.033 39.1662C69.7847 39.0996 69.5201 39.1334 69.2964 39.2603C69.0728 39.3872 68.9081 39.5971 68.838 39.8445C68.15 44.6122 64.3746 48.5725 60.2205 50.8954C58.6053 51.7885 56.8899 52.4866 55.1101 52.9751C54.8892 53.0432 54.6997 53.1874 54.5752 53.3821C54.4508 53.5768 54.3995 53.8094 54.4305 54.0384C54.4615 54.2674 54.5728 54.478 54.7445 54.6326C54.9162 54.7872 55.1373 54.8759 55.3682 54.8828H55.3759L55.1177 52.9751C52.7497 53.6254 50.3022 53.9403 47.8466 53.9107C46.5133 53.92 45.1807 53.8453 43.8568 53.6869C43.3307 53.6226 42.8046 53.5348 42.2834 53.4308C41.9944 53.3733 41.7087 53.3009 41.4206 53.2394C41.357 53.226 40.8293 53.0775 41.1174 53.1608C40.9115 53.1014 40.7059 53.0415 40.5019 52.9767C36.3231 51.6554 32.4684 48.9229 30.1382 45.1751C29.1093 43.6119 28.4869 41.8167 28.3272 39.9521C28.2725 38.7069 26.3296 38.7 26.3847 39.9521Z" fill="#211715"/>
<path d="M32.2875 69.8902C34.0678 71.5828 35.5192 73.5906 36.5679 75.8121C36.6618 76.0099 36.737 76.1763 36.8127 76.3717C36.8532 76.4749 36.89 76.5785 36.9252 76.6834C37.0397 77.0249 36.8734 76.9031 36.9875 76.4001C36.9471 76.5753 37.1203 76.2257 37.0337 76.2993C36.978 76.3735 36.9315 76.4543 36.8953 76.5397C36.5837 77.0419 36.2174 77.511 35.8597 77.9824C35.7261 78.1581 35.5412 78.3944 35.3085 78.6874C35.0338 79.0357 34.7557 79.3813 34.474 79.7242C33.973 80.3356 33.463 80.9395 32.9439 81.536C32.5639 81.9694 32.1826 82.4077 31.7654 82.8063C31.6974 82.8606 31.6331 82.9193 31.5728 82.982C31.5185 83.0496 31.8095 82.846 31.6132 82.9439C31.8063 82.8484 32.2405 82.8359 31.8354 82.8084C32.1661 82.831 31.6869 82.7772 31.5926 82.7566C30.0122 82.3664 28.5327 81.6452 27.2519 80.6404C26.3148 79.9463 25.4526 79.1564 24.6793 78.2835C23.9546 77.5268 23.3381 76.6734 22.8472 75.7477C22.4668 74.9695 22.1388 74.1667 21.8654 73.3447C21.7323 72.9513 21.6226 72.5551 21.5259 72.152C21.5146 72.1055 21.4854 71.8331 21.5085 72.097C21.5018 72.0524 21.4979 72.0074 21.4968 71.9622C21.4993 71.7483 21.491 71.5343 21.4721 71.3212C21.3378 68.8374 21.7151 66.3526 22.5805 64.0206C23.4702 61.4335 24.8486 59.0415 26.6408 56.9745C27.6861 55.8268 28.8508 54.7937 30.1151 53.8928C31.3746 52.9368 32.7748 52.1819 34.2656 51.6548C35.4473 51.2647 34.941 49.3886 33.7492 49.7819C30.8443 50.7418 28.1798 52.6552 26.0249 54.8001C22.1456 58.8313 19.8358 64.1168 19.5126 69.702C19.4368 70.7369 19.4931 71.7772 19.6801 72.7979C19.9421 73.8153 20.2942 74.8074 20.7323 75.7623C21.7152 77.9253 23.183 79.8328 25.022 81.3369C26.608 82.7475 28.4678 83.8157 30.4854 84.4749C31.0924 84.6582 31.9827 84.9556 32.5776 84.6283C32.9775 84.3648 33.3345 84.0413 33.6359 83.6691C34.7735 82.4449 35.8342 81.1426 36.8673 79.8298C37.353 79.2131 37.8386 78.5927 38.2874 77.9492C38.5861 77.5227 38.943 77.0516 38.8815 76.5037C38.7735 75.9796 38.587 75.4747 38.3283 75.0063C38.0721 74.4534 37.7871 73.9143 37.4744 73.3912C36.747 72.1645 35.9167 71.0018 34.9924 69.9157C34.5764 69.4231 34.1322 68.9549 33.6622 68.5135C32.75 67.6604 31.3733 69.0311 32.2887 69.887L32.2875 69.8902Z" fill="#211715"/>
<path d="M62.5997 51.2942C65.1638 51.8159 67.3487 53.2023 69.3543 54.8337C71.344 56.455 72.9926 58.4546 74.2046 60.7171C75.2866 62.6668 76.0628 64.7712 76.5061 66.9566C76.9456 69.3159 77.0884 72.0343 76.1613 74.2924C75.3207 76.3398 73.7019 78.0354 72.0905 79.5057C71.2668 80.2626 70.3842 80.9527 69.4511 81.5696C69.0832 81.8124 68.7068 82.0402 68.3204 82.2507C68.1647 82.3357 68.007 82.4166 67.8473 82.4935C67.7582 82.5372 67.6684 82.5789 67.5782 82.6202C67.4702 82.6671 67.4619 82.6714 67.5531 82.6331C67.4984 82.6558 67.4438 82.6776 67.3888 82.6987C67.1317 82.7944 66.8679 82.8712 66.5996 82.9285C66.8797 82.8695 66.6939 82.9285 66.6239 82.9217C66.766 82.9475 66.9061 82.9832 67.0432 83.0285C66.8493 82.9265 67.2192 83.2086 67.0711 83.052C66.7226 82.6837 66.3552 82.3357 66.0156 81.9565C65.0096 80.8318 64.0489 79.6639 63.1168 78.4761C62.8817 78.1771 62.7753 78.0411 62.4977 77.6667C62.3115 77.4175 62.127 77.1661 61.9517 76.9084C61.8648 76.7269 61.7584 76.5554 61.6345 76.3968C61.5357 76.3131 61.7219 76.6469 61.6907 76.5332C61.63 76.3143 61.5572 77.2426 61.7097 76.8788C61.7951 76.6765 61.8502 76.4527 61.9275 76.2451C62.7782 73.8483 64.157 71.6735 65.9618 69.8817C66.8756 69.0246 65.4997 67.6527 64.5883 68.5082C62.7304 70.252 61.3706 72.5806 60.384 74.9108C60.0602 75.6757 59.5446 76.5652 59.957 77.3774C60.1947 77.8009 60.4672 78.2039 60.7717 78.5822C61.7834 79.9415 62.8538 81.2592 63.9574 82.5441C64.4046 83.0649 64.8554 83.585 65.3362 84.075C65.687 84.4328 66.0861 84.8545 66.6239 84.8609C67.3928 84.8702 68.2066 84.4745 68.874 84.145C69.7916 83.679 70.6646 83.1297 71.4818 82.504C73.6475 80.9465 75.5238 79.022 77.0261 76.8177C79.9633 72.2678 78.8067 66.2342 76.7752 61.5689C75.7086 59.072 74.1865 56.7954 72.2867 54.8555C70.2618 52.7611 67.8259 51.1077 65.1318 49.9992C64.4776 49.7491 63.8036 49.5541 63.1168 49.4165C62.8687 49.3544 62.6062 49.3902 62.3838 49.5165C62.1614 49.6428 61.9961 49.8499 61.9222 50.0947C61.8561 50.343 61.8902 50.6073 62.017 50.8308C62.1439 51.0542 62.3534 51.2189 62.6005 51.2894L62.5997 51.2942Z" fill="#211715"/>
<path d="M38.5853 78.8786C39.2538 78.7624 40.0758 78.5993 40.6391 79.0882C40.8325 79.2558 41.0074 79.8304 40.6796 79.8482C40.4487 79.8554 40.2279 79.9442 40.0563 80.0989C39.8848 80.2536 39.7736 80.4641 39.7427 80.693C39.7117 80.9219 39.7629 81.1543 39.8872 81.349C40.0114 81.5437 40.2007 81.6881 40.4214 81.7563C41.238 81.9971 41.6002 82.9846 41.4821 83.7717C41.3125 84.898 40.342 85.8251 39.4315 86.4188C39.2053 86.6047 38.9446 86.7442 38.6644 86.8292C38.3842 86.9142 38.0899 86.943 37.7986 86.9141C37.1747 86.7501 36.5887 86.4661 36.0734 86.078C35.0405 85.3619 34.2087 84.3926 33.6578 83.263C33.0956 82.1461 31.4194 83.1286 31.9807 84.2436C32.7709 85.8053 33.9883 87.1105 35.4914 88.0072C36.3065 88.5592 37.2643 88.863 38.2486 88.8817C39.185 88.7853 40.0727 88.4168 40.8022 87.8218C42.1891 86.7996 43.4153 85.3164 43.4416 83.5103C43.4719 82.7162 43.2444 81.9337 42.7931 81.2797C42.3418 80.6256 41.6909 80.1352 40.9377 79.8818L40.6796 81.7895C41.0661 81.7587 41.4387 81.6312 41.763 81.4187C42.0873 81.2061 42.3529 80.9154 42.5354 80.5733C42.7179 80.2311 42.8113 79.8486 42.8072 79.4608C42.803 79.0731 42.7014 78.6926 42.5116 78.3545C41.6213 76.7009 39.6646 76.7277 38.0693 77.0041C37.822 77.0744 37.6123 77.2391 37.4854 77.4627C37.3585 77.6862 37.3246 77.9508 37.391 78.1991C37.4645 78.4443 37.6297 78.6516 37.8522 78.778C38.0748 78.9043 38.3375 78.9399 38.5857 78.8774L38.5853 78.8786Z" fill="#211715"/>
<path d="M60.6377 76.8102C59.0364 76.3999 57.059 76.3064 56.0975 77.9527C55.9049 78.2822 55.7973 78.6545 55.7844 79.0359C55.7714 79.4174 55.8534 79.7961 56.0231 80.138C56.1928 80.4799 56.4448 80.7742 56.7564 80.9946C57.0681 81.2149 57.4296 81.3543 57.8085 81.4002L57.5503 79.4921C55.9089 79.8398 54.8745 81.4779 54.8349 83.0878C54.792 84.811 55.902 86.3852 57.1792 87.4386C57.8708 88.0834 58.7381 88.5084 59.6713 88.66C60.6539 88.6972 61.6271 88.4569 62.4795 87.9668C64.0425 87.1795 65.3496 85.9644 66.2488 84.463C66.8991 83.3913 65.2196 82.414 64.5717 83.4828C63.9514 84.5134 63.0858 85.3747 62.0521 85.9899C61.5179 86.3348 60.9258 86.5803 60.3043 86.7147C60.0028 86.7414 59.6992 86.7041 59.4132 86.6051C59.1272 86.5061 58.8654 86.3477 58.645 86.1404C57.7859 85.4812 56.8955 84.4982 56.7834 83.3711C56.6956 82.4957 57.1736 81.5548 58.0679 81.3654C58.2935 81.3026 58.4884 81.1598 58.6165 80.9637C58.7445 80.7676 58.7968 80.5317 58.7636 80.2999C58.7285 80.07 58.6138 79.8597 58.4394 79.7058C58.2651 79.5519 58.0422 79.4641 57.8097 79.4577C57.8907 79.4683 57.732 79.2728 57.7175 79.1615C57.7227 79.0686 57.7498 78.9782 57.7967 78.8978C57.8435 78.8174 57.9087 78.7493 57.987 78.6989C58.594 78.2356 59.4649 78.5148 60.1225 78.6832C61.3342 78.9935 61.851 77.1206 60.6389 76.8102H60.6377Z" fill="#211715"/>
<path d="M79.9277 88.289C80.3077 87.1133 80.8278 85.9373 81.814 85.1417C82.7017 84.45 83.8092 84.1021 84.9329 84.1619C86.0164 84.2204 87.0412 84.6726 87.8148 85.4335C88.6488 86.3159 89.1185 87.4811 89.1296 88.6953C89.164 89.971 88.8724 91.2343 88.2822 92.3658C88.055 92.8299 87.7982 93.2788 87.5133 93.7098C87.347 93.9721 87.1585 94.2196 86.9499 94.4496C85.7328 95.8991 84.1108 96.9524 82.2915 97.4746C81.1256 97.7952 79.7468 98.0436 78.6618 97.3759C78.1338 97.0609 77.7285 96.5757 77.5124 96C77.2964 95.4243 77.2824 94.7922 77.4729 94.2076C77.8468 93.0117 75.9723 92.5002 75.6 93.6912C75.3596 94.472 75.3304 95.3025 75.5152 96.0983C75.7 96.8941 76.0923 97.6267 76.6522 98.2217C77.1941 98.7825 77.8607 99.2076 78.5977 99.4624C79.3348 99.7172 80.1215 99.7946 80.8941 99.6883C83.505 99.4284 85.9433 98.2655 87.7884 96.4002C89.6342 94.5475 90.9693 91.932 91.0721 89.2991C91.1706 87.6239 90.6774 85.9674 89.6788 84.6188C88.7496 83.4482 87.4369 82.6433 85.9722 82.3461C85.1074 82.1729 84.2166 82.1751 83.3526 82.3524C82.4886 82.5297 81.669 82.8786 80.9423 83.3784C79.436 84.4569 78.6109 86.0458 78.0524 87.7726C77.6671 88.9648 79.5421 89.4755 79.9257 88.289H79.9277Z" fill="#211715"/>
<path d="M21.9339 87.7724C21.4527 86.2836 20.7716 84.7963 19.5482 83.766C18.3357 82.7468 16.7982 82.1957 15.2144 82.2128C13.6919 82.2452 12.2286 82.8083 11.0772 83.8048C9.86097 84.9096 9.10895 86.4345 8.97281 88.0719C8.62639 90.8788 9.87446 93.7639 11.696 95.8594C13.3084 97.7282 15.4916 99.0136 17.908 99.517C19.7226 99.8707 21.462 99.8108 22.9415 98.5862C23.6372 98.0025 24.1454 97.2267 24.4024 96.3557C24.6595 95.4847 24.654 94.5573 24.3867 93.6894C24.0148 92.5004 22.139 93.0079 22.5134 94.2058C22.6887 94.7398 22.6933 95.3152 22.5265 95.8519C22.3597 96.3886 22.0298 96.86 21.5826 97.2005C20.6591 97.9213 19.5158 97.8545 18.426 97.6424C16.528 97.2638 14.7932 96.3085 13.4584 94.9071C12.9731 94.4287 12.5554 93.8863 12.2168 93.2949C11.5249 92.2124 11.0717 90.9949 10.8874 89.7235C10.7064 88.416 10.996 87.0868 11.7045 85.9732C12.354 85.088 13.3072 84.4735 14.3815 84.2472C15.0048 84.119 15.6477 84.1203 16.2705 84.251C16.8932 84.3818 17.4824 84.6391 18.0015 85.0072C19.097 85.7842 19.6607 87.0476 20.0622 88.2852C20.4454 89.4697 22.3215 88.963 21.9351 87.7688L21.9339 87.7724Z" fill="#211715"/>
<path d="M26.7711 25.8133C25.7635 23.3743 25.6696 20.501 26.1358 17.9271C26.5733 15.5649 27.46 13.3086 28.7477 11.2805C31.052 7.6423 34.6675 5.06887 38.6901 3.63383C43.3274 1.96918 48.3181 1.53977 53.1716 2.38779C55.9718 2.85306 58.6772 3.77233 61.1812 5.10934C63.4477 6.38439 65.4822 8.03341 67.199 9.98668C70.53 13.7503 71.7514 18.9518 71.2795 23.8854C71.2228 24.4754 71.1459 25.0634 71.0626 25.6502C71.0025 25.8983 71.0393 26.1599 71.1653 26.3818C71.2913 26.6037 71.4971 26.7693 71.7408 26.8449C71.9892 26.9114 72.2537 26.8776 72.4774 26.7507C72.701 26.6238 72.8657 26.414 72.9359 26.1666C73.1464 24.8509 73.2752 23.5234 73.3216 22.1918C73.3321 20.6924 73.1956 19.1955 72.914 17.7228C72.4765 15.0706 71.46 12.5474 69.9367 10.3327C66.6049 5.63301 61.4758 2.42826 55.9457 1.00496C53.0574 0.226763 50.0658 -0.098567 47.0777 0.0405808C44.5746 0.174499 42.0942 0.587689 39.6828 1.27246C35.1248 2.60106 30.9443 5.11096 28.0394 8.91303C24.7388 13.2355 23.1771 19.057 24.313 24.4184C24.4492 25.072 24.645 25.7118 24.8978 26.3297C24.9733 26.5735 25.1389 26.7795 25.3608 26.9055C25.5827 27.0316 25.8444 27.0684 26.0925 27.0084C26.3401 26.9385 26.5502 26.7739 26.6772 26.5502C26.8042 26.3265 26.838 26.0618 26.7711 25.8133Z" fill="#211715"/>
<path d="M46.1028 17.053C46.0219 17.357 45.928 17.6532 45.826 17.9507C45.7993 18.0182 45.8102 17.9936 45.8588 17.8774C45.8454 17.909 45.8313 17.9401 45.8183 17.9713C45.7944 18.0231 45.7702 18.0749 45.7447 18.1259C45.6836 18.2473 45.6172 18.3687 45.546 18.4853C45.4747 18.6018 45.3995 18.7167 45.3193 18.8276C45.3007 18.8535 45.1745 19.0033 45.2712 18.8936C45.3679 18.7839 45.2145 18.9587 45.1955 18.981C45.024 19.1806 44.8383 19.3675 44.6399 19.5403C44.5881 19.5852 44.5346 19.6285 44.482 19.6726C44.3436 19.7888 44.5868 19.6002 44.4885 19.6674C44.3902 19.7345 44.2833 19.813 44.1769 19.8806C44.0612 19.9543 43.9426 20.0239 43.8216 20.0882C43.7074 20.1655 43.5829 20.2261 43.4517 20.2683C43.5525 20.2517 43.5909 20.2117 43.4618 20.2614C43.3981 20.2863 43.3338 20.3097 43.2688 20.3319C43.1502 20.3723 43.03 20.4087 42.9086 20.4403C42.7759 20.4746 42.642 20.5036 42.5071 20.5273L42.4396 20.5387C42.3316 20.5548 42.3497 20.5527 42.4938 20.5322C42.4272 20.5507 42.3579 20.5572 42.289 20.5516C42.0314 20.5516 41.7844 20.6539 41.6022 20.8361C41.4201 21.0182 41.3177 21.2653 41.3177 21.5229C41.3177 21.7805 41.4201 22.0275 41.6022 22.2096C41.7844 22.3918 42.0314 22.4941 42.289 22.4941C43.6452 22.3853 44.9315 21.8475 45.9616 20.9587C46.967 20.064 47.6709 18.8801 47.9769 17.5694C48.0108 17.4465 48.0202 17.318 48.0045 17.1914C47.9887 17.0648 47.9482 16.9426 47.8852 16.8316C47.8222 16.7207 47.738 16.6233 47.6374 16.5449C47.5368 16.4665 47.4217 16.4087 47.2987 16.3748C47.1757 16.3409 47.0473 16.3315 46.9207 16.3473C46.7941 16.363 46.6718 16.4035 46.5609 16.4665C46.4499 16.5295 46.3525 16.6137 46.2741 16.7143C46.1957 16.815 46.1379 16.9301 46.104 17.053H46.1028Z" fill="#211715"/>
<path d="M52.5734 17.8782C52.5734 17.9879 52.5734 18.0972 52.5674 18.2064C52.5637 18.272 52.5572 18.3372 52.552 18.4027C52.537 18.5864 52.5795 18.2485 52.5581 18.372C52.5207 18.5981 52.4695 18.8218 52.4047 19.0417C52.3727 19.1461 52.3367 19.2493 52.2978 19.3513C52.2841 19.3877 52.1942 19.5431 52.2723 19.4177C52.3505 19.2922 52.2558 19.4484 52.2404 19.4812C52.1412 19.6887 52.0279 19.889 51.9012 20.081C51.8713 20.1267 51.8401 20.172 51.8086 20.2165C51.7904 20.2428 51.6823 20.4023 51.7681 20.2768C51.8539 20.1514 51.7426 20.3072 51.7216 20.3327C51.6864 20.3732 51.6507 20.4165 51.6143 20.4573C51.4618 20.629 51.2975 20.7898 51.1226 20.9385C51.0975 20.9596 50.9579 21.0895 51.068 20.9863C51.1781 20.8831 51.0376 21.0085 51.0093 21.0267C50.9207 21.0903 50.8296 21.151 50.7365 21.2076C50.634 21.2705 50.5292 21.3292 50.4221 21.3837C50.3735 21.4084 50.3242 21.4314 50.2748 21.4553C50.0992 21.5407 50.4618 21.3816 50.2651 21.4606C50.0202 21.5344 49.8132 21.6997 49.6869 21.9222C49.5606 22.1446 49.5248 22.4071 49.5868 22.6552C49.6576 22.9021 49.8223 23.1114 50.0457 23.2382C50.269 23.365 50.5332 23.3992 50.7815 23.3335C51.906 22.8917 52.8692 22.1177 53.5427 21.1146C54.1861 20.1582 54.5257 19.0297 54.5168 17.877C54.5168 17.6194 54.4144 17.3724 54.2323 17.1902C54.0501 17.0081 53.8031 16.9058 53.5455 16.9058C53.2879 16.9058 53.0409 17.0081 52.8587 17.1902C52.6766 17.3724 52.5742 17.6194 52.5742 17.877L52.5734 17.8782Z" fill="#211715"/>
</g>
<defs>
<clipPath id="clip0_879_2804">
<rect width="100" height="100" fill="white"/>
</clipPath>
</defs>
</svg>
