<svg width="100" height="100" viewBox="0 0 100 100" fill="none" xmlns="http://www.w3.org/2000/svg">
<g clip-path="url(#clip0_879_2792)">
<path d="M83.2276 64.9423L77.9315 63.6682V50.6136H80.487V45.128C80.487 41.0058 77.1334 37.6523 73.0112 37.6523H41.6568C37.5345 37.6523 34.181 41.0058 34.181 45.128V50.6136H36.7365V53.7583L27.3298 51.4954L17.232 0H0.602936V5.96854H12.3201L22.941 60.1313L24.9912 70.5868C26.8488 69.945 28.8416 69.5956 30.9144 69.5956C40.9425 69.5956 49.1009 77.754 49.1009 87.7823C49.1009 87.945 49.0985 88.1071 49.0942 88.2688H74.5942C75.6794 80.7942 82.1276 75.0336 89.8981 75.0336C90.8686 75.0336 91.817 75.1278 92.7385 75.2995C91.9854 70.2848 88.2866 66.1592 83.2276 64.9423Z" fill="#6604C8"/>
<path d="M30.9142 75.564C24.1773 75.564 18.6963 81.045 18.6963 87.7821C18.6963 94.5192 24.1773 100 30.9142 100C37.6511 100 43.1321 94.519 43.1321 87.7821C43.1321 81.045 37.6511 75.564 30.9142 75.564Z" fill="#6604C8"/>
<path d="M89.8981 81.002C84.6604 81.002 80.3991 85.2631 80.3991 90.501C80.3991 95.7388 84.6602 100 89.8981 100C95.1359 100 99.3971 95.7388 99.3971 90.501C99.3971 85.2631 95.1357 81.002 89.8981 81.002Z" fill="#6604C8"/>
</g>
<defs>
<clipPath id="clip0_879_2792">
<rect width="100" height="100" fill="white"/>
</clipPath>
</defs>
</svg>
