<svg width="20" height="26" viewBox="0 0 20 26" fill="none" xmlns="http://www.w3.org/2000/svg">
<path d="M10.9075 12.4565L14.5097 8.34641L2.87489 0.885069C2.10379 0.4097 1.38141 0.342982 0.747959 0.86283L10.9075 12.4565ZM15.1236 17.2686L18.8683 14.8654C19.5992 14.3983 20 13.7367 20 13.0028C20 12.2703 19.5992 11.6073 18.8695 11.1402L15.4794 8.96773L11.6628 13.3211L15.1236 17.2686ZM0.121817 1.87334C0.0438542 2.14716 0 2.45295 0 2.78793V23.2274C0 23.757 0.102327 24.2129 0.287489 24.5757L10.1511 13.3197L0.121817 1.87334ZM10.9075 14.1815L1.09879 25.3749C1.28639 25.4569 1.48861 25.5 1.70179 25.5C2.08186 25.5 2.47777 25.3721 2.88098 25.1164L14.1552 17.8927L10.9075 14.1815Z" fill="#EEEEEE"/>
</svg>
