<svg width="33" height="33" viewBox="0 0 33 33" fill="none" xmlns="http://www.w3.org/2000/svg">
<path d="M16.3947 0C12.054 0 11.5086 0.0209947 9.80371 0.0968989C8.09878 0.177648 6.93604 0.44735 5.91884 0.847866C4.85154 1.25342 3.88485 1.88948 3.08635 2.71156C2.27273 3.51829 1.64291 4.49429 1.24067 5.57169C0.844027 6.5972 0.575333 7.7713 0.496963 9.48802C0.421793 11.2144 0.401001 11.7635 0.401001 16.1514C0.401001 20.5361 0.421793 21.0852 0.496963 22.8068C0.576932 24.5284 0.844027 25.7008 1.24067 26.728C1.64295 27.8053 2.27277 28.7813 3.08635 29.5881C3.88386 30.4106 4.85014 31.0468 5.91724 31.4518C6.93604 31.8507 8.09558 32.1236 9.79892 32.2028C11.507 32.2787 12.0508 32.2997 16.3947 32.2997C20.7386 32.2997 21.2808 32.2803 22.9873 32.2028C24.6891 32.122 25.855 31.8507 26.8738 31.4518C27.9406 31.0462 28.9068 30.4101 29.7047 29.5881C30.5177 28.7812 31.147 27.8052 31.5488 26.728C31.9422 25.7008 32.2125 24.5267 32.2925 22.8068C32.3677 21.0852 32.3885 20.5361 32.3885 16.1498C32.3885 11.7635 32.3693 11.2144 32.2925 9.48964C32.2125 7.7713 31.9422 6.5972 31.5488 5.57169C31.1466 4.49424 30.5168 3.51822 29.7031 2.71156C28.9049 1.88915 27.9381 1.25305 26.8706 0.847866C25.8518 0.44735 24.6875 0.176033 22.9857 0.0968989C21.2792 0.0209947 20.737 0 16.3915 0H16.3947ZM14.9617 2.91181H16.3947C20.6651 2.91181 21.1721 2.92473 22.8562 3.00387C24.4156 3.07493 25.2633 3.33978 25.8278 3.55942C26.5731 3.85173 27.1073 4.2038 27.6671 4.76743C28.2269 5.33267 28.5724 5.87046 28.8618 6.62466C29.0826 7.19313 29.3417 8.04907 29.412 9.62368C29.4904 11.3243 29.5064 11.8362 29.5064 16.1466C29.5064 20.4554 29.4904 20.9689 29.412 22.6711C29.3417 24.2441 29.081 25.0984 28.8618 25.6685C28.6057 26.3697 28.1969 27.0039 27.6655 27.5242C27.1496 28.0603 26.5211 28.4726 25.8262 28.7305C25.2665 28.9518 24.4188 29.215 22.8562 29.2877C21.1721 29.3636 20.6651 29.383 16.3947 29.383C12.1244 29.383 11.6174 29.3652 9.93166 29.2877C8.37228 29.215 7.52621 28.9518 6.96323 28.7305C6.26856 28.4722 5.64006 28.06 5.12395 27.5242C4.59166 27.0034 4.18176 26.3687 3.92442 25.6669C3.70691 25.0984 3.44461 24.2425 3.37424 22.6679C3.29906 20.9657 3.28307 20.4554 3.28307 16.1418C3.28307 11.8297 3.29906 11.321 3.37424 9.61884C3.44621 8.04423 3.7069 7.18829 3.92602 6.61981C4.21551 5.86723 4.56417 5.32783 5.12395 4.76258C5.63966 4.22584 6.26824 3.813 6.96323 3.55458C7.52621 3.33332 8.37228 3.07008 9.93166 2.99741C11.4079 2.92958 11.9789 2.90858 14.9601 2.90697V2.91181H14.9617ZM24.9338 5.59269C24.4248 5.59269 23.9366 5.79686 23.5767 6.16031C23.2167 6.52375 23.0145 7.01668 23.0145 7.53067C23.0145 8.04465 23.2167 8.53758 23.5767 8.90102C23.9366 9.26446 24.4248 9.46864 24.9338 9.46864C25.4428 9.46864 25.931 9.26446 26.2909 8.90102C26.6508 8.53758 26.853 8.04465 26.853 7.53067C26.853 7.01668 26.6508 6.52375 26.2909 6.16031C25.931 5.79686 25.4428 5.59269 24.9338 5.59269ZM16.3947 7.85689C14.2161 7.82263 12.1133 8.66365 10.5488 10.195C8.98432 11.7263 8.08634 13.8224 8.0524 16.0222C8.01847 18.2221 8.85136 20.3455 10.3679 21.9252C11.8844 23.505 13.9602 24.4117 16.1388 24.446C18.3174 24.4803 20.4203 23.6392 21.9847 22.1079C23.5492 20.5766 24.4472 18.4805 24.4812 16.2806C24.5151 14.0808 23.6822 11.9574 22.1657 10.3777C20.6492 8.79791 18.5733 7.89116 16.3947 7.85689ZM16.3947 10.7655C17.095 10.7655 17.7884 10.9047 18.4353 11.1753C19.0823 11.4459 19.6701 11.8425 20.1652 12.3425C20.6604 12.8425 21.0532 13.4361 21.3211 14.0893C21.5891 14.7426 21.727 15.4427 21.727 16.1498C21.727 16.8569 21.5891 17.5571 21.3211 18.2103C21.0532 18.8636 20.6604 19.4572 20.1652 19.9571C19.6701 20.4571 19.0823 20.8537 18.4353 21.1243C17.7884 21.3949 17.095 21.5342 16.3947 21.5342C14.9805 21.5342 13.6242 20.9669 12.6242 19.9571C11.6242 18.9474 11.0624 17.5778 11.0624 16.1498C11.0624 14.7218 11.6242 13.3523 12.6242 12.3425C13.6242 11.3328 14.9805 10.7655 16.3947 10.7655Z" fill="white"/>
</svg>
