<svg width="33" height="33" viewBox="0 0 33 33" fill="none" xmlns="http://www.w3.org/2000/svg">
<path d="M0.706787 2.31427C0.706787 1.03359 1.75917 0 3.05627 0H30.3432C31.6435 0 32.6942 1.0352 32.6942 2.31427V29.9854C32.6942 31.2661 31.6435 32.2997 30.3448 32.2997H3.05787C1.75917 32.2997 0.706787 31.2645 0.706787 29.9854V2.31427ZM10.5893 27.0397V12.4515H5.788V27.0364H10.5909L10.5893 27.0397ZM8.19025 10.4619C9.8632 10.4619 10.9044 9.34268 10.9044 7.94249C10.8756 6.51 9.8648 5.42311 8.22224 5.42311C6.57649 5.4215 5.50491 6.51161 5.50491 7.94249C5.50491 9.34268 6.5461 10.4619 8.15827 10.4619H8.19025ZM18.0024 27.038V18.8953C18.0024 18.4593 18.0344 18.0232 18.1623 17.7115C18.5078 16.8427 19.2979 15.9399 20.6254 15.9399C22.3623 15.9399 23.0564 17.2755 23.0564 19.2377V27.0413H27.8561V18.6757C27.8561 14.1925 25.4891 12.1091 22.3303 12.1091C19.7841 12.1091 18.6422 13.5239 18.0024 14.5187V14.5688H17.9704L18.0024 14.5187V12.4515H13.2043C13.2635 13.821 13.2043 27.0364 13.2043 27.0364H18.0024V27.038Z" fill="white"/>
</svg>
