<svg width="100" height="100" viewBox="0 0 100 100" fill="none" xmlns="http://www.w3.org/2000/svg">
<g clip-path="url(#clip0_874_2192)">
<path d="M42.7982 55.7667C43.9751 59.3018 45.3525 62.7669 46.9237 66.1452C47.2368 66.7422 47.4688 67.3784 47.6135 68.0368C47.744 68.8085 47.623 69.5981 47.5012 70.3714C46.5792 76.2556 45.6573 82.1397 44.7353 88.024C43.6593 87.7399 40.5493 86.8322 39.4228 86.5478C39.5558 84.0188 40.0547 78.5631 40.4877 75.4999C40.6555 74.3119 40.9132 72.8849 40.6872 71.7064C40.5102 70.6151 40.1292 69.5669 39.5641 68.6167C36.9502 64.1243 33.3853 59.4932 30.7714 55.0015" fill="#6604C8"/>
<path d="M63.9539 11.2424C63.8753 11.906 63.7241 12.559 63.5031 13.1896C63.1926 14.3824 62.7582 16.0369 63.6691 16.9387C63.8562 17.1105 63.9808 17.3397 64.0233 17.5901C64.1102 18.2548 63.5269 18.3709 63.1129 18.618C62.8514 18.7787 62.6332 19.0011 62.4775 19.2656C62.2567 19.8945 61.6531 21.279 61.021 21.9293C60.6161 22.3848 60.0503 22.6656 59.4426 22.7126C58.4514 22.7784 57.1217 22.392 56.0821 22.1827C55.4831 22.083 54.9902 22.0392 54.4491 22.2597C54.3091 22.317 54.1761 22.3901 54.0527 22.4776C53.5123 22.8577 53.1457 23.4812 52.8155 24.0724C52.3831 24.8455 51.8889 25.6366 51.4565 26.4098L51.417 26.4808C51.3721 26.3442 51.3254 26.2083 51.2784 26.0729C50.7005 24.4024 49.4141 21.7532 48.3651 19.8496C48.4195 19.6878 48.4262 19.5373 48.4756 19.3599C48.7744 18.3042 48.1117 17.116 47.7029 16.1411C47.026 14.1834 46.8704 12.0833 47.2515 10.0472C48.0623 6.0153 50.5399 4.24082 52.3166 3.68601C54.7796 2.89026 57.4569 3.09602 59.7695 4.25879C61.8337 5.26508 64.3764 7.47533 63.9541 11.2444" fill="white"/>
<path d="M47.7795 18.8208C48.8777 20.6676 50.5873 24.0708 51.2784 26.071C51.5121 26.6553 51.6614 27.2699 51.7218 27.8963C51.7248 28.4645 51.6547 29.0306 51.5134 29.5809L50.2254 35.6611C49.6931 37.9572 47.2971 42.4309 46.8395 43.6072C46.9139 44.0044 45.7059 46.4356 44.5974 47.0192C39.4493 48.5628 33.4167 50.0621 28.043 50.11C26.5789 50.1773 26.8451 48.4462 27.2777 46.6825C27.5106 45.1185 28.649 42.0634 28.8251 41.691L29.8718 40.0944C30.9201 37.8482 31.1908 36.9437 32.5773 33.9033C35.3732 27.7725 40.0425 22.2148 47.7795 18.8208Z" fill="white"/>
<path d="M47.1782 13.9545C46.9721 12.6571 46.9971 11.3335 47.2521 10.0448C48.0608 6.01381 50.539 4.23932 52.3159 3.68518C54.7792 2.88854 57.4572 3.09432 59.7699 4.25796C61.729 5.21192 64.1203 7.25168 63.9959 10.6803C62.6518 10.5547 61.2677 10.424 61.2677 10.424C59.7099 10.331 58.5145 10.7715 57.4184 11.3674C56.3898 11.926 55.705 13.4238 54.9646 13.3418C54.9067 12.8203 54.6597 12.3381 54.2703 11.9864C54.1397 11.8796 53.9861 11.8044 53.8216 11.7669C53.657 11.7293 53.486 11.7305 53.322 11.7701C52.8326 11.9096 52.5556 12.4309 52.4422 12.9269C52.333 13.3389 52.3072 13.7686 52.3663 14.1907C52.4254 14.6128 52.5682 15.0189 52.7863 15.3851C51.7306 16.3249 50.1946 17.665 48.4961 18.2701C48.3588 17.5334 47.9743 16.7888 47.7032 16.1403C47.4668 15.4278 47.2912 14.6966 47.1782 13.9545Z" fill="#7A7473"/>
<path d="M52.7742 16.1132C51.5915 17.1453 50.3386 18.1094 48.8728 18.701C48.7349 18.7381 48.588 18.7194 48.4639 18.649C48.3398 18.5785 48.2484 18.4619 48.2097 18.3246C48.1751 18.1869 48.195 18.0411 48.2651 17.9176C48.3352 17.7941 48.4502 17.7024 48.5861 17.6615C49.2444 17.3769 49.8696 17.0212 50.4505 16.6006C50.9924 16.2118 51.5135 15.7946 52.0116 15.3509C52.1143 15.2529 52.2508 15.1982 52.3928 15.1982C52.5347 15.1982 52.6712 15.2529 52.7739 15.3509C52.8738 15.4526 52.9298 15.5895 52.9298 15.732C52.9298 15.8746 52.874 16.0115 52.7742 16.1132Z" fill="#211715"/>
<path d="M61.2677 10.9631C60.0038 10.9023 58.7496 11.2108 57.658 11.8508C56.7701 12.3591 56.3249 13.5624 55.3022 13.8478C54.6329 14.0347 54.3472 12.9943 55.0156 12.8081C55.1553 12.769 54.9359 12.86 55.0734 12.7899C55.1223 12.7645 55.1692 12.7352 55.2135 12.7023C55.2135 12.7023 55.3422 12.59 55.3883 12.5451C55.5808 12.3582 55.7555 12.154 55.935 11.955C56.3265 11.4903 56.7991 11.1006 57.3299 10.8049C58.5353 10.1484 59.8961 9.83084 61.2677 9.88602C61.9579 9.92241 61.9622 11.0008 61.2677 10.9642V10.9631Z" fill="#211715"/>
<path d="M54.3103 12.9544C54.18 12.6087 53.8555 12.2071 53.4981 12.2805C53.4245 12.3008 53.356 12.3365 53.2972 12.3851C53.2384 12.4337 53.1905 12.4942 53.1567 12.5627C53.0431 12.7637 52.9669 12.9838 52.9321 13.212C52.7393 14.199 53.0922 15.0501 53.7683 15.8102C53.8664 15.9129 53.9212 16.0494 53.9212 16.1914C53.9212 16.3334 53.8664 16.4699 53.7683 16.5726C53.6666 16.6725 53.5297 16.7284 53.3871 16.7284C53.2446 16.7284 53.1077 16.6725 53.006 16.5726C52.4888 16.0322 52.1116 15.3736 51.9073 14.6541C51.7387 13.9562 51.7672 13.2253 51.9898 12.5427C52.2299 11.8345 52.7782 11.1837 53.5864 11.195C54.4711 11.2066 55.0603 11.8991 55.3501 12.6664C55.3869 12.8043 55.368 12.9511 55.2976 13.0752C55.2272 13.1992 55.1108 13.2907 54.9736 13.3297C54.836 13.3646 54.6902 13.3451 54.5666 13.2752C54.4431 13.2053 54.3513 13.0904 54.3103 12.9544Z" fill="#211715"/>
<path d="M64.493 11.2423C64.3871 11.9744 64.2238 12.697 64.0046 13.4034C63.8497 13.9159 63.7414 14.4414 63.6812 14.9735C63.6376 15.4593 63.6311 16.0332 63.9444 16.4411C64.1272 16.6342 64.2876 16.8473 64.4224 17.0763C64.5753 17.3892 64.6093 17.7469 64.5179 18.0829C64.351 18.6415 63.8351 18.8156 63.3849 19.0829C62.9415 19.3461 62.8584 19.7936 62.6596 20.2464C62.1684 21.3643 61.5127 22.5638 60.3256 23.0517C59.6607 23.325 58.946 23.2745 58.2495 23.1745C57.4705 23.0622 56.709 22.8601 55.9388 22.7017C55.8706 22.6829 55.8067 22.6508 55.7508 22.6073C55.695 22.5638 55.6482 22.5097 55.6133 22.4481C55.5783 22.3866 55.5558 22.3187 55.5471 22.2484C55.5383 22.1782 55.5435 22.1069 55.5623 22.0386C55.5812 21.9704 55.6132 21.9065 55.6568 21.8506C55.7003 21.7948 55.7543 21.748 55.8159 21.7131C55.8775 21.6781 55.9453 21.6556 56.0156 21.6469C56.0859 21.6382 56.1572 21.6433 56.2254 21.6622C56.8559 21.7911 57.4801 21.951 58.1136 22.0665C58.6203 22.1583 59.1944 22.2583 59.7023 22.1287C60.7544 21.8592 61.2948 20.6752 61.6978 19.7722C61.9033 19.3118 62.0307 18.8623 62.4006 18.4946C62.5942 18.3081 62.816 18.1535 63.0579 18.0364C63.2236 17.977 63.3749 17.8831 63.5015 17.7608C63.4566 17.8203 63.4979 17.721 63.4918 17.6709C63.4754 17.5725 63.4327 17.4803 63.3683 17.4041C63.1929 17.2192 63.0363 17.0173 62.9009 16.8014C62.659 16.309 62.5505 15.7617 62.5864 15.2143C62.6414 13.8412 63.2542 12.5943 63.4139 11.2437C63.4181 11.102 63.4763 10.9674 63.5765 10.8672C63.6767 10.767 63.8113 10.7088 63.953 10.7046C64.0957 10.7055 64.2323 10.7626 64.3332 10.8635C64.4341 10.9644 64.4912 11.101 64.4921 11.2437L64.493 11.2423Z" fill="#211715"/>
<path d="M63.415 11.2427C63.5534 10.1735 63.4034 9.0867 62.9806 8.09491C62.5967 7.26921 62.0416 6.53456 61.3521 5.9397C60.25 5.00831 58.946 4.34665 57.5435 4.00724C56.1411 3.66782 54.6788 3.66 53.2728 3.98439C52.9705 4.05357 52.6695 4.13399 52.3743 4.23147C52.302 4.25543 52.2302 4.28074 52.1589 4.30739C52.1297 4.3184 52.1005 4.32985 52.0713 4.34108C52.0421 4.35232 52.0122 4.36467 51.9828 4.3768C52.0298 4.35658 52.0356 4.35434 51.9999 4.36961C51.3321 4.65923 50.7188 5.06087 50.1863 5.55717C48.64 6.99653 47.8054 9.11356 47.6221 11.1929C47.5065 12.7436 47.6876 14.3021 48.1558 15.785C48.3615 16.475 48.751 17.0994 48.9419 17.7989C49.1303 18.5204 49.1107 19.2804 48.8853 19.9912C48.6953 20.6572 47.6546 20.373 47.8456 19.7046C48.0423 19.0895 48.0333 18.4272 47.82 17.8178C47.6093 17.1861 47.2762 16.6037 47.0828 15.9667C46.6389 14.5343 46.4489 13.0353 46.5212 11.5374C46.656 9.16432 47.5095 6.73058 49.1987 5.01629C52.4193 1.74786 58.1205 2.08793 61.601 4.75843C62.5265 5.44512 63.2846 6.33236 63.8184 7.35367C64.412 8.55862 64.6466 9.90883 64.4943 11.2434C64.4903 11.3851 64.4322 11.5199 64.332 11.6201C64.2317 11.7204 64.0969 11.7785 63.9552 11.7825C63.8125 11.7816 63.6759 11.7245 63.575 11.6236C63.4741 11.5227 63.417 11.3861 63.4161 11.2434L63.415 11.2427Z" fill="#211715"/>
<path d="M43.8206 88.0682C43.6776 89.5133 44.8739 91.0138 46.0239 91.5673C47.174 92.1207 48.4597 92.4839 49.3779 93.3705C50.0042 93.9747 50.371 95.0828 49.7263 95.6677C49.2497 96.1001 48.5095 95.9864 47.8815 95.846C45.2914 95.2665 42.9702 94.913 40.3793 94.3337C39.7503 94.1928 38.7651 93.758 38.5066 93.1674C38.2636 92.4856 38.2877 91.737 38.574 91.0722C38.9821 90.2031 39.193 88.6593 39.4437 87.3325" fill="white"/>
<path d="M44.3597 88.0683C44.2863 88.9739 44.7429 89.8106 45.3705 90.4355C46.034 91.0961 46.9291 91.376 47.7676 91.7464C48.6661 92.1426 49.6019 92.6431 50.1603 93.4809C50.6504 94.2165 50.8314 95.3086 50.1603 95.9966C49.3678 96.81 48.1582 96.453 47.1953 96.2457C46.0607 96.0016 44.9204 95.7862 43.7811 95.5694C42.616 95.3479 41.4498 95.1265 40.2928 94.8648C39.494 94.6851 38.5446 94.2826 38.1023 93.5512C37.8561 93.0799 37.7546 92.5463 37.8103 92.0175C37.8252 91.7387 37.873 91.4625 37.9529 91.195C38.025 90.9665 38.1376 90.7538 38.2157 90.5274C38.5863 89.4537 38.7168 88.3003 38.9255 87.1884C38.9646 87.0513 39.056 86.9349 39.18 86.8645C39.304 86.794 39.4507 86.7751 39.5886 86.8117C39.7248 86.8523 39.8401 86.944 39.9103 87.0676C39.9806 87.1913 40.0002 87.3372 39.9653 87.475C39.7878 88.4198 39.6533 89.3771 39.4071 90.3075C39.2038 91.0757 38.7719 91.759 38.9019 92.5842C38.9135 92.7247 38.9566 92.8608 39.0278 92.9824C39.0991 93.104 39.1968 93.208 39.3137 93.2868C39.6227 93.5048 39.9678 93.6663 40.3332 93.7639C41.3289 94.0476 42.3772 94.2057 43.3925 94.4009C44.4356 94.6011 45.4801 94.7945 46.521 95.0054C47.0513 95.113 47.5794 95.23 48.1084 95.3423C48.4527 95.4158 48.8849 95.5117 49.2205 95.3607C49.8391 95.0829 49.41 94.1873 49.0767 93.8304C48.4628 93.1729 47.5718 92.8196 46.7602 92.4753C46.2976 92.3022 45.8498 92.0919 45.4213 91.8463C45.0183 91.5907 44.6562 91.2757 44.3471 90.9122C43.68 90.126 43.1971 89.1197 43.2827 88.0667C43.2861 87.9248 43.3441 87.7897 43.4444 87.6893C43.5448 87.589 43.6799 87.5311 43.8217 87.5276C43.9644 87.5287 44.1009 87.5859 44.2017 87.6867C44.3026 87.7876 44.3597 87.9241 44.3608 88.0667L44.3597 88.0683Z" fill="#211715"/>
<path d="M43.3179 55.6237C43.9978 57.6623 44.7431 59.6774 45.554 61.6691C45.9553 62.6541 46.3737 63.6319 46.8092 64.6026C47.2339 65.5509 47.771 66.4948 48.0457 67.5002C48.3377 68.5727 48.1555 69.659 47.9871 70.7347L47.4684 74.0444L46.4312 80.6642L45.2555 88.1664C45.2162 88.3035 45.1248 88.4196 45.0008 88.49C44.8768 88.5604 44.7302 88.5794 44.5924 88.5429C42.8159 88.0712 41.0614 87.5186 39.28 87.0667C39.1667 87.0345 39.0668 86.9665 38.9955 86.8728C38.9241 86.779 38.8851 86.6647 38.8842 86.5469C39.0823 82.8221 39.4437 79.0808 39.9639 75.3872C40.1239 74.2511 40.3795 73.0406 40.1762 71.8944C39.997 70.8364 39.632 69.8186 39.098 68.8879C37.8256 66.6855 36.3923 64.5776 34.9673 62.4725C33.3646 60.105 31.7463 57.7436 30.3053 55.2726C29.9551 54.672 30.8864 54.1286 31.2364 54.7283C33.8258 59.1691 36.9765 63.2506 39.6223 67.656C40.247 68.6226 40.7239 69.677 41.0374 70.7843C41.1939 71.3626 41.2862 71.9564 41.3128 72.555C41.318 73.1884 41.2729 73.8213 41.178 74.4476C40.9186 76.3991 40.6652 78.3531 40.4684 80.3371C40.2636 82.4036 40.0729 84.4735 39.9626 86.5469L39.5666 86.0292C41.348 86.4811 43.1025 87.0348 44.879 87.5051L44.216 87.8818L46.2645 74.8079L46.7744 71.5532C46.9379 70.5101 47.2101 69.4157 47.1144 68.3546C47.0264 67.3784 46.4745 66.4642 46.0769 65.5884C45.6361 64.6164 45.2107 63.6376 44.8009 62.652C43.878 60.4368 43.0371 58.1899 42.2782 55.9112C42.0583 55.2515 43.0992 54.9678 43.3179 55.6246V55.6237Z" fill="#211715"/>
<path d="M51.7063 28.4562C51.7182 28.3297 51.725 28.2028 51.7252 28.0757C52.2339 29.2991 52.5976 30.5779 52.809 31.8859C52.9689 32.9492 53.1614 34.0256 53.6374 34.9899C54.0516 35.8288 54.6639 36.5503 55.2546 37.2749C56.604 38.9281 57.8732 40.6427 59.0621 42.4187C58.0904 43.3318 57.4314 43.8626 56.6138 44.9156C56.5886 44.8904 56.5641 44.8655 56.5394 44.8403L55.1333 43.4052C54.3022 41.3702 52.5251 39.4174 50.9947 37.5427C50.6823 37.1608 50.364 36.779 50.0738 36.3794L51.5138 29.5815C51.5997 29.2105 51.664 28.8347 51.7063 28.4562Z" fill="white"/>
<path d="M59.6589 42.8571C59.4826 42.6837 59.2843 42.5343 59.0691 42.4126C57.9909 43.4263 57.2975 43.9681 56.3483 45.2688C56.5654 45.4687 56.8207 45.6225 57.0987 45.7212C57.7643 45.9366 58.4817 45.6869 59.1812 45.6727C59.9336 45.6782 60.6679 45.9047 61.2926 46.3241C61.984 45.9647 62.782 45.5436 63.3964 45.493C63.8022 45.4618 64.209 45.5393 64.5749 45.7176C64.645 44.648 63.7313 44.3475 62.9467 44.329C62.3786 44.3153 61.7894 44.3982 61.2566 44.2003C60.6012 43.9551 60.1713 43.3412 59.6589 42.8571Z" fill="white"/>
<path d="M52.2456 27.9339C52.6411 28.9053 52.9544 29.9081 53.1823 30.9319C53.3957 31.9427 53.4821 32.9734 53.8018 33.9615C54.118 34.9388 54.7083 35.7558 55.3516 36.5446C56.0376 37.3865 56.7142 38.2349 57.3671 39.1026C58.1159 40.0972 58.8365 41.1119 59.5291 42.1466C59.5886 42.2497 59.6126 42.3694 59.5973 42.4875C59.5821 42.6055 59.5286 42.7152 59.4449 42.7998C58.59 43.6013 57.7212 44.3704 56.9965 45.2967C56.8951 45.3971 56.7581 45.4534 56.6154 45.4534C56.4726 45.4534 56.3356 45.3971 56.2342 45.2967C56.1364 45.1939 56.0818 45.0574 56.0818 44.9155C56.0818 44.7736 56.1364 44.6371 56.2342 44.5343C56.9592 43.608 57.8278 42.8389 58.6825 42.0375L58.5981 42.6907C57.3689 40.8579 56.0538 39.0893 54.6526 37.3849C53.9759 36.5563 53.3368 35.7203 52.9339 34.7207C52.539 33.7405 52.4139 32.7034 52.2312 31.6713C52.0061 30.4898 51.6629 29.3339 51.2068 28.2209C51.1698 28.0831 51.1887 27.9362 51.2591 27.8121C51.3296 27.688 51.4461 27.5966 51.5834 27.5576C51.7212 27.523 51.867 27.5429 51.9905 27.613C52.114 27.6832 52.2057 27.7983 52.2465 27.9343L52.2456 27.9339Z" fill="#211715"/>
<path d="M59.1902 41.873C59.6551 42.1178 60.0689 42.4495 60.4089 42.8501C60.7344 43.1933 61.0709 43.5913 61.5433 43.7247C62.1533 43.8959 62.8191 43.7418 63.4444 43.8371C63.737 43.8693 64.0189 43.9656 64.2701 44.119C64.5212 44.2724 64.7356 44.4792 64.8979 44.7247C65.2645 45.3162 64.3321 45.8582 63.9669 45.269C63.7423 44.9083 63.2308 44.8692 62.8472 44.8658C62.1733 44.86 61.512 44.9107 60.8818 44.6223C59.981 44.209 59.5383 43.2119 58.6459 42.8045C58.5233 42.7315 58.4343 42.6133 58.3981 42.4753C58.3619 42.3373 58.3814 42.1906 58.4525 42.0668C58.5269 41.9459 58.6452 41.8583 58.7826 41.8222C58.9199 41.7862 59.0659 41.8046 59.1902 41.8734V41.873Z" fill="#211715"/>
<path d="M42.8714 83.5308C42.8714 72.1332 33.7561 67.5952 26.1321 67.5952C18.5081 67.5952 9.39289 72.3901 9.39289 83.5308C9.39289 94.6714 18.5079 99.4664 26.1321 99.4664C33.7564 99.4664 42.8714 94.9291 42.8714 83.5308Z" fill="#7A7473"/>
<path d="M39.7209 83.531C39.7209 74.2785 32.3213 70.5947 26.1315 70.5947C19.9416 70.5947 12.542 74.4871 12.542 83.531C12.542 92.5748 19.9437 96.4672 26.1321 96.4672C32.3206 96.4672 39.7216 92.7835 39.7216 83.531" fill="white"/>
<path d="M39.1818 83.5309C39.1744 80.6284 38.3653 77.7086 36.4583 75.4977C34.8163 73.594 32.5991 72.3406 30.2031 71.6818C27.8971 71.0462 25.4736 70.9641 23.1299 71.4424C20.6663 71.9574 18.332 73.0648 16.525 74.8236C14.5203 76.8219 13.313 79.4826 13.1292 82.3072C12.8956 85.3076 13.5142 88.3676 15.2981 90.8321C16.7747 92.8724 18.9931 94.3362 21.3466 95.1334C23.625 95.9034 26.0544 96.1177 28.4324 95.7585C30.8792 95.3796 33.257 94.4463 35.1364 92.867C37.2228 91.0886 38.5961 88.6161 39.0032 85.9051C39.1259 85.1197 39.1856 84.3258 39.1818 83.5309C39.1836 82.8373 40.2618 82.8359 40.26 83.5309C40.2521 86.698 39.3523 89.8122 37.284 92.2524C35.5407 94.309 33.0996 95.6967 30.5194 96.4114C28.0167 97.1028 25.3852 97.1875 22.8433 96.6585C20.1637 96.1267 17.6914 94.8419 15.7161 92.9548C13.5068 90.7814 12.3019 87.8625 12.0548 84.7953C11.7988 81.6176 12.478 78.2957 14.3684 75.685C16.0081 73.4193 18.3702 71.8128 21.0016 70.9087C23.4842 70.0712 26.1332 69.8496 28.7204 70.2631C31.3573 70.6468 33.8397 71.7424 35.9003 73.4318C38.1438 75.356 39.619 78.024 40.0558 80.9471C40.1905 81.8016 40.2589 82.6652 40.2604 83.5302C40.2622 84.2241 39.184 84.225 39.1822 83.5302L39.1818 83.5309Z" fill="#211715"/>
<path d="M24.3192 80.5864C23.2749 78.4194 22.1881 76.2737 21.0589 74.1493C20.7334 73.5367 21.6638 72.9914 21.9899 73.605C23.119 75.729 24.2058 77.8748 25.2503 80.0424C25.3187 80.1666 25.3368 80.3125 25.3008 80.4497C25.2648 80.5869 25.1775 80.7051 25.0569 80.7798C24.9331 80.8507 24.7865 80.8702 24.6485 80.8341C24.5105 80.7979 24.3923 80.7089 24.3192 80.5864Z" fill="#211715"/>
<path d="M24.8965 87.0728C23.5243 89.1153 22.2492 91.2402 20.9971 93.3579C20.6443 93.9547 19.7119 93.4129 20.0661 92.8136C21.3183 90.6959 22.5933 88.5713 23.9655 86.5286C24.3505 85.9556 25.2849 86.4947 24.8965 87.0728Z" fill="#211715"/>
<path d="M22.6391 85.3514C20.6546 86.1032 18.6993 86.9604 16.7615 87.8251C16.6371 87.893 16.4915 87.9108 16.3544 87.8748C16.2173 87.8389 16.0991 87.7519 16.0241 87.6318C15.9529 87.508 15.9333 87.3613 15.9695 87.2233C16.0057 87.0852 16.0948 86.967 16.2175 86.8941C18.239 85.9916 20.281 85.0972 22.3525 84.311C22.4903 84.2741 22.6372 84.2928 22.7613 84.3633C22.8854 84.4337 22.9768 84.5502 23.0158 84.6874C23.0508 84.8253 23.0312 84.9714 22.961 85.0952C22.8908 85.2189 22.7754 85.3108 22.6391 85.3514Z" fill="#211715"/>
<path d="M42.3323 83.5307C42.3249 79.935 41.3229 76.3227 38.9644 73.574C36.9327 71.2061 34.1715 69.6387 31.1959 68.8181C28.3282 68.0247 25.3132 67.9224 22.3983 68.5196C19.339 69.1593 16.4349 70.5434 14.1925 72.7323C11.6781 75.1868 10.2655 78.5111 9.99059 82.0091C9.69859 85.7322 10.4686 89.5392 12.6844 92.5958C14.5263 95.1378 17.2797 96.9554 20.2186 97.9483C21.6561 98.4354 23.1479 98.7445 24.6607 98.8685C26.1192 98.9823 27.5859 98.9285 29.0322 98.7084C32.0556 98.2349 34.9949 97.0707 37.3235 95.1102C39.9502 92.8986 41.5666 89.8371 42.114 86.448C42.2634 85.4828 42.3363 84.5073 42.3319 83.5307C42.3334 82.837 43.4116 82.8357 43.41 83.5307C43.4022 87.4015 42.302 91.2196 39.7685 94.2C37.6371 96.7079 34.6618 98.4004 31.512 99.2742C28.4475 100.123 25.2246 100.229 22.1112 99.5812C18.8682 98.9029 15.7545 97.38 13.3832 95.0455C10.6905 92.3937 9.21768 88.8335 8.91534 85.0927C8.60088 81.1924 9.43196 77.1234 11.7529 73.9206C13.7586 71.1542 16.6555 69.1919 19.8718 68.0931C22.8915 67.078 26.1116 66.8073 29.2584 67.3038C32.472 67.7968 35.5893 69.0866 38.0859 71.1897C40.8335 73.5499 42.6374 76.8222 43.1661 80.4055C43.3275 81.4397 43.409 82.4848 43.41 83.5316C43.4116 84.2254 42.3334 84.2263 42.3319 83.5316L42.3323 83.5307Z" fill="#211715"/>
<path d="M90.6087 83.5308C90.6087 72.1332 81.4935 67.5952 73.8694 67.5952C66.2454 67.5952 57.13 72.3901 57.13 83.5308C57.13 94.6714 66.2452 99.4664 73.8694 99.4664C81.4937 99.4664 90.6087 94.9284 90.6087 83.5308Z" fill="#7A7473"/>
<path d="M87.4582 83.531C87.4582 74.2785 80.0586 70.5947 73.8688 70.5947C67.6789 70.5947 60.2793 74.4871 60.2793 83.531C60.2793 92.5748 67.6792 96.4672 73.8688 96.4672C80.0584 96.4672 87.4582 92.7835 87.4582 83.531Z" fill="white"/>
<path d="M86.9191 83.5309C86.9117 80.6284 86.1026 77.7086 84.1956 75.4977C82.5536 73.594 80.3364 72.3406 77.9402 71.6818C75.6343 71.0462 73.2108 70.9641 70.8672 71.4424C68.4036 71.9574 66.0691 73.0648 64.2623 74.8236C62.2575 76.8219 61.0502 79.4826 60.8665 82.3072C60.6329 85.3076 61.2515 88.3676 63.0352 90.8321C64.512 92.8724 66.7304 94.3362 69.0837 95.1334C71.3621 95.9034 73.7915 96.1177 76.1695 95.7585C78.6163 95.3795 80.9943 94.4463 82.8737 92.867C84.9601 91.0886 86.3334 88.6161 86.7405 85.9051C86.8632 85.1197 86.9229 84.3258 86.9191 83.5309C86.9209 82.8373 87.9991 82.8359 87.9973 83.5309C87.9892 86.698 87.0896 89.8121 85.0211 92.2524C83.278 94.309 80.8369 95.6967 78.2567 96.4114C75.754 97.1028 73.1225 97.1875 70.5806 96.6585C67.901 96.1267 65.4287 94.8419 63.4534 92.9548C61.2441 90.7814 60.0392 87.8625 59.7921 84.7953C59.5361 81.6176 60.2153 78.2957 62.1057 75.685C63.7454 73.4193 66.1075 71.8128 68.7387 70.9087C71.2214 70.0712 73.8704 69.8496 76.4577 70.2631C79.0946 70.6468 81.5769 71.7423 83.6374 73.4318C85.8814 75.3558 87.357 78.0238 87.794 80.9471C87.9287 81.8016 87.9971 82.6652 87.9986 83.5302C88.0004 84.2241 86.9223 84.225 86.9205 83.5302L86.9191 83.5309Z" fill="#211715"/>
<path d="M70.8357 85.5055C68.5035 86.6286 66.1941 87.7981 63.9078 89.0141C63.2955 89.3398 62.7501 88.4094 63.3638 88.0833C65.6498 86.8681 67.9591 85.6985 70.2915 84.5745C70.4158 84.5061 70.5617 84.488 70.6989 84.524C70.8362 84.56 70.9544 84.6473 71.0291 84.7679C71.1 84.8917 71.1195 85.0383 71.0833 85.1763C71.0471 85.3142 70.9582 85.4325 70.8357 85.5055Z" fill="#211715"/>
<path d="M77.3225 84.9286C79.365 86.3008 81.4896 87.5757 83.6076 88.8279C84.2044 89.1808 83.6626 90.1132 83.0633 89.759C80.9456 88.5067 78.8209 87.2318 76.7782 85.8596C76.2052 85.4746 76.7443 84.5402 77.3225 84.9286Z" fill="#211715"/>
<path d="M75.6008 87.1852C76.3526 89.17 77.2097 91.1253 78.0743 93.0628C78.1422 93.1873 78.16 93.3329 78.124 93.47C78.0881 93.6072 78.0011 93.7254 77.8809 93.8005C77.7572 93.8716 77.6105 93.8912 77.4725 93.855C77.3345 93.8188 77.2163 93.7297 77.1435 93.6071C76.241 91.5855 75.3465 89.5435 74.5604 87.4718C74.5236 87.334 74.5424 87.1872 74.6129 87.0632C74.6834 86.9391 74.7998 86.8478 74.937 86.8088C75.0748 86.774 75.2206 86.7937 75.3442 86.8639C75.4677 86.934 75.5594 87.0491 75.6001 87.1852H75.6008Z" fill="#211715"/>
<path d="M90.0696 83.5306C90.0622 79.9349 89.0588 76.3226 86.7017 73.5739C84.67 71.206 81.9088 69.6386 78.9332 68.8181C76.0655 68.0246 73.0505 67.9223 70.1356 68.5195C67.0763 69.1593 64.1722 70.5434 61.9298 72.7323C59.4154 75.1867 58.0028 78.511 57.7279 82.009C57.4359 85.7321 58.2056 89.5391 60.4217 92.5957C62.2636 95.1378 65.017 96.9554 67.9559 97.9482C69.3936 98.4352 70.8855 98.7441 72.3984 98.868C73.8568 98.9817 75.3235 98.928 76.7697 98.7078C79.7931 98.2343 82.7327 97.0701 85.061 95.1097C87.6886 92.8985 89.3043 89.837 89.8517 86.4479C90.0011 85.4827 90.0739 84.5073 90.0696 83.5306C90.0709 82.837 91.1491 82.8356 91.1478 83.5306C91.1399 87.4014 90.0397 91.2195 87.5062 94.2C85.3746 96.7078 82.3995 98.4003 79.2497 99.2741C76.1852 100.123 72.9623 100.228 69.849 99.5812C66.6059 98.9028 63.4923 97.3799 61.121 95.0454C58.4282 92.3936 56.9554 88.8334 56.6529 85.0926C56.3384 81.1923 57.1695 77.1233 59.4907 73.9205C61.4961 71.1541 64.393 69.1918 67.6093 68.093C70.6293 67.0779 73.8497 66.8072 76.9968 67.3039C80.2104 67.7969 83.3274 69.0867 85.8243 71.1898C88.5715 73.5498 90.375 76.8217 90.9038 80.4046C91.0651 81.4388 91.1467 82.4839 91.1478 83.5306C91.1491 84.2244 90.0709 84.2253 90.0696 83.5306Z" fill="#211715"/>
<path d="M37.1719 64.1091C36.7022 62.6087 36.2431 61.1325 35.8074 59.7257L39.6185 59.1192C39.868 59.918 40.3921 61.665 40.6416 62.4636C45.4684 61.0685 59.0828 57.2145 63.5413 55.9721C62.7102 53.2715 62.0275 51.0231 61.6178 49.6336L64.5828 48.7266C66.3303 54.6542 72.9671 75.936 74.9602 81.6801L71.9952 82.5872C70.7515 79.0022 67.7385 69.4908 65.2117 61.3656C63.059 64.9081 55.2054 77.1446 50.4094 84.162L43.5623 83.2323C42.6063 80.4764 40.5893 74.166 38.5657 67.723C35.3914 72.672 31.0302 79.283 28.1294 83.5281L25.534 81.8309C28.5016 77.3812 33.6697 69.5337 37.1719 64.1091ZM47.0309 82.3131L48.7488 81.2316C52.9222 74.9757 60.5496 63.256 62.8054 59.6008C58.548 60.7751 45.7988 64.3331 41.6939 65.522C43.6789 71.8612 46.0985 79.6253 47.0309 82.3131Z" fill="white"/>
<path d="M27.4814 83.5309C27.4814 83.4739 27.4767 83.4173 27.4751 83.3602C27.4706 83.1954 27.5001 83.4463 27.4675 83.2908C27.4468 83.1924 27.4203 83.0983 27.3902 83.0024C27.3835 82.9799 27.3473 82.9101 27.3902 83.0006C27.3702 82.9593 27.35 82.9184 27.3273 82.8786C27.3046 82.8389 27.2795 82.8034 27.2559 82.7663C27.2202 82.7169 27.222 82.7185 27.2611 82.7706C27.2429 82.7481 27.2238 82.7268 27.2042 82.7055C27.1559 82.6529 27.1029 82.6064 27.0499 82.5586C27.1449 82.6444 27.0452 82.5556 27.0241 82.5415C26.9895 82.5179 26.9538 82.4966 26.9174 82.4741C26.857 82.4391 26.7948 82.4083 26.7312 82.3793C26.8554 82.4357 26.7283 82.3809 26.7051 82.373C26.653 82.3548 26.6002 82.3387 26.5468 82.325C26.4794 82.3077 26.4136 82.2955 26.3464 82.2827C26.2116 82.2569 26.4655 82.2879 26.3293 82.2827C26.2896 82.2809 26.2498 82.2767 26.2101 82.2751C26.1437 82.2728 26.0775 82.2736 26.0113 82.2773C25.9706 82.2796 25.9304 82.2841 25.8898 82.2877C26.0418 82.2735 25.8601 82.2953 25.8293 82.3018C25.762 82.3164 25.6935 82.3342 25.6272 82.3555C25.587 82.3683 25.5477 82.3836 25.5077 82.3975C25.6328 82.3526 25.5032 82.4002 25.4807 82.4112C25.4039 82.4486 25.3296 82.4913 25.2586 82.5388C25.2348 82.5547 25.2114 82.5714 25.1883 82.5882C25.295 82.5098 25.1508 82.6257 25.1324 82.6435C25.1009 82.6738 25.0726 82.7073 25.0425 82.7378C24.9439 82.8351 25.0937 82.6504 25.0169 82.7677C24.9751 82.8313 24.9387 82.8971 24.8994 82.9622C24.8253 83.0851 24.9253 82.8674 24.877 83.0071C24.8612 83.0536 24.8451 83.0994 24.832 83.1468C24.8208 83.1876 24.8111 83.2287 24.8028 83.2702C24.7974 83.2955 24.7927 83.3211 24.7889 83.3468C24.7961 83.2913 24.7961 83.2971 24.7889 83.3638C24.7849 83.4777 24.7849 83.5884 24.7889 83.7028C24.795 83.8721 24.7761 83.6509 24.793 83.7457C24.8006 83.7879 24.8089 83.8299 24.8192 83.8715C24.8311 83.9195 24.8448 83.9671 24.8608 84.0141C24.8666 84.0312 24.9322 84.1686 24.8781 84.0619C24.9195 84.1433 24.9656 84.2221 25.016 84.2982C25.0928 84.4153 24.943 84.2309 25.0416 84.3279C25.0726 84.3587 25.1009 84.3921 25.1315 84.4224C25.162 84.4528 25.1959 84.4804 25.2287 84.5087C25.1479 84.4388 25.2009 84.4887 25.2222 84.5029C25.2943 84.5498 25.3653 84.5961 25.4417 84.6356C25.4795 84.6551 25.518 84.6734 25.5571 84.6904C25.4338 84.6365 25.5796 84.6949 25.6063 84.7039C25.6794 84.7279 25.7537 84.748 25.8289 84.7641C25.8696 84.7726 25.9104 84.7791 25.9513 84.7866C25.8082 84.7614 25.9421 84.7839 25.9706 84.7866C26.038 84.7917 26.1036 84.7935 26.1701 84.7924C26.2099 84.7924 26.2494 84.7899 26.2889 84.787C26.3156 84.7852 26.3422 84.7827 26.3689 84.7798C26.2923 84.791 26.2847 84.7922 26.3464 84.7827C26.4271 84.7672 26.5072 84.752 26.5865 84.7295C26.6265 84.7183 26.666 84.7059 26.7051 84.6924C26.7314 84.6835 26.7572 84.6738 26.7831 84.6637C26.7187 84.6918 26.714 84.6936 26.7692 84.6689C26.8439 84.6304 26.9183 84.5932 26.9891 84.5476C27.0245 84.525 27.0591 84.5009 27.0926 84.4755C26.9843 84.5574 27.1261 84.4397 27.1445 84.4218C27.1629 84.4038 27.1849 84.3813 27.2042 84.3602C27.2236 84.3391 27.2429 84.3173 27.2611 84.2951C27.222 84.3474 27.2202 84.3488 27.2559 84.2996C27.2784 84.2616 27.3051 84.2252 27.3273 84.1873C27.3354 84.1729 27.4062 84.03 27.3815 84.0866C27.3496 84.1601 27.4062 84.015 27.4053 84.0179C27.4261 83.9548 27.4433 83.8906 27.4569 83.8256C27.4587 83.8167 27.4805 83.6511 27.4697 83.7603C27.4772 83.6853 27.4798 83.6102 27.4807 83.5357C27.4807 83.3927 27.5375 83.2556 27.6386 83.1545C27.7397 83.0534 27.8769 82.9966 28.0198 82.9966C28.1628 82.9966 28.2999 83.0534 28.401 83.1545C28.5021 83.2556 28.5589 83.3927 28.5589 83.5357C28.5649 84.0906 28.3753 84.6299 28.0234 85.059C27.7188 85.4048 27.3185 85.6526 26.8732 85.7708C26.4373 85.897 25.9762 85.9081 25.5347 85.8031C25.0932 85.6981 24.6865 85.4806 24.3541 85.1718C23.9816 84.7792 23.7535 84.2717 23.7071 83.7325C23.6608 83.1932 23.799 82.6543 24.0991 82.2039C24.3845 81.8272 24.769 81.5372 25.2096 81.3663C25.6502 81.1955 26.1297 81.1504 26.5944 81.2362C27.0959 81.3108 27.5611 81.5416 27.9237 81.8959C28.3421 82.3364 28.5708 82.9235 28.5605 83.5309C28.5605 83.6739 28.5037 83.811 28.4026 83.9121C28.3015 84.0132 28.1644 84.07 28.0214 84.07C27.8784 84.07 27.7413 84.0132 27.6402 83.9121C27.5391 83.811 27.4823 83.6739 27.4823 83.5309H27.4814Z" fill="#211715"/>
<path d="M25.0686 81.5588C28.1439 76.9486 31.1929 72.3207 34.2155 67.6749C35.0484 66.3975 35.8786 65.1183 36.7063 63.8373L36.6519 64.2529C36.1951 62.7924 35.7403 61.3313 35.2876 59.8694C35.0816 59.2052 36.1221 58.9211 36.3271 59.5828C36.637 60.5827 36.9476 61.5822 37.2591 62.5813C37.3363 62.8291 37.4137 63.0769 37.4911 63.3248C37.5708 63.5801 37.7382 63.9126 37.7014 64.1812C37.6434 64.3864 37.5427 64.5769 37.4058 64.7403L37.0825 65.2396C36.1805 66.6323 35.2752 68.0235 34.3669 69.4135C32.4835 72.2968 30.5918 75.1748 28.6917 78.0474C27.7965 79.4006 26.8991 80.7525 25.9994 82.1031C25.6162 82.6774 24.682 82.1384 25.0686 81.5588Z" fill="#211715"/>
<path d="M75.2187 83.5309C75.2187 83.4739 75.214 83.4173 75.2124 83.3602C75.2079 83.1954 75.2374 83.4463 75.2048 83.2908C75.1841 83.1924 75.1576 83.0983 75.1275 83.0024C75.1206 82.9799 75.0846 82.9101 75.1275 83.0006C75.1078 82.9593 75.0875 82.9184 75.0649 82.8786C75.0422 82.8389 75.017 82.8034 74.9934 82.7663C74.9577 82.7169 74.9595 82.7185 74.9986 82.7706C74.9802 82.7481 74.9613 82.7268 74.9418 82.7055C74.8935 82.6529 74.8405 82.6064 74.7875 82.5586C74.8825 82.6444 74.7827 82.5556 74.7616 82.5415C74.7268 82.5179 74.6913 82.4966 74.6549 82.4741C74.5945 82.4391 74.5323 82.4083 74.4687 82.3793C74.5929 82.4357 74.4656 82.3809 74.4427 82.373C74.3906 82.3548 74.3375 82.3389 74.2854 82.325C74.2181 82.3077 74.1522 82.2955 74.0849 82.2827C73.9501 82.2569 74.2041 82.2879 74.068 82.2827C74.028 82.2809 73.9885 82.2767 73.9487 82.2751C73.8824 82.2728 73.8161 82.2736 73.7499 82.2773C73.7093 82.2796 73.6691 82.2841 73.6284 82.2877C73.7803 82.2735 73.5988 82.2953 73.568 82.3018C73.5006 82.3164 73.4321 82.3342 73.3658 82.3555C73.3256 82.3683 73.2863 82.3836 73.2464 82.3975C73.3715 82.3526 73.2419 82.4002 73.2194 82.4112C73.1425 82.4486 73.0683 82.4913 72.9972 82.5388C72.9734 82.5547 72.9501 82.5714 72.9269 82.5882C73.0336 82.5098 72.8894 82.6257 72.871 82.6435C72.8396 82.6738 72.8113 82.7073 72.7812 82.7378C72.6826 82.8351 72.8324 82.6504 72.7553 82.7677C72.7136 82.8313 72.6772 82.8971 72.6381 82.9622C72.564 83.0851 72.6639 82.8674 72.6156 83.0071C72.5999 83.0536 72.5837 83.0994 72.5707 83.1468C72.5595 83.1876 72.5497 83.2287 72.5415 83.2702C72.5361 83.2955 72.5314 83.3211 72.5273 83.3468C72.5348 83.2913 72.5348 83.2971 72.5273 83.3638C72.5233 83.4777 72.5233 83.5884 72.5273 83.7028C72.5334 83.8721 72.5145 83.6509 72.5314 83.7457C72.539 83.7879 72.5473 83.8299 72.5577 83.8715C72.5696 83.9195 72.5833 83.9671 72.5992 84.0141C72.6051 84.0312 72.6704 84.1686 72.6163 84.0619C72.6579 84.1432 72.704 84.222 72.7542 84.2982C72.8313 84.4153 72.6814 84.2309 72.78 84.3279C72.811 84.3587 72.8393 84.3921 72.8699 84.4224C72.9004 84.4528 72.9341 84.4804 72.9669 84.5087C72.8861 84.4388 72.9393 84.4887 72.9606 84.5029C73.0315 84.5508 73.1047 84.5951 73.1801 84.6356C73.2181 84.6551 73.2566 84.6734 73.2955 84.6904C73.1722 84.6365 73.318 84.6949 73.3447 84.7039C73.4178 84.7279 73.4921 84.748 73.5673 84.7641C73.608 84.7726 73.6489 84.7791 73.6897 84.7866C73.5467 84.7614 73.6803 84.7839 73.7088 84.7866C73.7762 84.7917 73.842 84.7935 73.9085 84.7924C73.9483 84.7924 73.9878 84.7899 74.0273 84.787C74.0541 84.7852 74.0806 84.7827 74.1073 84.7798C74.0307 84.791 74.0231 84.7922 74.0849 84.7827C74.1657 84.7672 74.2459 84.752 74.3252 84.7295C74.365 84.7183 74.4047 84.707 74.4438 84.6924C74.4698 84.6835 74.4959 84.6738 74.5217 84.6637C74.4573 84.6918 74.4527 84.6936 74.5078 84.6689C74.5826 84.6304 74.657 84.5932 74.7277 84.5476C74.763 84.5251 74.7978 84.5008 74.8313 84.4755C74.723 84.5574 74.8647 84.4397 74.8831 84.4218C74.9016 84.4038 74.9236 84.3813 74.9429 84.3602C74.9622 84.3391 74.9813 84.3173 74.9997 84.2951C74.9606 84.3474 74.9588 84.3488 74.9946 84.2996C75.0181 84.2616 75.0437 84.2252 75.066 84.1873C75.0741 84.1729 75.1448 84.03 75.1201 84.0866C75.088 84.1601 75.1448 84.015 75.1439 84.0179C75.1647 83.9548 75.182 83.8906 75.1956 83.8256C75.1974 83.8167 75.2192 83.6511 75.2084 83.7603C75.2158 83.6853 75.2185 83.6102 75.2194 83.5357C75.2194 83.4649 75.2333 83.3948 75.2604 83.3294C75.2875 83.264 75.3272 83.2045 75.3773 83.1545C75.4274 83.1044 75.4868 83.0647 75.5522 83.0376C75.6176 83.0105 75.6877 82.9966 75.7585 82.9966C75.8293 82.9966 75.8994 83.0105 75.9648 83.0376C76.0302 83.0647 76.0896 83.1044 76.1397 83.1545C76.1897 83.2045 76.2294 83.264 76.2565 83.3294C76.2836 83.3948 76.2976 83.4649 76.2976 83.5357C76.3022 84.089 76.1125 84.6265 75.7614 85.0543C75.4568 85.4001 75.0565 85.6478 74.6111 85.7661C74.1752 85.8922 73.7141 85.9033 73.2727 85.7984C72.8312 85.6934 72.4245 85.4759 72.092 85.1671C71.7204 84.775 71.4927 84.2685 71.4461 83.7303C71.3995 83.1921 71.5368 82.654 71.8355 82.2039C72.1209 81.8272 72.5054 81.5372 72.946 81.3663C73.3866 81.1955 73.8661 81.1504 74.3308 81.2362C74.8323 81.3108 75.2974 81.5417 75.6601 81.8959C76.0785 82.3364 76.3072 82.9235 76.2969 83.5309C76.2969 83.6017 76.283 83.6718 76.2559 83.7372C76.2288 83.8026 76.1891 83.8621 76.139 83.9121C76.0889 83.9622 76.0295 84.0019 75.9641 84.029C75.8987 84.0561 75.8286 84.07 75.7578 84.07C75.687 84.07 75.6169 84.0561 75.5515 84.029C75.4861 84.0019 75.4267 83.9622 75.3766 83.9121C75.3266 83.8621 75.2869 83.8026 75.2598 83.7372C75.2327 83.6718 75.2187 83.6017 75.2187 83.5309Z" fill="#211715"/>
<path d="M65.1023 48.5829C65.5954 50.2547 66.1057 51.9216 66.6165 53.5883C67.3431 55.9591 68.0755 58.3283 68.8137 60.6959C69.6331 63.3289 70.4578 65.9595 71.2877 68.5879C72.0499 71.0024 72.8185 73.4147 73.5936 75.8249C74.1605 77.5832 74.7288 79.3417 75.3256 81.0901C75.3767 81.2391 75.4279 81.3879 75.4793 81.5365C75.707 82.1935 74.6659 82.4758 74.4395 81.8231C73.8739 80.1912 73.342 78.5475 72.8101 76.9039C72.0487 74.5529 71.2964 72.1985 70.5534 69.8408C69.7222 67.2127 68.8964 64.5829 68.0761 61.9513C67.3203 59.5273 66.5691 57.1019 65.8225 54.675C65.2755 52.8947 64.7297 51.1137 64.1989 49.3291C64.154 49.1762 64.1086 49.0231 64.0628 48.8697C63.866 48.2028 64.9063 47.918 65.1023 48.5831V48.5829Z" fill="#211715"/>
<path d="M48.2834 80.9593C50.2811 77.9644 52.2616 74.9579 54.225 71.9397C56.2199 68.8849 58.203 65.8226 60.1744 62.7528C60.9024 61.6154 61.6302 60.4777 62.34 59.3285L62.9487 60.1205C60.3355 60.8414 57.7237 61.5677 55.1133 62.2993C51.9498 63.1828 48.7875 64.0703 45.6263 64.9617C44.3626 65.3192 43.0996 65.6792 41.8372 66.0419L42.2137 65.3788C43.7124 70.1632 45.1924 74.955 46.7389 79.7248C47.0037 80.5413 47.2696 81.3578 47.5506 82.1691C47.7782 82.8261 46.7371 83.1082 46.5109 82.4557C45.0837 78.3355 43.8312 74.1506 42.5279 69.9894C42.0765 68.5478 41.6252 67.1062 41.1742 65.6646C41.1381 65.5267 41.1573 65.3803 41.2276 65.2564C41.298 65.1325 41.4138 65.041 41.5506 65.0013C44.1218 64.2569 46.6998 63.5361 49.2775 62.8123C52.4487 61.922 55.6211 61.0354 58.7948 60.1526C60.0837 59.7941 61.3729 59.4366 62.6625 59.0801C62.7654 59.0545 62.8736 59.0595 62.9737 59.0944C63.0738 59.1294 63.1615 59.1927 63.2262 59.2768C63.2908 59.3609 63.3295 59.462 63.3375 59.5677C63.3455 59.6735 63.3225 59.7792 63.2713 59.8721C61.7832 62.2818 60.2371 64.6565 58.6987 67.0343C56.5999 70.2782 54.4884 73.5141 52.3644 76.7419C51.3186 78.3314 50.2685 79.9181 49.2142 81.502C48.831 82.0765 47.8968 81.5372 48.2834 80.9579V80.9593Z" fill="#211715"/>
<path d="M62.1376 49.4898C62.7623 51.6075 63.4119 53.7181 64.061 55.8284C64.0971 55.9661 64.0779 56.1126 64.0076 56.2364C63.9373 56.3603 63.8214 56.4518 63.6845 56.4914C60.9039 57.2667 58.1254 58.0488 55.3489 58.8378C51.9136 59.8093 48.4791 60.7842 45.0455 61.7623C43.6248 62.1675 42.2046 62.5746 40.7849 62.9834C40.6471 63.0187 40.501 62.9991 40.3773 62.9289C40.2536 62.8586 40.1621 62.7431 40.1218 62.6067C39.7746 61.4939 39.4457 60.3753 39.0985 59.2623C38.8914 58.5986 39.9318 58.3144 40.1382 58.9757C40.4853 60.0887 40.8143 61.2073 41.1614 62.3201L40.4983 61.9436C43.3617 61.1161 46.2279 60.2977 49.0967 59.4885C52.5058 58.5204 55.9157 57.5557 59.3265 56.5943C60.6833 56.2123 62.0405 55.8315 63.3979 55.4519L63.0215 56.115C62.3723 54.0036 61.7227 51.8942 61.0981 49.7765C60.9013 49.1096 61.9415 48.8247 62.1376 49.4898Z" fill="#211715"/>
<path d="M43.0426 83.3753C41.7467 79.636 40.57 75.8537 39.3752 72.0812C38.9303 70.6766 38.4872 69.2715 38.0459 67.866L39.0313 67.9947C36.3019 72.249 33.5284 76.4746 30.7108 80.6715C30.0095 81.7169 29.3043 82.7597 28.5951 83.7998C28.206 84.3694 27.2712 83.8306 27.664 83.2558C30.4432 79.1875 33.156 75.0731 35.8429 70.9433C36.5989 69.7813 37.3514 68.6171 38.1003 67.4507C38.1557 67.3619 38.2356 67.2909 38.3303 67.2462C38.4249 67.2015 38.5305 67.1849 38.6343 67.1984C38.7382 67.212 38.8359 67.2551 38.9159 67.3227C38.9959 67.3902 39.0549 67.4793 39.0857 67.5794C40.4695 71.9858 41.8561 76.393 43.304 80.7778C43.559 81.5496 43.8159 82.3207 44.0821 83.0887C44.3096 83.7457 43.2687 84.028 43.0426 83.3753Z" fill="#211715"/>
<path d="M49.9437 83.8893C52.1526 80.6548 54.3049 77.3832 56.4431 74.1027C58.5123 70.9281 60.5621 67.7409 62.5925 64.5411C63.3171 63.3956 64.0413 62.25 64.7452 61.093C64.8005 61.004 64.8803 60.9328 64.975 60.888C65.0697 60.8431 65.1753 60.8265 65.2793 60.84C65.3832 60.8536 65.481 60.8968 65.561 60.9645C65.641 61.0322 65.6998 61.1215 65.7304 61.2217C66.7364 64.4553 67.7502 67.6865 68.7717 70.9151C69.6552 73.7059 70.5497 76.4934 71.4552 79.2774C71.8016 80.335 72.1502 81.3918 72.5145 82.4432C72.7423 83.1002 71.701 83.3826 71.4748 82.7298C70.7335 80.5897 70.0426 78.4315 69.3497 76.2754C68.3588 73.1937 67.3799 70.1081 66.413 67.0189C65.8363 65.1829 65.2623 63.346 64.6909 61.5083L65.676 61.637C64.1803 64.0975 62.619 66.5189 61.0639 68.9421C58.8606 72.3751 56.6348 75.7937 54.3867 79.1977C53.2272 80.9497 52.0566 82.6949 50.8748 84.4333C50.4857 85.003 49.5511 84.4643 49.9437 83.8893Z" fill="#211715"/>
<path d="M62.9676 48.7851C63.7261 48.6805 64.51 48.567 65.1592 48.1612C65.8083 47.7553 66.2879 46.9725 66.097 46.2312C65.8833 45.4013 64.9168 44.9565 64.0628 45.0262C63.2088 45.0958 61.9997 45.8846 61.2129 46.2243C59.3067 47.047 58.2479 47.4565 56.4177 48.1665C55.9627 48.3435 55.544 48.6023 55.1823 48.9302C55.0462 49.1081 54.967 49.323 54.9552 49.5467C54.9434 49.7704 54.9996 49.9924 55.1163 50.1836C55.2557 50.3571 55.4399 50.489 55.6491 50.5651C55.8582 50.6412 56.0842 50.6585 56.3025 50.6151C58.5769 50.2164 60.8087 49.6038 62.968 48.7856" fill="#7A7473"/>
<path d="M30.0183 54.0098C33.8421 54.0634 37.6563 54.4088 41.4275 55.043C42.1418 55.163 42.9682 55.3815 43.2391 56.0538C43.4446 56.5639 43.2238 57.1684 42.8348 57.5587C42.4223 57.9256 41.9345 58.1978 41.4057 58.3564C38.1831 59.5339 34.7343 59.9603 31.3219 59.6032C30.9098 59.5599 30.4731 59.4938 30.1591 59.2232C29.7759 58.8932 29.6746 58.3472 29.6281 57.8433C29.5211 56.6782 29.581 55.5038 29.8062 54.3557" fill="#7A7473"/>
<path d="M62.8234 48.2656C63.6145 48.156 64.5693 48.0646 65.1661 47.4716C65.6041 47.0365 65.7991 46.3406 65.2645 45.8993C64.13 44.9642 62.6443 46.1614 61.577 46.6481C60.0141 47.3604 58.4011 47.9716 56.8004 48.5927C56.4528 48.7211 56.1218 48.8909 55.8146 49.0983C55.5819 49.2605 55.4428 49.4172 55.4988 49.7245C55.6151 50.3656 56.7315 49.9997 57.13 49.9195C59.0694 49.5229 60.9735 48.9696 62.8234 48.2649C62.9612 48.2281 63.108 48.2469 63.2321 48.3173C63.3562 48.3878 63.4476 48.5042 63.4867 48.6414C63.5215 48.7792 63.5018 48.9251 63.4316 49.0487C63.3614 49.1723 63.2462 49.264 63.11 49.3047C61.2032 50.0328 59.2382 50.5983 57.236 50.995C56.74 51.0909 56.2304 51.2196 55.725 51.1349C55.4862 51.0996 55.2589 51.0093 55.0609 50.8712C54.863 50.7331 54.6997 50.5509 54.5841 50.3391C54.4846 50.1333 54.4273 49.9097 54.4158 49.6815C54.4042 49.4532 54.4385 49.225 54.5167 49.0102C54.694 48.5446 55.1109 48.249 55.5275 48.0046C56.3658 47.5125 57.3487 47.2321 58.2501 46.8741C59.1623 46.512 60.0738 46.1434 60.9707 45.7449C61.7948 45.3788 62.5592 44.8678 63.4289 44.6061C63.849 44.4762 64.294 44.4485 64.7269 44.5255C65.1598 44.6025 65.568 44.7818 65.9175 45.0486C66.3302 45.3838 66.5944 45.8679 66.6533 46.3963C66.7121 46.9247 66.5608 47.455 66.232 47.8728C65.4907 48.8835 64.2843 49.1421 63.11 49.3047C62.9723 49.3378 62.8269 49.3173 62.7038 49.2474C62.5806 49.1774 62.4887 49.0633 62.4467 48.928C62.4097 48.7902 62.4285 48.6434 62.4989 48.5193C62.5694 48.3952 62.6861 48.3038 62.8234 48.2649V48.2656Z" fill="#211715"/>
<path d="M30.0183 53.4705C32.5545 53.5069 35.0873 53.6708 37.607 53.9617C38.896 54.1115 40.1811 54.2924 41.4621 54.5046C42.3741 54.6574 43.4024 54.9539 43.7589 55.9101C44.1726 57.0201 43.3018 58.0747 42.3599 58.5392C41.3077 59.02 40.2058 59.3833 39.074 59.6228C36.7409 60.1843 34.3345 60.3782 31.9417 60.1976C31.3195 60.1493 30.622 60.134 30.0677 59.8133C29.8139 59.6488 29.5999 59.4298 29.4413 59.1723C29.2828 58.9148 29.1836 58.6252 29.151 58.3245C28.9558 56.9559 29.002 55.5637 29.2876 54.211C29.3268 54.0739 29.4182 53.9577 29.5422 53.8873C29.6662 53.8169 29.8128 53.798 29.9507 53.8346C30.0869 53.8751 30.2022 53.9668 30.2723 54.0904C30.3425 54.214 30.3621 54.3599 30.3271 54.4977C30.124 55.5645 30.0675 56.6541 30.1591 57.7362C30.1885 58.0893 30.2215 58.5642 30.5109 58.8124C30.8208 59.0781 31.3505 59.0691 31.7353 59.1026C33.8393 59.2872 35.959 59.1686 38.0293 58.7504C39.0611 58.5408 40.0768 58.2585 41.0688 57.9056C41.707 57.6785 42.9107 57.2607 42.7741 56.3676C42.6686 55.6713 41.4776 55.5929 40.9579 55.5078C39.8628 55.3281 38.7641 55.174 37.6618 55.0455C35.124 54.7507 32.5729 54.5847 30.0183 54.548C29.3251 54.5376 29.3231 53.4595 30.0183 53.4698V53.4705Z" fill="#211715"/>
<path d="M45.7094 97.8621C45.8009 97.4409 45.9895 96.562 46.0884 96.113C46.0959 96.0795 46.0967 96.0449 46.0909 96.0112C46.085 95.9774 46.0725 95.9451 46.0542 95.9162C46.0358 95.8872 46.0119 95.8622 45.9839 95.8425C45.9558 95.8228 45.9242 95.8089 45.8907 95.8014C45.0583 95.6141 40.651 94.6136 39.7932 94.42C39.7596 94.4124 39.7249 94.4115 39.6909 94.4174C39.657 94.4233 39.6246 94.4359 39.5955 94.4544C39.5665 94.4729 39.5414 94.497 39.5217 94.5252C39.502 94.5535 39.4881 94.5854 39.4808 94.619C39.3858 95.0429 39.1946 95.9047 39.1066 96.3016C39.0912 96.3686 39.1029 96.439 39.1392 96.4974C39.1754 96.5558 39.2333 96.5975 39.3002 96.6134C40.149 96.8156 44.5605 97.8616 45.3923 98.0606C45.4262 98.0689 45.4614 98.0703 45.4958 98.0647C45.5302 98.0592 45.5632 98.0468 45.5927 98.0282C45.6223 98.0097 45.6479 97.9855 45.6679 97.957C45.6879 97.9284 45.7021 97.8962 45.7094 97.8621Z" fill="#7A7473"/>
<path d="M51.4622 87.1682C51.4622 83.9069 48.8541 82.6084 46.6726 82.6084C44.4911 82.6084 41.8828 83.9804 41.8828 87.1682C41.8828 90.3559 44.4911 91.7279 46.6726 91.7279C48.8541 91.7279 51.4622 90.4294 51.4622 87.1682Z" fill="white"/>
<path d="M45.1897 97.7191C45.2635 97.3785 45.3371 97.038 45.4105 96.6975C45.4454 96.5367 45.4803 96.3758 45.5152 96.2148C45.5506 96.0519 45.5098 95.9536 45.652 96.1737C45.8033 96.4082 45.7721 96.3085 45.6661 96.3033C45.4953 96.2787 45.3268 96.2407 45.1621 96.1894L44.4687 96.0322L40.9435 95.2328C40.5344 95.1684 40.1301 95.0769 39.7332 94.9587C39.7204 94.9566 39.7078 94.9536 39.6953 94.95L39.6836 94.9475C39.55 94.9199 39.6557 94.8583 40.0005 94.7624C39.9955 94.8232 39.9822 94.883 39.9608 94.9401L39.8375 95.4947C39.7972 95.6757 39.7569 95.8568 39.7166 96.0378L39.6638 96.2761C39.6605 96.2914 39.6555 96.355 39.6441 96.366C39.5958 96.4077 39.4617 96.1009 39.4644 96.1C39.5585 96.0715 39.8092 96.182 39.9042 96.2045L40.5825 96.3655L42.3015 96.7736L44.2429 97.2346L45.0185 97.419L45.3105 97.4886C45.3501 97.4958 45.3892 97.5051 45.4278 97.5165C45.6567 97.5976 45.3281 97.3368 45.1883 97.72C45.2294 97.5841 45.3212 97.4693 45.4446 97.3992C45.568 97.3291 45.7137 97.3092 45.8514 97.3435C45.9887 97.3824 46.1051 97.4738 46.1756 97.5979C46.246 97.722 46.2648 97.8688 46.2279 98.0066C46.0462 98.5064 45.6252 98.6717 45.1272 98.5531C44.9302 98.5059 44.733 98.459 44.5358 98.4122L42.6266 97.9585L40.5688 97.4702C40.1079 97.3608 39.631 97.2761 39.1762 97.1396C38.6248 96.9736 38.5091 96.4985 38.6218 95.9906C38.716 95.5674 38.8101 95.1443 38.9042 94.7211C38.9311 94.4996 39.0201 94.2903 39.1609 94.1173C39.2627 94.0179 39.3881 93.9462 39.5254 93.9088C39.6627 93.8714 39.8072 93.8697 39.9453 93.9037C40.1266 93.9378 40.3063 93.9855 40.4862 94.0261C41.7944 94.3226 43.1025 94.6192 44.4105 94.9158C44.9435 95.0367 45.4963 95.1267 46.021 95.2804C46.1614 95.3181 46.2894 95.3923 46.392 95.4954C46.4945 95.5985 46.568 95.7269 46.605 95.8675C46.6366 96.1289 46.6079 96.3941 46.521 96.6427C46.4223 97.0973 46.324 97.552 46.2261 98.0066C46.0823 98.6834 45.0428 98.3965 45.1897 97.7191Z" fill="#211715"/>
<path d="M45.8781 90.6941C45.092 92.7676 43.5457 96.7849 43.4446 96.9859C43.1665 97.5385 42.5758 97.8831 42.0012 97.678C41.1984 97.3916 41.3164 96.6012 41.4446 96.2418C41.6322 95.7168 43.5149 90.9374 44.1362 89.3857" fill="white"/>
<path d="M50.9231 87.1683C50.9163 86.2208 50.6573 85.2545 50.036 84.5501C49.4915 83.9462 48.7792 83.5186 47.9902 83.3219C46.4842 82.9153 44.6933 83.213 43.5277 84.3513C42.1885 85.6593 42.0423 88.0265 43.1436 89.5492C43.6338 90.19 44.3064 90.6677 45.0729 90.9194C45.4553 91.0517 45.8524 91.1367 46.2555 91.1726C46.4528 91.1879 46.6509 91.1925 46.8487 91.1863C46.9477 91.1831 47.0466 91.1773 47.1454 91.1687C47.1852 91.1654 47.2252 91.1615 47.2649 91.1575C47.2616 91.1575 47.4431 91.135 47.3613 91.1461C48.2775 91.038 49.1361 90.6433 49.8146 90.0182C50.5828 89.2754 50.9152 88.2426 50.9231 87.1685C50.928 86.4749 52.0062 86.4722 52.0012 87.1685C52.0453 88.2836 51.7011 89.3794 51.0274 90.2689C50.3536 91.1585 49.392 91.7867 48.3067 92.0463C46.3882 92.5757 44.1461 92.1393 42.7195 90.7022C41.0861 89.0571 40.8606 86.1308 42.2126 84.2431C43.4374 82.5333 45.6178 81.8435 47.6484 82.1512C48.7569 82.3081 49.7888 82.807 50.6003 83.5784C51.5662 84.5263 51.9929 85.8358 52.0017 87.1685C52.0066 87.8623 50.9285 87.863 50.9235 87.1685L50.9231 87.1683Z" fill="#211715"/>
<path d="M47.9725 79.8345C47.3997 81.4046 45.9329 85.8475 45.76 86.3776C45.6432 86.7415 45.5488 87.5344 46.3597 87.7972C46.9415 87.9836 47.521 87.622 47.7816 87.0605C47.8759 86.8605 49.3674 82.6018 50.1064 80.4679" fill="white"/>
<path d="M44.1144 90.8897C43.399 92.7004 42.6398 94.5018 41.9835 96.3349C41.9397 96.4478 41.9084 96.565 41.89 96.6847C41.9026 96.5858 41.8921 96.8181 41.8952 96.8527C41.8871 96.7601 41.8988 96.8738 41.9062 96.8976C41.937 96.9946 41.9028 96.9342 41.9469 97.0025C41.991 97.0591 42.0465 97.1057 42.1098 97.1394C42.1731 97.1731 42.2428 97.1931 42.3143 97.1981C42.4273 97.1956 42.538 97.1656 42.6369 97.1108C42.7358 97.0561 42.8199 96.9781 42.882 96.8837C42.9152 96.8388 42.9417 96.733 42.9862 96.6977C43.0495 96.6478 42.9298 96.8383 42.974 96.7267C43.0221 96.6061 43.0711 96.4859 43.1189 96.3653C43.2756 95.9695 43.4305 95.573 43.5837 95.1759C44.0628 93.9388 44.5393 92.7005 45.0131 91.4609C45.0546 91.3253 45.1465 91.2107 45.2698 91.1407C45.3932 91.0706 45.5387 91.0505 45.6764 91.0845C45.8137 91.1234 45.9301 91.2148 46.0006 91.3388C46.071 91.4629 46.0898 91.6097 46.0529 91.7476C45.5887 92.9639 45.121 94.1793 44.6499 95.3936C44.4765 95.8406 44.3033 96.2875 44.1263 96.7332C44.0183 97.0625 43.8553 97.3711 43.6443 97.646C43.4109 97.9327 43.0893 98.1341 42.7294 98.2188C42.3696 98.3035 41.9918 98.2667 41.6551 98.1141C41.3969 97.9927 41.1798 97.7985 41.0303 97.5554C40.8809 97.3124 40.8057 97.031 40.8139 96.7458C40.8306 96.4169 40.9072 96.0938 41.0401 95.7925C41.1939 95.3882 41.3512 94.9874 41.5082 94.5854C42.0272 93.2567 42.5494 91.9292 43.0747 90.6029C43.1163 90.4673 43.2082 90.3528 43.3315 90.2828C43.4548 90.2128 43.6003 90.1927 43.738 90.2264C43.8753 90.2653 43.9917 90.3567 44.0622 90.4808C44.1326 90.6048 44.1514 90.7517 44.1144 90.8895V90.8897Z" fill="#211715"/>
<path d="M48.4927 79.9776C47.7396 82.0466 47.0623 84.145 46.3736 86.2362C46.3386 86.3428 46.3 86.4493 46.269 86.5574C46.255 86.6057 46.2449 86.6546 46.2335 86.7036C46.211 86.8015 46.2281 86.7229 46.227 86.7539C46.2229 86.8149 46.2223 86.8761 46.2252 86.9372C46.2252 86.9406 46.2371 87.027 46.2279 86.9729C46.218 86.915 46.2503 87.0497 46.2539 87.0628C46.2612 87.0934 46.2747 87.1222 46.2936 87.1474C46.3125 87.1726 46.3364 87.1937 46.3638 87.2092C46.4768 87.289 46.6157 87.3233 46.7528 87.3053C46.8663 87.2819 46.9716 87.2292 47.0585 87.1526C47.1077 87.1113 47.3505 86.8541 47.3191 86.7835C47.3323 86.8123 47.2488 86.9632 47.302 86.8179C47.3245 86.7586 47.3469 86.6995 47.3678 86.6402C47.4318 86.4655 47.4945 86.2903 47.5572 86.1151C47.7479 85.582 47.9369 85.0483 48.1241 84.514C48.6151 83.1191 49.1027 81.723 49.5868 80.3255C49.8114 79.6741 50.8546 79.954 50.6266 80.6122C50.158 81.9651 49.6863 83.3168 49.2115 84.6672C49.008 85.2458 48.8034 85.824 48.5978 86.4017C48.4873 86.7108 48.3903 87.0333 48.2497 87.3307C48.066 87.7496 47.7238 88.0786 47.298 88.2456C46.8722 88.4126 46.3975 88.4039 45.9781 88.2216C45.2665 87.8871 45.0473 87.1209 45.1993 86.3956C45.2812 86.0776 45.3808 85.7645 45.4976 85.4576C45.6866 84.8863 45.8764 84.3154 46.067 83.7449C46.5192 82.3909 46.9655 81.0335 47.4538 79.6921C47.4951 79.5563 47.5869 79.4415 47.7103 79.3715C47.8338 79.3014 47.9794 79.2814 48.1171 79.3157C48.2543 79.3547 48.3707 79.4461 48.4411 79.5701C48.5116 79.6942 48.5304 79.8409 48.4936 79.9787L48.4927 79.9776Z" fill="#211715"/>
<path d="M52.7762 79.1794C52.6414 79.597 52.3597 80.4678 52.2175 80.9139C52.2071 80.9472 52.1902 80.9781 52.1678 81.0049C52.1454 81.0316 52.118 81.0537 52.087 81.0698C52.0561 81.086 52.0223 81.0958 51.9875 81.0989C51.9527 81.1019 51.9177 81.0981 51.8844 81.0875C51.0551 80.8277 46.6614 79.4602 45.8065 79.1931C45.773 79.1826 45.742 79.1656 45.7151 79.1431C45.6883 79.1205 45.6661 79.0929 45.65 79.0618C45.6339 79.0306 45.624 78.9966 45.6211 78.9617C45.6182 78.9268 45.6221 78.8916 45.6328 78.8582C45.7656 78.4364 46.0372 77.5794 46.1616 77.1848C46.1823 77.1179 46.2286 77.0618 46.2904 77.0289C46.3521 76.9959 46.4245 76.9886 46.4916 77.0087C47.3426 77.2639 51.7634 78.5934 52.5978 78.8425C52.6319 78.8525 52.6637 78.8692 52.6912 78.8917C52.7187 78.9142 52.7414 78.9419 52.758 78.9733C52.7747 79.0047 52.7848 79.0391 52.7879 79.0745C52.7911 79.1099 52.7871 79.1456 52.7762 79.1794Z" fill="#7A7473"/>
<path d="M53.2959 79.3227C53.1667 79.7243 53.0372 80.1259 52.9074 80.5274C52.7551 81.0004 52.63 81.5954 52.0233 81.6323C51.7916 81.6241 51.5633 81.5741 51.3494 81.4847C51.0915 81.4041 50.8337 81.3237 50.5758 81.2434C49.2386 80.8265 47.9014 80.41 46.5644 79.9937C46.0659 79.8385 45.253 79.7322 45.1079 79.1401C45.0073 78.7306 45.271 78.2158 45.3932 77.829C45.5183 77.4332 45.598 76.8459 45.9644 76.6012C46.432 76.2893 47.1149 76.6316 47.6007 76.7776L49.568 77.3685L51.8101 78.0424L52.5677 78.2697C53.0808 78.4231 53.3977 78.7547 53.2968 79.3218C53.2578 79.459 53.1664 79.5754 53.0424 79.6458C52.9183 79.7162 52.7716 79.7351 52.6338 79.6983C52.4977 79.6576 52.3825 79.5659 52.3124 79.4423C52.2423 79.3188 52.2225 79.173 52.2573 79.0352C52.2389 79.139 52.5579 79.3461 52.3764 79.3378C52.3437 79.3317 52.3118 79.3221 52.2811 79.3093L52.0271 79.2331L51.3732 79.0368L49.663 78.5233C48.6275 78.212 47.592 77.9009 46.5565 77.59C46.5197 77.579 46.3948 77.5642 46.3705 77.5341C46.3359 77.4914 45.9866 77.7003 46.508 77.4521C46.7652 77.3299 46.6526 77.3463 46.6407 77.4591C46.6218 77.5461 46.5949 77.6312 46.5603 77.7133C46.4489 78.0651 46.3377 78.417 46.2267 78.769C46.2154 78.8405 46.1936 78.9098 46.1618 78.9748C46.0383 79.1096 46.0859 78.6172 45.9723 78.6796C45.9884 78.6829 46.0043 78.6878 46.0194 78.6942C46.0965 78.7082 46.1715 78.7317 46.2427 78.7641L46.851 78.9535L50.3036 80.0292C50.8103 80.187 51.317 80.345 51.8236 80.5031C51.8947 80.5141 51.9639 80.5357 52.0286 80.5671C51.5864 80.1978 51.7077 80.9004 51.7353 80.6554C51.7449 80.6114 51.7587 80.5685 51.7764 80.5271L51.8809 80.2021C52.0062 79.8128 52.1317 79.424 52.2573 79.0357C52.4685 78.3782 53.5093 78.6594 53.2959 79.3227Z" fill="#211715"/>
<path d="M49.8249 69.7956C49.6403 70.7228 49.9821 71.7237 50.5412 72.5245C50.0536 72.9037 49.118 72.8558 48.5129 72.7617C47.5538 72.6126 45.607 72.3165 45.1713 70.5851C45.3921 70.0258 45.5868 69.4573 45.7553 68.8794" fill="white"/>
<path d="M53.3166 78.7735C53.0986 78.7517 52.8833 78.7085 52.6738 78.6446C49.9783 77.758 47.9541 77.077 45.0691 76.1336C44.736 76.012 44.4346 75.8168 44.1873 75.5627C43.9401 75.3085 43.7533 75.0018 43.6409 74.6655C43.4439 74.0601 43.7896 73.4274 44.0969 72.8685C44.5034 72.1306 44.8623 71.3673 45.1713 70.5835C45.6068 72.3151 47.5538 72.6111 48.5129 72.7603C49.1183 72.8544 50.0536 72.9022 50.5408 72.5233C50.8745 73.0123 51.3042 73.4284 51.8036 73.7464C52.9694 74.455 54.2989 74.9755 55.1834 76.015C55.7863 76.7232 56.061 77.9402 55.3144 78.495C54.9065 78.7987 54.017 78.8526 53.3166 78.7735Z" fill="white"/>
<path d="M50.3447 69.9387C50.1789 70.8484 50.6246 71.8255 51.2025 72.5069C51.8573 73.2794 52.7762 73.6669 53.6392 74.1579C54.5071 74.6521 55.4485 75.2653 55.9377 76.1673C56.3708 76.9652 56.5183 78.0961 55.8029 78.7864C55.1646 79.4018 54.0734 79.4043 53.2499 79.3044C52.7738 79.2308 52.3063 79.1092 51.8546 78.9416C51.3061 78.7609 50.7578 78.5795 50.2097 78.3976C49.1706 78.0532 48.1314 77.7087 47.092 77.3643C46.509 77.1717 45.9258 76.9799 45.3424 76.7889C44.7965 76.6479 44.2918 76.3796 43.8696 76.0058C43.4103 75.584 43.1187 75.0105 43.0484 74.3908C43.0062 73.7078 43.3671 73.0847 43.6814 72.5063C44.331 71.3074 44.8523 70.0433 45.2366 68.7349C45.4327 68.071 46.4736 68.3531 46.2764 69.0215C45.9515 70.1216 45.5368 71.1931 45.0365 72.2253C44.795 72.7233 44.4902 73.1972 44.2712 73.7051C44.1721 73.8965 44.1281 74.1117 44.1441 74.3267C44.1602 74.5416 44.2357 74.7479 44.3622 74.9225C44.6002 75.2807 44.9572 75.5433 45.3701 75.6637C45.9153 75.8421 46.4601 76.021 47.0046 76.2006C47.992 76.5261 48.9791 76.8528 49.9658 77.1806C50.946 77.5056 51.9249 77.8836 52.9213 78.1543C53.2718 78.2422 53.6332 78.2793 53.9943 78.2646C54.3233 78.2776 54.651 78.2168 54.9534 78.0867C55.0561 78.0112 55.1358 77.9087 55.1838 77.7906C55.2317 77.6725 55.246 77.5435 55.225 77.4178C55.1916 77.0667 55.0612 76.7318 54.8483 76.4506C54.2838 75.6893 53.357 75.2253 52.5457 74.7832C52.0858 74.5539 51.6433 74.2912 51.2218 73.9971C50.7876 73.666 50.4076 73.2693 50.0954 72.8214C49.7594 72.3718 49.5165 71.8596 49.3808 71.315C49.2452 70.7703 49.2195 70.204 49.3054 69.6493C49.3445 69.5122 49.4359 69.3958 49.56 69.3254C49.6841 69.255 49.8308 69.2361 49.9687 69.2729C50.1048 69.3136 50.22 69.4052 50.2901 69.5288C50.3603 69.6523 50.38 69.7982 50.3451 69.936L50.3447 69.9387Z" fill="#211715"/>
<path d="M50.7564 73.0307C50.1405 73.4142 49.3429 73.4081 48.647 73.3198C48.1616 73.2646 47.6811 73.173 47.2094 73.0458C46.0214 72.7089 44.9819 71.9712 44.6508 70.728C44.4722 70.0568 45.512 69.7704 45.6906 70.4413C45.9347 71.358 46.6971 71.7873 47.5502 72.0213C47.9138 72.1174 48.283 72.1909 48.6558 72.2414C49.1293 72.3088 49.7739 72.3722 50.2117 72.0997C50.8024 71.732 51.3442 72.6644 50.7559 73.0307H50.7564Z" fill="#211715"/>
<path d="M29.098 50.1435C28.2838 52.4258 30.0758 54.9728 32.3276 55.8672C34.5794 56.7617 37.1066 56.4539 39.5082 56.1318C42.8496 55.6826 45.1998 56.2149 48.541 55.7666C47.6174 58.2161 47.0228 60.2814 46.7312 61.2736C46.0537 63.7178 45.5433 66.2054 45.2038 68.719C46.2023 69.1182 49.0581 70.0847 50.725 70.2085C52.9637 65.3825 55.1922 59.8043 57.4321 54.9759C58.1675 53.3908 58.842 51.3371 57.6511 50.0568C56.9941 49.351 55.9712 49.1527 55.0203 48.9916L44.185 47.1567" fill="#6604C8"/>
<path d="M29.618 50.2867C29.2123 51.466 29.5697 52.6778 30.2963 53.6529C31.1207 54.7132 32.3003 55.4402 33.618 55.7003C35.1829 56.0529 36.822 55.9233 38.4001 55.7351C39.2285 55.6362 40.0524 55.5105 40.8853 55.4547C41.6643 55.4024 42.4451 55.3934 43.2256 55.3999C45.0039 55.415 46.7728 55.4599 48.541 55.2274C48.6239 55.2278 48.7056 55.2472 48.7798 55.2842C48.8541 55.3211 48.9188 55.3746 48.969 55.4406C49.0193 55.5065 49.0537 55.5831 49.0697 55.6645C49.0856 55.7459 49.0826 55.8298 49.061 55.9098C47.915 58.9163 47.0092 62.0089 46.3521 65.1585C46.1115 66.338 45.9028 67.5255 45.7425 68.7189L45.3467 68.1989C46.1542 68.5204 46.9844 68.7904 47.8175 69.0359C48.7627 69.3442 49.7365 69.5565 50.7243 69.6693L50.2589 69.9361C52.2454 65.6497 54.0219 61.2701 55.944 56.9548C56.3851 55.9649 56.8851 54.9907 57.2762 53.9799C57.5866 53.1773 57.8955 52.2303 57.7185 51.3608C57.5334 50.4505 56.8265 49.9745 55.9741 49.7395C54.8638 49.4336 53.6884 49.3112 52.5545 49.1192L44.0414 47.6776C43.9042 47.6385 43.7878 47.5471 43.7173 47.423C43.6468 47.2989 43.6279 47.1521 43.6647 47.0143C43.7056 46.8782 43.7974 46.7631 43.9209 46.693C44.0445 46.6229 44.1903 46.6031 44.328 46.6378L52.178 47.9671C53.4109 48.176 54.6614 48.3411 55.8842 48.6079C56.9013 48.8298 57.9139 49.2842 58.4438 50.2315C59.5064 52.1315 58.2778 54.4069 57.4813 56.156C56.4622 58.3939 55.4938 60.6542 54.5237 62.9137C53.4363 65.446 52.3503 67.9797 51.1913 70.4804C51.1451 70.5628 51.0774 70.6312 50.9955 70.6783C50.9135 70.7253 50.8203 70.7492 50.7259 70.7475C49.6679 70.6373 48.624 70.4197 47.6102 70.0981C46.7503 69.8474 45.8939 69.5698 45.0614 69.2387C44.8635 69.1599 44.6326 68.9658 44.6656 68.7189C45.1148 65.4095 45.8514 62.1456 46.8669 58.964C47.2226 57.8397 47.6073 56.7261 48.021 55.6232L48.5408 56.3056C46.8674 56.5255 45.1915 56.5012 43.508 56.481C42.6843 56.4711 41.8602 56.4734 41.0372 56.5233C40.1526 56.5767 39.2786 56.7083 38.3995 56.8132C35.2791 57.1852 31.6692 57.13 29.5466 54.4345C28.5648 53.1879 28.0445 51.5507 28.5776 50.0001C28.8022 49.3487 29.8437 49.6281 29.6173 50.2867H29.618Z" fill="#211715"/>
<path d="M55.2131 53.5086L51.4249 54.711C51.3566 54.7298 51.2853 54.735 51.2151 54.7263C51.1448 54.7176 51.0769 54.6951 51.0154 54.6601C50.9538 54.6252 50.8997 54.5784 50.8562 54.5226C50.8127 54.4667 50.7806 54.4028 50.7618 54.3346C50.743 54.2663 50.7378 54.195 50.7465 54.1247C50.7552 54.0545 50.7777 53.9866 50.8127 53.9251C50.8477 53.8635 50.8944 53.8094 50.9503 53.7659C51.0061 53.7224 51.07 53.6903 51.1383 53.6715L54.9264 52.4691C55.0643 52.4311 55.2116 52.4494 55.336 52.52C55.4603 52.5906 55.5515 52.7077 55.5895 52.8456C55.6275 52.9834 55.6092 53.1307 55.5386 53.2551C55.468 53.3794 55.3509 53.4706 55.2131 53.5086Z" fill="#211715"/>
<path d="M54.6102 42.8701L56.5399 44.8398C56.8901 45.1969 57.2587 45.5667 57.7353 45.7208C58.4009 45.9362 59.1185 45.6864 59.818 45.6722C60.7854 45.6527 62.2194 46.2338 62.9667 46.8486C63.5842 47.3907 64.0924 48.0458 64.464 48.7787C64.6017 49.0188 64.8717 50.0516 64.0231 50.2095C63.8985 50.2226 63.7726 50.2034 63.6575 50.1539C63.5425 50.1044 63.442 50.0262 63.3658 49.9267C63.4844 50.0952 63.8151 51.2071 62.9999 51.5323C62.8138 51.6007 62.6089 51.5968 62.4256 51.5213C62.2422 51.4459 62.0939 51.3044 62.0098 51.1249C62.1347 51.5572 62.0686 52.4178 61.2196 52.54C61.1117 52.5477 61.0034 52.53 60.9037 52.488C60.8039 52.4461 60.7154 52.3812 60.6455 52.2987C60.3294 51.9378 60.0481 51.5479 59.8054 51.1341C59.9425 51.3369 59.9948 51.5853 59.9512 51.8262C59.9077 52.0671 59.7717 52.2814 59.5722 52.4234C59.4496 52.5258 58.9864 52.5413 58.6405 52.2572C58.2973 51.9658 57.9975 51.6268 57.7504 51.2504C57.6044 50.9365 57.3808 50.665 57.1008 50.4614C56.8208 50.2579 56.4936 50.129 56.1499 50.0869C55.8697 50.0492 55.5963 49.9715 55.338 49.8564C54.8887 49.6453 54.6627 49.1482 54.4186 48.7147C53.7963 47.5881 53.0205 46.5533 52.1136 45.6401" fill="white"/>
<path d="M63.1585 50.4161C62.9601 50.2609 62.7962 50.066 62.6771 49.844C62.5186 49.6052 62.3627 49.3656 62.1926 49.1342C62.1165 49.0302 62.26 49.216 62.1962 49.1392C62.1787 49.118 62.1616 49.0965 62.1439 49.0754C62.1068 49.032 62.0682 48.9898 62.0271 48.9502C61.8822 48.8105 61.7279 48.6789 61.5749 48.5482C61.5028 48.4866 61.43 48.4255 61.3564 48.3658C61.3115 48.3298 61.2665 48.2946 61.2232 48.2593C61.1347 48.1886 61.2984 48.3143 61.2007 48.2413C61.0473 48.1277 60.8923 48.0167 60.7322 47.9132C60.6705 47.8777 60.6165 47.8304 60.5732 47.774C60.5299 47.7176 60.4982 47.6532 60.4799 47.5844C60.4616 47.5157 60.4571 47.4441 60.4666 47.3736C60.4762 47.3031 60.4995 47.2352 60.5354 47.1738C60.5713 47.1124 60.619 47.0587 60.6757 47.0158C60.7324 46.9729 60.7971 46.9417 60.866 46.9239C60.9348 46.9061 61.0065 46.9021 61.0769 46.9121C61.1473 46.9222 61.215 46.946 61.2762 46.9824C61.6169 47.2058 61.9434 47.4502 62.2537 47.7142C62.5209 47.9208 62.7663 48.1541 62.9862 48.4105C63.1836 48.6603 63.3609 48.9237 63.5361 49.1895C63.6035 49.2908 63.6693 49.3916 63.7394 49.4918C63.7517 49.5095 63.7647 49.5266 63.7769 49.5444C63.8258 49.6158 63.6738 49.4264 63.7477 49.5064C63.7576 49.5163 63.7669 49.5268 63.7755 49.5378C63.8276 49.6079 63.6585 49.4568 63.7036 49.4853C63.8271 49.5575 63.9168 49.6757 63.953 49.814C63.9893 49.9523 63.9691 50.0994 63.8969 50.2228C63.8248 50.3463 63.7065 50.436 63.5682 50.4722C63.4299 50.5085 63.2828 50.4883 63.1594 50.4161H63.1585Z" fill="#211715"/>
<path d="M54.9914 42.4889L56.4579 43.9857C56.8386 44.3743 57.2101 44.8406 57.6881 45.1135C58.2048 45.4094 58.8615 45.2222 59.4177 45.1618C59.9354 45.11 60.4583 45.1534 60.9604 45.2899C62.0303 45.5467 63.0079 46.0953 63.7847 46.8745C64.1586 47.2814 64.4853 47.7291 64.7587 48.2092C64.9573 48.5146 65.0872 48.8595 65.1394 49.22C65.1776 49.4412 65.1613 49.6683 65.0921 49.8818C65.0229 50.0953 64.9027 50.2888 64.7421 50.4455C64.1915 50.9294 63.4781 50.7825 62.9855 50.3067L63.8324 49.6535C63.99 49.9302 64.0755 50.2422 64.0808 50.5607C64.0861 50.8791 64.0111 51.1938 63.8627 51.4756C63.3207 52.3822 62.048 52.2672 61.5453 51.3957L62.5307 50.9801C62.7218 51.6969 62.4992 52.5644 61.7973 52.915C61.5621 53.044 61.2921 53.0954 61.0259 53.062C60.7597 53.0285 60.5108 52.9118 60.3148 52.7285C59.9318 52.3326 59.6038 51.8868 59.3398 51.4033L60.2708 50.859C60.3997 51.0706 60.4753 51.3103 60.4909 51.5575C60.5066 51.8048 60.4619 52.0521 60.3607 52.2782C60.2846 52.4624 60.1648 52.6253 60.0115 52.7527C59.8583 52.8801 59.6763 52.9682 59.4813 53.0093C58.5419 53.1427 57.7757 52.2941 57.3182 51.5718C57.1773 51.2818 56.9665 51.0315 56.7048 50.8433C56.3775 50.6885 56.028 50.5859 55.669 50.5392C55.2111 50.4474 54.7973 50.2045 54.4938 49.8494C54.2284 49.4807 53.9905 49.093 53.7818 48.6895C53.2148 47.7165 52.5261 46.8198 51.7324 46.021C51.24 45.5309 52.0019 44.7685 52.4947 45.2586C53.1104 45.8762 53.6669 46.5501 54.1569 47.2714C54.3983 47.6238 54.6247 47.9857 54.8362 48.3572C54.9788 48.6761 55.1656 48.9733 55.391 49.2402C55.6286 49.4682 55.9842 49.5057 56.2935 49.5668C56.6299 49.6272 56.9534 49.7449 57.2499 49.915C57.8788 50.2914 58.1185 50.9395 58.5902 51.459C58.7151 51.6131 58.8595 51.7502 59.0199 51.8669C59.0822 51.908 59.1525 51.9355 59.2261 51.9478C59.2077 51.9449 59.3038 51.9552 59.2912 51.9516C59.375 51.9754 59.3186 51.9318 59.3184 51.9516C59.3184 51.9563 59.1942 52.0693 59.3072 51.9323C59.3453 51.8926 59.3768 51.8471 59.4006 51.7975C59.4218 51.7318 59.4274 51.662 59.4169 51.5938C59.4064 51.5255 59.38 51.4607 59.34 51.4044C59.0123 50.7932 59.9103 50.2649 60.271 50.8602C60.4412 51.1499 60.6301 51.4282 60.8366 51.6933C60.9925 51.888 61.0837 52.0635 61.3083 51.9556C61.4024 51.9107 61.3881 51.906 61.4285 51.8501C61.4959 51.7564 61.4734 51.7773 61.5058 51.6463C61.5143 51.6133 61.521 51.5248 61.5145 51.6025C61.519 51.55 61.5172 51.4985 61.5181 51.4453C61.5181 51.4267 61.497 51.2723 61.5181 51.3943C61.5105 51.3512 61.5004 51.309 61.4891 51.2667C61.3319 50.6803 62.1657 50.3157 62.4745 50.8512C62.5471 50.9774 62.6529 51.0706 62.7856 51.0351C62.8441 51.0214 62.8955 50.9865 62.9298 50.9372C62.8887 50.9882 62.9687 50.8608 62.9703 50.8573C62.9426 50.9222 62.9734 50.8249 62.9795 50.8018C62.9842 50.7838 62.9968 50.6692 62.9896 50.7526C62.993 50.7068 62.994 50.6608 62.9925 50.6149C62.9925 50.57 62.9891 50.525 62.9842 50.4801C62.9925 50.5569 62.9842 50.4848 62.9763 50.4473C62.9595 50.3763 62.9357 50.3065 62.92 50.2355C62.8944 50.1218 62.9752 50.3152 62.8995 50.1973C62.5626 49.6724 63.3133 49.1252 63.7461 49.5439C63.8449 49.6394 63.9204 49.6901 63.9932 49.6596C64.0478 49.6371 64.0419 49.6077 64.0318 49.6371C64.0401 49.6126 64.057 49.5524 64.0431 49.6295C64.0489 49.5965 64.0655 49.5655 64.0709 49.532C64.0882 49.4217 64.0752 49.5019 64.0734 49.523C64.0764 49.4889 64.0773 49.4546 64.0761 49.4204C64.0761 49.3914 64.0498 49.2032 64.0709 49.3148C64.0597 49.255 64.0464 49.196 64.0293 49.1378C64.0031 49.0479 63.9709 49.0055 64.0154 49.0834C63.5886 48.3375 63.1293 47.5843 62.3995 47.0951C61.6981 46.6042 60.8828 46.3009 60.0311 46.2142C59.521 46.1834 59.0204 46.315 58.5138 46.3404C57.9636 46.3801 57.416 46.234 56.9586 45.9255C56.4876 45.5605 56.0515 45.1525 55.6558 44.707L54.2277 43.2494C53.7418 42.7535 54.5035 41.9916 54.99 42.4871L54.9914 42.4889Z" fill="#211715"/>
<path d="M61.5859 51.4634C61.4332 51.2015 61.2919 50.9333 61.1367 50.6727C61.1003 50.6116 61.0632 50.551 61.0244 50.4915C60.9836 50.4409 60.9465 50.3874 60.9134 50.3315C60.9247 50.3567 60.9786 50.4086 60.9316 50.3576C60.911 50.3351 60.891 50.3127 60.8703 50.2902C60.8144 50.23 60.758 50.1705 60.7014 50.1105C60.5102 49.9083 60.3171 49.7082 60.1149 49.5171C60.0197 49.4272 59.9223 49.3396 59.8229 49.2543C59.7699 49.2093 59.7161 49.1644 59.6616 49.1195C59.6392 49.1015 59.6167 49.084 59.5942 49.0662C59.4804 48.9764 59.683 49.1336 59.5648 49.0438C59.447 48.9689 59.3594 48.8547 59.3177 48.7215C59.2806 48.5813 59.3001 48.4321 59.3721 48.3061C59.4453 48.1838 59.5635 48.095 59.7014 48.0588C59.8393 48.0227 59.9859 48.042 60.1097 48.1127C60.5948 48.4855 61.0476 48.8983 61.4635 49.3468C61.6789 49.5672 61.8699 49.8101 62.0334 50.0714C62.2021 50.349 62.3523 50.6377 62.5161 50.9182C62.5518 50.9794 62.5752 51.0469 62.5848 51.1171C62.5944 51.1872 62.5901 51.2586 62.5722 51.3271C62.5542 51.3956 62.5229 51.4599 62.4801 51.5163C62.4373 51.5727 62.3838 51.6201 62.3227 51.6559C62.2616 51.6916 62.194 51.715 62.1238 51.7246C62.0537 51.7342 61.9823 51.7299 61.9138 51.7119C61.8453 51.694 61.781 51.6627 61.7246 51.6199C61.6682 51.5771 61.6208 51.5236 61.585 51.4625L61.5859 51.4634Z" fill="#211715"/>
<path d="M59.4231 51.5131C59.3359 51.3747 59.2407 51.242 59.141 51.1126L59.2254 51.2218C58.9286 50.8452 58.6059 50.4898 58.2596 50.1582C58.2094 50.1082 58.1696 50.0487 58.1425 49.9833C58.1153 49.9178 58.1013 49.8477 58.1012 49.7768C58.1011 49.706 58.115 49.6358 58.1421 49.5703C58.1691 49.5048 58.2088 49.4453 58.2589 49.3952C58.3089 49.345 58.3684 49.3052 58.4338 49.2781C58.4993 49.2509 58.5694 49.2369 58.6403 49.2368C58.7111 49.2368 58.7813 49.2506 58.8468 49.2777C58.9123 49.3048 58.9718 49.3445 59.0219 49.3945C59.5266 49.8641 59.9738 50.3919 60.3541 50.9668C60.425 51.0906 60.4445 51.2372 60.4083 51.3751C60.3721 51.513 60.2832 51.6312 60.1607 51.7043C60.0366 51.7735 59.8906 51.7921 59.7531 51.756C59.6156 51.72 59.4974 51.6321 59.4233 51.5109L59.4231 51.5131Z" fill="#211715"/>
<path d="M45.0257 25.2349C46.2878 25.7394 47.182 26.9141 47.6834 28.1774C48.1847 29.4406 48.3467 30.8081 48.5486 32.1531C48.7085 33.2165 48.9013 34.2928 49.3772 35.2571C49.7914 36.0961 50.4037 36.8175 50.9945 37.5422C52.3438 39.1954 53.9312 41.3416 54.802 42.6859C53.9312 43.6383 52.833 44.7365 51.7351 45.8845C51.0271 45.9247 48.443 44.5635 47.0208 43.4512C46.4127 42.9757 45.5589 42.3189 45.1263 41.6796C42.8878 38.3726 40.9194 34.8904 39.2404 31.267" fill="white"/>
<path d="M45.1683 24.715C46.3578 25.2299 47.3224 26.1553 47.8862 27.3224C48.565 28.6533 48.793 30.134 49.0093 31.5956C49.2193 33.0228 49.4413 34.4466 50.2432 35.6782C50.6399 36.2521 51.0661 36.8051 51.5199 37.335C51.9541 37.8712 52.38 38.4139 52.7975 38.963C53.6565 40.0861 54.4992 41.2272 55.2701 42.4132C55.3287 42.5165 55.3521 42.636 55.3369 42.7538C55.3218 42.8716 55.2687 42.9813 55.1859 43.0664C54.5931 43.7131 53.9813 44.3418 53.3701 44.9709C53.0291 45.3219 52.6886 45.6735 52.3487 46.0255C52.1711 46.2101 52.0149 46.4112 51.7378 46.4229C51.6246 46.4238 51.5116 46.4125 51.4008 46.3892C50.8835 46.2699 50.384 46.0831 49.9154 45.8335C49.2832 45.5317 48.6683 45.1949 48.0736 44.8247C47.4735 44.4493 46.8956 44.0396 46.3426 43.5978C45.6768 43.1132 45.09 42.5283 44.6032 41.864C43.5621 40.3285 42.5846 38.7485 41.6647 37.1376C40.623 35.3132 39.6599 33.4471 38.7755 31.5392C38.7073 31.4148 38.6895 31.2691 38.7255 31.1319C38.7615 30.9948 38.8487 30.8766 38.9691 30.8017C39.0928 30.7307 39.2394 30.7112 39.3774 30.7474C39.5154 30.7836 39.6336 30.8726 39.7065 30.9951C40.9593 33.6954 42.3722 36.3185 43.9377 38.8503C44.3244 39.4753 44.7205 40.0947 45.1259 40.7083C45.3069 40.9824 45.4792 41.2719 45.6829 41.5295C45.9077 41.8002 46.1564 42.0501 46.426 42.2762C47.2771 43.0166 48.1997 43.6708 49.18 44.229C49.7065 44.5371 50.25 44.815 50.8081 45.0614C50.9987 45.1438 51.1937 45.2159 51.3921 45.2773C51.4709 45.2998 51.552 45.3157 51.6306 45.3388C51.6708 45.3505 51.7589 45.3472 51.6156 45.3402C51.6565 45.3422 51.6962 45.346 51.7373 45.3447L51.3555 45.5019C52.3768 44.4352 53.4242 43.3923 54.4224 42.3033L54.3379 42.9565C53.6892 41.9586 52.9871 40.9945 52.2715 40.043C51.4628 38.9673 50.5902 37.9437 49.7753 36.8741C49.3347 36.3105 48.9704 35.6912 48.6919 35.0322C48.4356 34.3743 48.251 33.6907 48.1414 32.9931C47.8871 31.5443 47.7744 30.0614 47.2905 28.6625C46.879 27.472 46.09 26.2523 44.8826 25.7532C44.7473 25.7114 44.633 25.6195 44.563 25.4963C44.4931 25.3731 44.4727 25.2278 44.5062 25.0901C44.5449 24.9527 44.6362 24.8361 44.7603 24.7656C44.8845 24.6951 45.0314 24.6764 45.1692 24.7135L45.1683 24.715Z" fill="#211715"/>
<path d="M48.2456 18.549C49.2896 20.3223 50.2242 22.1578 51.0441 24.0452C51.4999 25.0046 51.8657 26.0041 52.1369 27.031C52.4536 28.4093 52.0203 29.7885 51.7348 31.1357L50.7465 35.8044C50.603 36.4828 49.5634 36.1957 49.707 35.5178L50.5578 31.5005C50.6998 30.831 50.8417 30.1614 50.9835 29.4917C51.1133 28.8781 51.2501 28.2548 51.1587 27.6249C51.0174 26.6501 50.5823 25.6741 50.194 24.7736C49.7831 23.8215 49.3359 22.8852 48.8687 21.9596C48.3793 20.9895 47.8694 20.0279 47.3152 19.093C46.9603 18.4948 47.8921 17.9519 48.2461 18.549H48.2456Z" fill="#211715"/>
<path d="M47.3831 43.6371C47.3537 43.9687 47.2591 44.2912 47.1048 44.5862C46.9373 44.9677 46.7421 45.3364 46.5208 45.6895C46.2638 46.1139 45.9647 46.5113 45.6279 46.8757C45.3023 47.2371 44.8822 47.5003 44.415 47.6356C41.8698 48.3923 39.3011 49.0787 36.6995 49.6138C34.1059 50.1743 31.4695 50.5149 28.8186 50.632C28.2995 50.6495 27.7215 50.7252 27.2368 50.4959C27.0463 50.3987 26.8795 50.2607 26.7483 50.0918C26.6171 49.9229 26.5247 49.7272 26.4776 49.5186C26.2179 48.5141 26.5834 47.4671 26.7649 46.4849C26.9649 45.4813 27.2355 44.4932 27.5746 43.5277C27.7971 42.8108 28.0587 42.1066 28.3583 41.4184C28.4313 41.2958 28.5496 41.2068 28.6876 41.1706C28.8256 41.1344 28.9722 41.1539 29.096 41.225C29.217 41.2994 29.3046 41.4176 29.3407 41.555C29.3767 41.6924 29.3583 41.8384 29.2894 41.9626C29.2802 41.9824 29.2352 42.0848 29.2773 41.9878C29.3222 41.8851 29.2588 42.0343 29.2492 42.0585C29.1998 42.1823 29.1521 42.3056 29.1052 42.4314C28.9782 42.7685 28.8562 43.1075 28.7391 43.4485C28.4507 44.2822 28.1775 45.1252 27.9688 45.9824C27.8727 46.3748 27.8058 46.7726 27.715 47.1659C27.6001 47.6171 27.5224 48.077 27.4828 48.541C27.4756 48.6567 27.4722 48.7728 27.4754 48.8887C27.4767 48.9336 27.4868 49.0909 27.4828 49.0606C27.4922 49.2043 27.5386 49.3432 27.6175 49.4637C27.6523 49.5051 27.6996 49.5339 27.7523 49.546C27.976 49.5794 28.203 49.5857 28.4282 49.5646C33.3249 49.459 38.1677 48.3085 42.8543 46.9676C43.1701 46.8777 43.4855 46.7861 43.8004 46.6928C44.0582 46.6453 44.306 46.5541 44.5331 46.4233C44.6097 46.3674 44.4871 46.461 44.5639 46.399C44.6122 46.36 44.6582 46.3177 44.7034 46.2753C44.7836 46.2003 44.8595 46.1214 44.9332 46.0401C45.0838 45.8726 45.2234 45.6955 45.351 45.5098C45.6147 45.1292 45.8482 44.7285 46.0493 44.3114C46.0922 44.2229 46.134 44.1335 46.1722 44.043C46.1396 44.1205 46.1809 44.0206 46.1883 44.0001C46.2027 43.9626 46.2171 43.9253 46.2306 43.8878C46.2553 43.8173 46.2744 43.7461 46.2962 43.6746C46.346 43.5096 46.3022 43.7488 46.3033 43.6385C46.3099 42.9451 47.388 42.9435 47.3815 43.6385L47.3831 43.6371Z" fill="#211715"/>
<path d="M48.0515 19.2864C44.3842 20.8708 41.0805 23.19 38.3444 26.1009C37.1273 27.4174 36.0369 28.8455 35.0874 30.3664C34.1165 31.9567 33.2607 33.6145 32.5268 35.3271C31.7856 37.0019 31.1155 38.7004 30.3397 40.366C30.2667 40.4886 30.1485 40.5775 30.0105 40.6137C29.8725 40.6499 29.7258 40.6304 29.602 40.5594C29.4809 40.485 29.3932 40.3668 29.3572 40.2294C29.3212 40.0919 29.3396 39.9459 29.4086 39.8217C30.8835 36.6564 32.0441 33.3201 33.8716 30.2867C35.827 27.0291 38.391 24.1783 41.4237 21.8897C43.3097 20.4821 45.3516 19.2963 47.5089 18.3558C47.6333 18.2881 47.7789 18.2703 47.9159 18.3063C48.053 18.3422 48.1711 18.4291 48.2463 18.5492C48.3175 18.6729 48.3371 18.8196 48.3009 18.9576C48.2647 19.0956 48.1756 19.2138 48.0529 19.2866L48.0515 19.2864Z" fill="#211715"/>
<path d="M39.6272 61.7326C39.4543 61.7708 39.2818 61.8101 39.1106 61.8519C39.0411 61.8742 38.9668 61.8775 38.8956 61.8613C38.8244 61.8582 38.7552 61.8362 38.6953 61.7975C38.6338 61.7648 38.5817 61.717 38.5439 61.6585C38.4964 61.6068 38.4632 61.5436 38.4475 61.4752L38.4282 61.3319C38.428 61.2362 38.4535 61.1423 38.5019 61.0599L38.5861 60.9507C38.6521 60.8847 38.734 60.8369 38.824 60.8121C38.996 60.7705 39.1682 60.7308 39.3406 60.693C39.4101 60.6706 39.4843 60.6673 39.5556 60.6834C39.6269 60.6864 39.6961 60.7085 39.7559 60.7474C39.873 60.8231 39.9603 60.9369 40.003 61.0695L40.0223 61.2128C40.0223 61.3084 39.9969 61.4023 39.9486 61.4848L39.8644 61.594C39.7985 61.66 39.7165 61.7078 39.6265 61.7326H39.6272Z" fill="#211715"/>
<path d="M55.9388 22.7017C55.4878 22.628 55.0073 22.5815 54.5823 22.7875C54.1815 23.0147 53.8513 23.3483 53.6284 23.7515C53.3427 24.2008 53.0951 24.6745 52.8251 25.1332C52.5221 25.6478 52.2144 26.1595 51.9222 26.6801C51.5823 27.2853 50.6506 26.7423 50.9911 26.1359C51.3121 25.5642 51.6517 25.0036 51.9828 24.438C52.2659 23.9072 52.5761 23.3912 52.9121 22.8922C53.256 22.3821 53.7395 21.9818 54.3047 21.739C54.9278 21.4919 55.5794 21.5568 56.2243 21.6621C56.3616 21.7011 56.478 21.7924 56.5484 21.9165C56.6189 22.0406 56.6377 22.1874 56.6008 22.3252C56.5599 22.4612 56.4682 22.5763 56.3447 22.6464C56.2212 22.7165 56.0754 22.7363 55.9377 22.7017H55.9388Z" fill="#211715"/>
<path d="M61.8429 20.5368C61.4643 20.4803 61.1005 20.3493 60.7728 20.1514C60.5389 20.0132 60.3388 19.8245 60.1873 19.599C60.1163 19.4753 60.0968 19.3287 60.133 19.1907C60.1692 19.0528 60.2581 18.9346 60.3806 18.8616C60.5048 18.7924 60.6509 18.774 60.7884 18.81C60.9258 18.846 61.044 18.9338 61.1183 19.055C61.1304 19.0741 61.1437 19.0923 61.1574 19.1103L61.0731 19.0011C61.1357 19.0785 61.2074 19.1481 61.2868 19.2082L61.1776 19.124C61.3104 19.2241 61.4553 19.3071 61.6089 19.371L61.4802 19.3167C61.6887 19.4026 61.9066 19.4635 62.1295 19.498C62.2651 19.5351 62.3807 19.6238 62.4519 19.745C62.524 19.8709 62.5434 20.0202 62.506 20.1604C62.4683 20.2956 62.3798 20.411 62.2589 20.4825L62.13 20.5368C62.0362 20.5627 61.9372 20.5627 61.8434 20.5368H61.8429Z" fill="#211715"/>
<path d="M61.88 14.6557C61.9024 15.0299 61.6495 15.8203 61.004 15.7419C60.1729 15.5422 60.3526 14.5575 60.7385 14.1649C61.054 13.8432 61.7643 13.8448 61.88 14.6557Z" fill="#211715"/>
<path d="M11.7273 30.5706C13.6885 26.3826 16.3545 20.8768 18.6438 16.0243C18.681 15.9453 18.7019 15.8595 18.7052 15.7722C18.7084 15.6849 18.694 15.5978 18.6628 15.5162C18.6315 15.4346 18.5841 15.3601 18.5234 15.2973C18.4627 15.2345 18.3899 15.1845 18.3093 15.1506C18.2288 15.1163 18.156 15.0662 18.0953 15.0031C18.0347 14.94 17.9874 14.8652 17.9564 14.7834C17.9254 14.7016 17.9113 14.6143 17.9149 14.5268C17.9185 14.4394 17.9397 14.3536 17.9774 14.2746C18.6961 12.7696 19.4212 11.2534 20.122 9.77634C20.1933 9.62545 20.3203 9.50806 20.4763 9.4488C20.6323 9.38954 20.8052 9.39301 20.9587 9.4585C23.5457 10.5571 37.7407 16.7094 42.134 18.5657C42.2132 18.5991 42.2849 18.6481 42.3448 18.7098C42.4047 18.7716 42.4515 18.8448 42.4824 18.925C42.5133 19.0053 42.5277 19.091 42.5247 19.1769C42.5217 19.2629 42.5014 19.3474 42.4651 19.4253C39.3053 26.2162 34.9513 35.1223 32.4749 40.5347C32.4055 40.686 32.28 40.8043 32.1248 40.8647C31.9697 40.925 31.7972 40.9226 31.6438 40.8579C27.3415 39.0518 16.1389 34.1506 11.679 32.2584C11.5991 32.2247 11.5267 32.1751 11.4664 32.1128C11.406 32.0504 11.3588 31.9766 11.3276 31.8956C11.2965 31.8145 11.282 31.7281 11.285 31.6413C11.288 31.5546 11.3085 31.4694 11.3453 31.3907C11.469 31.1234 11.5963 30.8501 11.7273 30.5706Z" fill="#6604C8"/>
<path d="M52.326 0.977869C52.7461 1.00977 53.1149 1.03717 53.4062 1.05761L55.2831 1.41048C56.6095 1.65981 57.959 1.917 59.1522 2.54818C60.34 3.17711 61.3099 4.14297 62.2268 5.12523C63.8252 6.8375 65.3395 8.5273 65.7155 10.8144C65.7465 11.0267 65.6991 11.2431 65.5823 11.4232C65.4655 11.6032 65.2871 11.7346 65.0806 11.7928C64.904 11.8312 64.7239 11.8506 64.5433 11.8508C63.2629 11.8768 61.9826 11.8757 60.7023 11.8474C54.4467 11.9215 53.5547 10.7852 48.0266 8.05134C47.4111 7.74698 46.9585 6.39724 47.0913 5.36849C47.1782 4.69463 45.3786 2.31839 44.9421 1.20384C44.9131 1.13 44.9025 1.05015 44.9114 0.971291C44.9204 0.892432 44.9485 0.816967 44.9934 0.751505C45.0382 0.686042 45.0985 0.63258 45.1688 0.5958C45.2391 0.55902 45.3174 0.540045 45.3968 0.540537C46.735 0.546826 50.1919 0.816818 52.326 0.977869Z" fill="#6604C8"/>
<path d="M49.0866 29.4774C49.0803 29.5672 49.0747 29.6571 49.0686 29.7469L48.1477 29.365C48.767 28.5688 48.707 27.3612 48.6245 26.4154C48.5213 25.3685 48.1985 24.3552 47.6773 23.4414C47.5703 23.2506 47.4511 23.0669 47.3204 22.8915C47.2696 22.823 47.3748 22.9533 47.2791 22.8408C47.2375 22.792 47.1966 22.7428 47.1542 22.6948C47.0581 22.587 46.9574 22.4835 46.8521 22.3843C46.3927 21.9617 45.8577 21.6296 45.2753 21.4052C44.2317 21.0323 43.1253 20.867 42.0183 20.9187C41.3242 20.9342 41.3244 19.856 42.0183 19.8405C43.9695 19.7972 46.0089 20.1948 47.5066 21.5252C48.8065 22.6793 49.4817 24.4937 49.6778 26.1788C49.835 27.5362 49.778 29.0108 48.9089 30.1283C48.6232 30.4956 47.9583 30.1885 47.988 29.7464C47.994 29.6566 47.9997 29.5668 48.0059 29.4769C48.0092 29.335 48.067 29.1997 48.1674 29.0993C48.2678 28.9989 48.4031 28.9411 48.545 28.9378C48.6876 28.9391 48.824 28.9962 48.9249 29.0971C49.0257 29.1979 49.0829 29.3343 49.0841 29.4769L49.0866 29.4774Z" fill="#211715"/>
<path d="M45.3856 26.015C45.4489 26.0654 45.2917 25.9528 45.2732 25.9405C45.2043 25.8967 45.1335 25.8556 45.0616 25.8167C44.9206 25.7399 44.7754 25.6709 44.6268 25.6101C44.2462 25.4573 43.8538 25.336 43.4534 25.2473C43.0974 25.1614 42.7332 25.1138 42.3671 25.1053C42.0561 25.1012 41.7474 25.1588 41.4588 25.2747C40.8112 25.493 40.4929 25.8661 40.1861 26.5002C39.7162 27.4733 39.4561 28.5335 38.9945 29.5115C38.4817 30.5979 37.6962 31.527 36.8721 32.3897C36.3918 32.8924 35.6301 32.1294 36.1097 31.6274C36.9007 30.8522 37.5606 29.9539 38.0639 28.9674C38.5473 27.9418 38.8051 26.8228 39.3269 25.8131C39.6818 25.0888 40.3087 24.5343 41.0709 24.2704C41.8712 24.0016 42.7314 23.9657 43.5513 24.1671C44.4626 24.3504 45.4141 24.6689 46.1493 25.2527C46.2496 25.3542 46.3058 25.4912 46.3058 25.6339C46.3058 25.7766 46.2496 25.9135 46.1493 26.015C46.0466 26.1131 45.91 26.1677 45.7681 26.1677C45.6261 26.1677 45.4896 26.1131 45.3869 26.015H45.3856Z" fill="#211715"/>
<path d="M40.072 33.2749C38.8249 34.248 37.114 34.4654 35.578 34.4638C34.8842 34.4638 34.883 33.3857 35.578 33.3857C36.3287 33.3974 37.0779 33.3174 37.8092 33.1473C37.9682 33.1083 38.1254 33.0633 38.2809 33.0126C38.355 32.9885 38.4289 32.9629 38.5019 32.9358C38.5315 32.9248 38.6921 32.8603 38.6344 32.8852C38.772 32.8255 38.9061 32.758 39.036 32.6831C39.0938 32.6501 39.1504 32.6155 39.2058 32.5791C39.2353 32.5597 39.39 32.4474 39.3085 32.5117C39.4118 32.4148 39.548 32.3608 39.6897 32.3608C39.8313 32.3608 39.9676 32.4148 40.0708 32.5117C40.171 32.6133 40.2272 32.7502 40.2272 32.8929C40.2272 33.0355 40.171 33.1724 40.0708 33.274L40.072 33.2749Z" fill="#211715"/>
<path d="M41.202 35.8978C39.0363 36.5693 36.7684 36.8497 34.5044 36.7258C34.3624 36.7226 34.2271 36.6648 34.1267 36.5643C34.0263 36.4639 33.9685 36.3287 33.9653 36.1867C33.9665 36.0441 34.0237 35.9077 34.1245 35.8069C34.2254 35.706 34.3618 35.6488 34.5044 35.6476C36.6713 35.769 38.8426 35.5017 40.9154 34.8583C41.5821 34.6609 41.8669 35.7011 41.202 35.8978Z" fill="#211715"/>
<path d="M42.0183 20.3822C46.0358 20.2766 47.5917 22.1491 48.165 23.2108C48.7822 24.2949 49.1328 25.5103 49.1877 26.7567C49.2461 27.9471 49.1686 29.256 48.2151 30.0709C48.0963 29.425 47.9183 28.7914 47.6834 28.1781C47.308 27.1607 46.6422 26.276 45.7685 25.6336C44.9563 24.9709 42.7413 24.3611 41.7283 24.6315C40.6135 24.9292 40.1726 25.2589 39.6843 26.3041C39.1959 27.3492 38.9262 28.49 38.3927 29.5132C37.8803 30.4296 37.2408 31.269 36.4933 32.0065C38.3309 28.156 40.3166 24.0179 42.0183 20.3822Z" fill="#211715"/>
<path d="M35.5796 33.9212C37.3388 33.9284 38.859 33.5526 39.6917 32.8936L41.0596 35.3783C38.9425 36.0455 36.721 36.319 34.5052 36.1851C34.8513 35.453 35.2094 34.6984 35.5796 33.9212Z" fill="#211715"/>
<path d="M11.2617 30.298C13.0566 26.4665 14.8965 22.6565 16.7154 18.8364C17.1829 17.8546 17.6761 16.88 18.1155 15.8851C18.1642 15.7744 18.1948 15.7376 18.1132 15.6527C18.0586 15.6184 18.0012 15.5887 17.9416 15.5639C17.8336 15.4961 17.737 15.4116 17.6552 15.3137C17.2959 14.8824 17.3358 14.3802 17.56 13.9006C18.0766 12.7937 18.6139 11.6956 19.1388 10.5922C19.2568 10.3443 19.3748 10.0962 19.4926 9.84807C19.5881 9.58857 19.7382 9.35263 19.9329 9.15625C20.1169 9.00412 20.3414 8.90901 20.5787 8.88255C20.816 8.8561 21.0559 8.89946 21.2689 9.00732C23.0333 9.75665 24.7914 10.5215 26.5513 11.2809C29.2551 12.448 31.959 13.6144 34.6629 14.78C36.9823 15.7796 39.3034 16.7754 41.6261 17.7675C42.189 18.0069 42.839 18.1825 43.0244 18.8481C43.165 19.3501 42.8824 19.8 42.678 20.238C42.48 20.6617 42.2817 21.085 42.083 21.508C41.2284 23.3268 40.3673 25.1426 39.4999 26.9553C37.8038 30.5114 36.0949 34.0615 34.4179 37.6269C34.0585 38.3906 33.7019 39.1543 33.348 39.918C33.2139 40.2709 33.0502 40.6118 32.8586 40.9371C32.7103 41.1478 32.4974 41.3046 32.2522 41.3836C32.0069 41.4627 31.7426 41.4598 31.4992 41.3753C30.9646 41.1844 30.4435 40.9301 29.9219 40.7075C29.332 40.456 28.7426 40.2036 28.1537 39.9506C25.1914 38.6777 22.2321 37.3984 19.2756 36.1127C16.6959 34.9953 14.1177 33.8735 11.5299 32.7742C11.3173 32.6943 11.1314 32.5561 10.9937 32.3756C10.8559 32.195 10.7717 31.9793 10.7507 31.7531C10.7089 31.2457 11.0537 30.7392 11.2615 30.2953C11.3344 30.1727 11.4527 30.0838 11.5907 30.0476C11.7287 30.0114 11.8754 30.0309 11.9991 30.1019C12.1202 30.1763 12.2079 30.2945 12.244 30.4319C12.28 30.5694 12.2616 30.7154 12.1925 30.8396C12.0856 31.068 11.9719 31.2944 11.872 31.526C11.8244 31.6359 11.7895 31.6776 11.8803 31.756C11.9805 31.8177 12.0888 31.8653 12.202 31.8975L12.5816 32.0593C13.1194 32.2888 13.657 32.5193 14.1941 32.7506C15.5027 33.3132 16.8106 33.8779 18.1177 34.4447C21.0397 35.7105 23.9619 36.9759 26.8844 38.241C28.1029 38.7666 29.3223 39.29 30.5427 39.8113C30.7889 39.9161 31.0352 40.0209 31.2815 40.1258L31.4587 40.2008L31.5223 40.2275C31.6304 40.2918 31.7474 40.3397 31.8696 40.3697C32.0675 40.3726 32.2087 39.8306 32.2838 39.668C32.4414 39.3261 32.5998 38.9845 32.7588 38.6431C34.3087 35.3133 35.9001 32.0027 37.4837 28.6886C38.333 26.9112 39.1804 25.1328 40.0257 23.3535C40.4342 22.4914 40.8414 21.6286 41.2472 20.7652C41.4388 20.3573 41.6299 19.9491 41.8204 19.5406C41.8622 19.4507 42.0151 19.2261 41.9859 19.1363C41.9567 19.0464 41.8512 19.0269 41.7658 18.9903C39.7162 18.106 37.66 17.2365 35.6097 16.3539C32.9665 15.2159 30.3242 14.0763 27.6827 12.9352C25.6487 12.0574 23.6143 11.1804 21.5796 10.3043C21.3087 10.1879 21.0389 10.0673 20.7658 9.95611C20.7141 9.935 20.6968 9.95319 20.742 9.9505C20.7136 9.95207 20.6746 9.93275 20.6521 9.95813C20.5268 10.138 20.4264 10.334 20.3538 10.5408C20.109 11.0561 19.8638 11.571 19.6184 12.0857C19.3712 12.6043 19.1236 13.1229 18.8756 13.6417C18.7556 13.8928 18.6319 14.1421 18.5162 14.3948C18.4612 14.5145 18.4095 14.5698 18.5113 14.6542C18.6184 14.7441 18.7738 14.7874 18.883 14.8932C19.0728 15.0787 19.195 15.3223 19.2303 15.5853C19.301 16.0961 18.9832 16.5664 18.7729 17.0107C16.9773 20.8068 15.1534 24.5878 13.3545 28.3816C12.9651 29.201 12.5783 30.0213 12.1941 30.8425C12.1211 30.965 12.0028 31.054 11.8648 31.0902C11.7269 31.1263 11.5802 31.1069 11.4564 31.0359C11.3351 30.9617 11.2472 30.8435 11.2109 30.7061C11.1746 30.5686 11.1928 30.4224 11.2617 30.298Z" fill="#211715"/>
<path d="M37.9871 24.2561C35.8071 23.3482 33.6434 22.4005 31.4769 21.4612C28.8148 20.3068 26.1528 19.1518 23.4911 17.9962C22.9151 17.7472 22.339 17.4986 21.7626 17.2505C21.5295 17.1503 21.2962 17.0504 21.0629 16.9509L20.7613 16.8224L20.6234 16.7637C20.5852 16.7476 20.4154 16.6759 20.5823 16.7464C20.447 16.7044 20.3328 16.6124 20.2629 16.4892C20.193 16.366 20.1726 16.2208 20.2058 16.0831C20.2445 15.9458 20.3359 15.8292 20.46 15.7587C20.5841 15.6882 20.731 15.6695 20.8689 15.7067C23.001 16.6052 25.1205 17.5346 27.2429 18.456C29.9163 19.6169 32.5905 20.776 35.2656 21.9333C35.8551 22.1879 36.4451 22.4411 37.0356 22.693C37.2773 22.796 37.5191 22.8988 37.7611 23.0014L37.8341 23.0322C37.8977 23.0591 37.7359 22.9908 37.8292 23.0302L37.9812 23.0942C38.0784 23.1351 38.1757 23.1758 38.2732 23.2164C38.4085 23.2583 38.5227 23.3502 38.5927 23.4734C38.6626 23.5966 38.683 23.7418 38.6497 23.8794C38.611 24.0168 38.5196 24.1334 38.3955 24.204C38.2714 24.2745 38.1245 24.2932 37.9866 24.2561H37.9871Z" fill="#211715"/>
<path d="M35.3143 21.5364C35.0014 22.224 34.6939 22.9093 34.326 23.5701C34.2528 23.6925 34.1346 23.7813 33.9967 23.8175C33.8587 23.8536 33.7122 23.8343 33.5883 23.7635C33.4671 23.6894 33.3792 23.5711 33.3432 23.4336C33.3071 23.2961 33.3257 23.15 33.395 23.0259C33.7627 22.3651 34.0702 21.6797 34.3833 20.9922C34.4545 20.8712 34.57 20.7826 34.7054 20.7451C34.8088 20.7165 34.9184 20.7194 35.0201 20.7534C35.1218 20.7874 35.2111 20.851 35.2765 20.9361C35.3419 21.0211 35.3804 21.1238 35.3872 21.2308C35.3939 21.3379 35.3685 21.4445 35.3143 21.5371V21.5364Z" fill="#211715"/>
<path d="M25.1586 17.2478C24.8617 17.8992 24.5699 18.5506 24.2211 19.1775C24.1489 19.301 24.0307 19.3907 23.8924 19.427C23.7541 19.4633 23.607 19.4431 23.4835 19.371C23.3601 19.2989 23.2703 19.1806 23.234 19.0423C23.1978 18.904 23.2179 18.7569 23.29 18.6335C23.6391 18.0063 23.9309 17.3561 24.2276 16.7035C24.299 16.5825 24.4145 16.4939 24.5499 16.4565C24.6533 16.4279 24.7629 16.4308 24.8646 16.4649C24.9663 16.4989 25.0555 16.5626 25.1209 16.6476C25.1862 16.7326 25.2247 16.8352 25.2315 16.9423C25.2382 17.0493 25.2128 17.1559 25.1586 17.2485V17.2478Z" fill="#211715"/>
<path d="M56.5498 21.6653C55.9433 18.4375 55.7966 14.7441 56.7519 11.6556C56.2005 11.5807 55.6543 11.4712 55.1167 11.3276C54.5574 14.6376 54.7953 20.7484 55.986 22.7185L56.7968 22.8533C56.7085 22.466 56.6261 22.07 56.5498 21.6653Z" fill="#211715"/>
<path d="M52.326 0.977869C52.7461 1.00977 53.1149 1.03717 53.4062 1.05761L55.2831 1.41048C56.6095 1.65981 57.959 1.917 59.1522 2.54818C60.34 3.17711 61.3099 4.14297 62.2268 5.12523C63.8252 6.8375 65.3395 8.5273 65.7155 10.8144C65.7465 11.0267 65.6991 11.2431 65.5823 11.4232C65.4655 11.6032 65.2871 11.7346 65.0806 11.7928C64.904 11.8312 64.7239 11.8506 64.5433 11.8508C63.2629 11.8768 61.9826 11.8757 60.7023 11.8474C54.4467 11.9215 53.5547 10.7852 48.0266 8.05134C47.4111 7.74698 46.9585 6.39724 47.0913 5.36849C47.1782 4.69463 45.3786 2.31839 44.9421 1.20384C44.9131 1.13 44.9025 1.05015 44.9114 0.971291C44.9204 0.892432 44.9485 0.816967 44.9934 0.751505C45.0382 0.686042 45.0985 0.63258 45.1688 0.5958C45.2391 0.55902 45.3174 0.540045 45.3968 0.540537C46.735 0.546826 50.1919 0.816818 52.326 0.977869Z" fill="#6604C8"/>
<path d="M55.6374 11.4711C55.4128 12.9887 55.325 14.5234 55.375 16.0567C55.3778 17.6273 55.5382 19.1936 55.8539 20.7321C55.9272 21.0685 56.0189 21.4007 56.1284 21.7272C56.1538 21.8017 56.1809 21.8759 56.2088 21.9495C56.2207 21.9812 56.2333 22.0124 56.2459 22.0437C56.2173 21.9729 56.242 22.0362 56.2584 22.0717C56.3164 22.2001 56.3811 22.3253 56.4523 22.4468L56.1302 22.1998L56.9411 22.3345L56.2778 22.9976C55.4305 19.2822 55.1044 15.2067 56.2328 11.5138C56.435 10.852 57.4761 11.1344 57.2726 11.8004C56.1998 15.3107 56.5118 19.1786 57.3175 22.711C57.3404 22.8026 57.3391 22.8986 57.3139 22.9895C57.2887 23.0805 57.2403 23.1634 57.1736 23.2301C57.1068 23.2969 57.0239 23.3452 56.933 23.3705C56.842 23.3957 56.746 23.3969 56.6544 23.3741C56.3997 23.3318 56.1354 23.3067 55.8847 23.2463C55.5046 23.1542 55.3593 22.7031 55.225 22.3768C54.9508 21.664 54.7578 20.9225 54.6497 20.1665C54.3409 18.2093 54.2272 16.2262 54.3103 14.2465C54.3395 13.2206 54.4355 12.1978 54.5976 11.1845C54.6366 11.0472 54.7281 10.9308 54.8522 10.8604C54.9763 10.79 55.1231 10.7711 55.2609 10.808C55.397 10.8488 55.512 10.9405 55.5821 11.064C55.6523 11.1876 55.672 11.3333 55.6374 11.4711Z" fill="#211715"/>
<path d="M52.326 0.438783C52.8755 0.467551 53.4229 0.526792 53.9658 0.616231C54.5188 0.720155 55.0717 0.824078 55.6246 0.928002C56.755 1.10775 57.8617 1.41427 58.9235 1.84175C60.8586 2.68587 62.3447 4.37994 63.6996 5.94598C64.3825 6.70272 64.9749 7.53652 65.4647 8.43049C65.6993 8.87763 65.8918 9.34566 66.0397 9.82852C66.1812 10.2975 66.347 10.8427 66.2102 11.329C65.8645 12.5583 64.4458 12.3966 63.4458 12.4047C62.2677 12.4143 61.0895 12.395 59.9114 12.3883C58.2555 12.3788 56.5745 12.278 54.9698 11.8447C53.63 11.444 52.336 10.9037 51.1091 10.2328C50.306 9.82155 49.508 9.40174 48.7036 8.99226C48.2946 8.78471 47.8132 8.61827 47.4664 8.31122C47.1528 8.00143 46.9192 7.61999 46.7858 7.1998C46.6238 6.75304 46.5374 6.28236 46.5302 5.80717C46.5129 5.63774 46.5213 5.46667 46.5551 5.29975C46.5446 5.33098 46.5848 5.39993 46.5491 5.27931C46.5316 5.22002 46.5149 5.16161 46.4947 5.10344C46.4579 5.00315 46.4141 4.90557 46.3635 4.81143C46.2856 4.6542 46.2016 4.50124 46.1165 4.34894C45.9267 4.01202 45.7249 3.68273 45.5237 3.35276C45.1155 2.74375 44.7593 2.10147 44.4588 1.43272C44.3635 1.20557 44.3518 0.95197 44.4258 0.717013C44.4998 0.482056 44.6548 0.280961 44.8631 0.149474C45.1789 -0.0475169 45.5729 0.000326896 45.9273 0.0124563C47.6488 0.0708572 49.3685 0.214613 51.0857 0.343544L52.3274 0.437435C52.4693 0.440855 52.6044 0.49875 52.7048 0.599116C52.8052 0.699482 52.8631 0.834622 52.8665 0.97652C52.8654 1.11915 52.8082 1.25562 52.7073 1.35648C52.6065 1.45733 52.47 1.51449 52.3274 1.5156C50.6699 1.39049 49.0127 1.25999 47.3534 1.16116C46.9889 1.13869 46.6241 1.11938 46.2593 1.10343C46.1113 1.09714 45.9635 1.0913 45.8155 1.08703C45.7292 1.08434 45.4927 1.12364 45.4197 1.07917C45.4087 1.07266 45.3891 1.07288 45.4161 1.08097C45.552 1.1214 45.3206 0.867355 45.4628 1.06008C45.4666 1.06502 45.4938 1.1378 45.4716 1.08254C45.4464 1.02054 45.4882 1.11825 45.494 1.13151C45.53 1.20496 45.5648 1.27886 45.6023 1.35163C45.7503 1.63914 45.9148 1.91812 46.081 2.19552C46.4514 2.8139 46.8447 3.42037 47.185 4.05649C47.3324 4.31907 47.4562 4.59417 47.5551 4.87859C47.6204 5.14229 47.6382 5.41548 47.6079 5.68543C47.6031 6.07789 47.6676 6.46812 47.7984 6.83817C47.8526 6.99614 47.9242 7.14758 48.012 7.28965C48.0345 7.32671 48.0958 7.41409 48.1019 7.4215C48.128 7.45247 48.1559 7.48187 48.1854 7.50955C48.3085 7.62591 48.1555 7.4981 48.2303 7.54662C48.6392 7.78099 49.0599 7.99413 49.4907 8.18521C49.8788 8.38332 50.2661 8.58316 50.6526 8.78471C51.8431 9.40242 53.0486 10.0536 54.2629 10.4918C55.51 10.9276 56.8126 11.1839 58.1318 11.2533C59.0619 11.3135 59.9905 11.2946 60.9215 11.313C62.0554 11.3353 63.1895 11.3363 64.3238 11.3159C64.6127 11.3108 65.1017 11.3833 65.1796 11.0069C65.1891 10.8373 65.164 10.6675 65.1057 10.508C65.0505 10.275 64.983 10.045 64.9036 9.81908C64.5897 8.98914 64.1498 8.21257 63.5992 7.51674C63.0197 6.77946 62.4017 6.07332 61.7477 5.40128C61.1081 4.68043 60.3934 4.02998 59.6156 3.46103C57.8793 2.26628 55.7025 2.03582 53.6805 1.65599C53.2321 1.58469 52.78 1.53827 52.3265 1.51695C52.1846 1.51359 52.0494 1.45571 51.949 1.35533C51.8486 1.25495 51.7908 1.11978 51.7874 0.977867C51.7885 0.835315 51.8456 0.698911 51.9464 0.598067C52.0471 0.497222 52.1835 0.440016 52.326 0.438783Z" fill="#211715"/>
<path d="M60.517 7.66759C60.0829 7.17572 59.6041 6.72515 59.0868 6.32167C59.0206 6.26791 58.9541 6.21468 58.8872 6.16197C58.875 6.15253 58.7663 6.06718 58.8258 6.11367C58.8854 6.16017 58.7607 6.06403 58.7492 6.05527C58.6242 5.96048 58.4976 5.86772 58.3694 5.77697C58.1569 5.6232 57.9356 5.48205 57.7066 5.35424C57.5841 5.28118 57.4952 5.16294 57.459 5.02497C57.4228 4.88701 57.4423 4.74035 57.5132 4.61659C57.5873 4.49539 57.7055 4.40757 57.843 4.37152C57.9804 4.33547 58.1265 4.35399 58.2506 4.42319C58.8049 4.74469 59.3289 5.11594 59.8159 5.53236C60.3457 5.94309 60.8357 6.40274 61.2793 6.90523C61.3791 7.00661 61.4347 7.14329 61.4341 7.2855C61.4336 7.42771 61.3768 7.56393 61.2762 7.6645C61.1757 7.76506 61.0395 7.82181 60.8973 7.82238C60.755 7.82296 60.6184 7.76732 60.517 7.66759Z" fill="#211715"/>
<path d="M55.9572 4.65326C55.6833 4.55921 55.4008 4.49232 55.1138 4.45357L55.2571 4.47289C55.1662 4.46091 55.0749 4.45177 54.9833 4.44548C54.8409 4.44233 54.7048 4.38628 54.6014 4.28825C54.5003 4.18715 54.4435 4.05004 54.4435 3.90707C54.4435 3.76411 54.5003 3.62699 54.6014 3.5259C54.6515 3.47567 54.711 3.4359 54.7766 3.4089C54.8421 3.38191 54.9124 3.36823 54.9833 3.36866C55.4124 3.39593 55.8362 3.47899 56.2438 3.61574C56.3777 3.65611 56.4923 3.74397 56.5659 3.86282C56.6017 3.92395 56.6251 3.99153 56.6347 4.06168C56.6443 4.13184 56.64 4.20321 56.6221 4.27172C56.6041 4.34022 56.5728 4.40451 56.53 4.46092C56.4872 4.51733 56.4337 4.56475 56.3725 4.60047C56.3105 4.63687 56.2417 4.66043 56.1704 4.66977C56.0991 4.67911 56.0266 4.67403 55.9572 4.65483V4.65326Z" fill="#211715"/>
</g>
<defs>
<clipPath id="clip0_874_2192">
<rect width="100" height="100" fill="white" transform="matrix(-1 0 0 1 100 0)"/>
</clipPath>
</defs>
</svg>
