<svg width="100" height="100" viewBox="0 0 100 100" fill="none" xmlns="http://www.w3.org/2000/svg">
<g clip-path="url(#clip0_877_2360)">
<path fill-rule="evenodd" clip-rule="evenodd" d="M100 71.2322H97.2575V76.5463C97.2575 78.3936 95.7438 79.9073 93.8965 79.9073H90.4622C88.6149 79.9073 87.1012 78.3936 87.1012 76.5463V71.2322H63.9648V76.5463C63.9648 78.3936 62.4512 79.9073 60.6038 79.9073H57.1696C55.3223 79.9073 53.8086 78.3936 53.8086 76.5463V71.2322H51.1556V31.2989C51.1556 27.4171 53.418 24.5932 57.9753 22.8435C67.3503 19.1895 83.8135 19.1895 93.1803 22.8435C97.7376 24.6013 100 27.4171 100 31.307V71.2322ZM43.278 57.4382V72.7865V76.4324V79.9073H38.029V76.4324H7.0638V79.9073H1.80664V76.4324V72.7865V57.4382H0V53.9877H4.41894L6.88477 46.3217C7.60905 44.0675 8.82161 42.0167 11.1898 42.0167H16.6097V38.9812C16.6097 37.6222 16.3249 37.7361 17.6107 37.7361H27.6367C28.7109 37.7361 28.4749 37.6303 28.4749 38.7778V42.0167H34.8145C37.1826 42.0167 38.5498 44.0268 39.1195 46.3217L41.0238 53.9877H45.0846V57.4382H43.278ZM14.681 69.5069H30.1921V73.169H14.681V69.5069ZM3.56445 60.9864C7.51953 61.1085 9.93652 62.7686 10.555 66.2192H3.56445V60.9864ZM41.0238 60.9864C37.0687 61.1085 34.6517 62.7686 34.0332 66.2192H41.0238V60.9864ZM6.30697 53.9877H38.7858L37.3942 47.5587C37.0117 45.8009 35.9131 44.2709 34.1064 44.2709H11.6455C9.83887 44.2709 8.91927 45.8334 8.35775 47.5587L6.30697 53.9877ZM64.9007 61.3038H86.2549C86.4421 61.3038 86.5885 61.5479 86.5885 61.8409V63.4522C86.5885 63.7533 86.4339 63.9893 86.2549 63.9893H64.9007C64.7135 63.9893 64.5671 63.7452 64.5671 63.4522V61.8409C64.5589 61.5479 64.7135 61.3038 64.9007 61.3038ZM64.9007 65.3728H86.2549C86.4421 65.3728 86.5885 65.6169 86.5885 65.9099V67.5212C86.5885 67.8142 86.4339 68.0583 86.2549 68.0583H64.9007C64.7135 68.0583 64.5671 67.8142 64.5671 67.5212V65.9099C64.5589 65.6169 64.7135 65.3728 64.9007 65.3728ZM55.5583 31.5268H72.9736C73.5107 31.5268 73.9583 31.9662 73.9583 32.5115V46.8995C73.9583 47.4366 73.5189 47.8842 72.9736 47.8842H55.5583C55.0212 47.8842 54.5736 47.4447 54.5736 46.8995V32.5033C54.5736 31.9662 55.0212 31.5268 55.5583 31.5268ZM78.1006 31.5268H95.516C96.0531 31.5268 96.5006 31.9662 96.5006 32.5115V46.8995C96.5006 47.4366 96.0612 47.8842 95.516 47.8842H78.1006C77.5635 47.8842 77.1159 47.4447 77.1159 46.8995V32.5033C77.124 31.9662 77.5635 31.5268 78.1006 31.5268ZM97.2249 65.1287C97.2249 64.1277 96.8831 63.2895 96.1914 62.6059C95.4997 61.9141 94.6533 61.5723 93.6605 61.5723C92.6921 61.5723 91.862 61.9223 91.154 62.6059C90.446 63.2976 90.1042 64.1277 90.1042 65.1287C90.1042 66.0971 90.4541 66.919 91.154 67.6026C91.862 68.2943 92.6921 68.6362 93.6605 68.6362C94.6452 68.6362 95.4997 68.2943 96.1914 67.6026C96.8831 66.919 97.2249 66.1052 97.2249 65.1287ZM61.0433 65.1287C61.0433 64.1277 60.6934 63.2895 60.0098 62.6059C59.318 61.9141 58.4798 61.5723 57.4788 61.5723C56.4941 61.5723 55.6396 61.9223 54.9479 62.6059C54.2562 63.2976 53.9307 64.1277 53.9307 65.1287C53.9307 66.0971 54.2562 66.919 54.9479 67.6026C55.6396 68.2943 56.486 68.6362 57.4788 68.6362C58.4798 68.6362 59.318 68.2943 60.0098 67.6026C60.6934 66.919 61.0433 66.1052 61.0433 65.1287Z" fill="#6604C8"/>
</g>
<defs>
<clipPath id="clip0_877_2360">
<rect width="100" height="100" fill="white"/>
</clipPath>
</defs>
</svg>
