<svg width="32" height="29" viewBox="0 0 32 29" fill="none" xmlns="http://www.w3.org/2000/svg">
<path d="M10.062 28.5137C22.1322 28.5137 28.7363 17.6361 28.7363 8.22221C28.7363 7.9179 28.7363 7.60996 28.7247 7.30564C30.0099 6.29327 31.119 5.04013 32 3.60492C30.7996 4.18073 29.5274 4.5604 28.2248 4.73162C29.597 3.83969 30.6247 2.43649 31.117 0.782741C29.8271 1.61309 28.4154 2.19581 26.9437 2.50539C25.9545 1.35971 24.6454 0.600701 23.2192 0.345953C21.7931 0.091206 20.3295 0.354944 19.0551 1.09631C17.7808 1.83767 16.7669 3.01527 16.1705 4.44666C15.5742 5.87806 15.4286 7.48334 15.7564 9.0138C13.147 8.87139 10.5943 8.13422 8.26374 6.85011C5.93323 5.56599 3.87699 3.7636 2.22837 1.55984C1.39122 3.13181 1.13577 4.99129 1.5139 6.76063C1.89203 8.52996 2.87538 10.0765 4.26424 11.0861C3.22323 11.0475 2.20513 10.7435 1.29207 10.1985V10.2963C1.29388 11.9431 1.81862 13.5386 2.77756 14.8133C3.73651 16.088 5.07085 16.9635 6.55501 17.292C5.59067 17.5763 4.57956 17.619 3.59783 17.4169C4.0169 18.8345 4.83335 20.074 5.93277 20.9617C7.0322 21.8495 8.35952 22.3411 9.72876 22.3675C7.40261 24.3534 4.5295 25.4304 1.57196 25.4252C1.05081 25.4276 0.530017 25.3949 0.0125732 25.3274C3.01464 27.4091 6.50134 28.5146 10.062 28.5137Z" fill="white"/>
</svg>
