<svg width="16" height="10" viewBox="0 0 16 10" fill="none" xmlns="http://www.w3.org/2000/svg">
<path fill-rule="evenodd" clip-rule="evenodd" d="M16 5.00147C16 4.86884 15.9398 4.74165 15.8326 4.64787C15.7255 4.55409 15.5801 4.5014 15.4286 4.5014H1.95278L5.54887 1.35515C5.65621 1.2612 5.71652 1.13379 5.71652 1.00093C5.71652 0.868078 5.65621 0.740664 5.54887 0.64672C5.44152 0.552777 5.29593 0.5 5.14412 0.5C4.9923 0.5 4.84671 0.552777 4.73936 0.64672L0.168065 4.64726C0.114794 4.69371 0.0725265 4.74892 0.0436861 4.8097C0.0148458 4.87048 0 4.93565 0 5.00147C0 5.06728 0.0148458 5.13245 0.0436861 5.19324C0.0725265 5.25402 0.114794 5.30923 0.168065 5.35568L4.73936 9.35622C4.83337 9.43702 4.95632 9.48702 5.08751 9.4978C5.2187 9.50858 5.35013 9.47948 5.45968 9.41541C5.56923 9.35133 5.65022 9.25618 5.68901 9.14597C5.7278 9.03577 5.72203 8.91723 5.67267 8.81031C5.64401 8.74954 5.60194 8.69431 5.54887 8.64779L1.95182 5.50154H15.4286C15.5801 5.50154 15.7255 5.44885 15.8326 5.35507C15.9398 5.26129 16 5.13409 16 5.00147Z" fill="black"/>
</svg>
