<svg width="24" height="20" viewBox="0 0 24 20" fill="none" xmlns="http://www.w3.org/2000/svg">
<path d="M9.75 0C9.45452 0 9.16194 0.0596941 8.88896 0.175674C8.61598 0.291654 8.36794 0.461649 8.15901 0.675952C7.95008 0.890256 7.78434 1.14467 7.67127 1.42467C7.5582 1.70467 7.5 2.00478 7.5 2.30785V3.07713H2.25C1.65326 3.07713 1.08097 3.32028 0.65901 3.75308C0.237053 4.18588 0 4.77289 0 5.38497V7.51332L11.4212 10.6379C11.8012 10.7405 12.2 10.7405 12.58 10.6379L24 7.51332V5.38497C24 4.77289 23.7629 4.18588 23.341 3.75308C22.919 3.32028 22.3467 3.07713 21.75 3.07713H16.5V2.30785C16.5 2.00478 16.4418 1.70467 16.3287 1.42467C16.2157 1.14467 16.0499 0.890256 15.841 0.675952C15.6321 0.461649 15.384 0.291654 15.111 0.175674C14.8381 0.0596941 14.5455 0 14.25 0H9.75ZM9.75 1.53856H14.25C14.4489 1.53856 14.6397 1.61961 14.7803 1.76388C14.921 1.90815 15 2.10382 15 2.30785V3.07713H9V2.30785C9 2.10382 9.07902 1.90815 9.21967 1.76388C9.36032 1.61961 9.55109 1.53856 9.75 1.53856Z" fill="#6604C8"/>
<path d="M0 17.6919C0 18.304 0.237053 18.891 0.65901 19.3238C1.08097 19.7566 1.65326 19.9998 2.25 19.9998H21.75C22.3467 19.9998 22.919 19.7566 23.341 19.3238C23.7629 18.891 24 18.304 24 17.6919V8.99902L12.1937 12.2262C12.0668 12.2611 11.9332 12.2611 11.8062 12.2262L0 8.99902V17.6919Z" fill="#6604C8"/>
</svg>
