<svg width="100" height="60" viewBox="0 0 100 60" fill="none" xmlns="http://www.w3.org/2000/svg">
<path fill-rule="evenodd" clip-rule="evenodd" d="M100 51.2322H97.2575V56.5463C97.2575 58.3936 95.7438 59.9073 93.8965 59.9073H90.4622C88.6149 59.9073 87.1012 58.3936 87.1012 56.5463V51.2322H63.9648V56.5463C63.9648 58.3936 62.4512 59.9073 60.6038 59.9073H57.1696C55.3223 59.9073 53.8086 58.3936 53.8086 56.5463V51.2322H51.1556V11.2989C51.1556 7.41707 53.418 4.59318 57.9753 2.84351C67.3503 -0.810465 83.8135 -0.810465 93.1803 2.84351C97.7376 4.60132 100 7.41707 100 11.307V51.2322ZM43.278 37.4382V52.7865V56.4324V59.9073H38.029V56.4324H7.0638V59.9073H1.80664V56.4324V52.7865V37.4382H0V33.9877H4.41894L6.88477 26.3217C7.60905 24.0675 8.82161 22.0167 11.1898 22.0167H16.6097V18.9812C16.6097 17.6222 16.3249 17.7361 17.6107 17.7361H27.6367C28.7109 17.7361 28.4749 17.6303 28.4749 18.7778V22.0167H34.8145C37.1826 22.0167 38.5498 24.0268 39.1195 26.3217L41.0238 33.9877H45.0846V37.4382H43.278ZM14.681 49.5069H30.1921V53.169H14.681V49.5069ZM3.56445 40.9864C7.51953 41.1085 9.93652 42.7686 10.555 46.2192H3.56445V40.9864ZM41.0238 40.9864C37.0687 41.1085 34.6517 42.7686 34.0332 46.2192H41.0238V40.9864ZM6.30697 33.9877H38.7858L37.3942 27.5587C37.0117 25.8009 35.9131 24.2709 34.1064 24.2709H11.6455C9.83887 24.2709 8.91927 25.8334 8.35775 27.5587L6.30697 33.9877ZM64.9007 41.3038H86.2549C86.4421 41.3038 86.5885 41.5479 86.5885 41.8409V43.4522C86.5885 43.7533 86.4339 43.9893 86.2549 43.9893H64.9007C64.7135 43.9893 64.5671 43.7452 64.5671 43.4522V41.8409C64.5589 41.5479 64.7135 41.3038 64.9007 41.3038ZM64.9007 45.3728H86.2549C86.4421 45.3728 86.5885 45.6169 86.5885 45.9099V47.5212C86.5885 47.8142 86.4339 48.0583 86.2549 48.0583H64.9007C64.7135 48.0583 64.5671 47.8142 64.5671 47.5212V45.9099C64.5589 45.6169 64.7135 45.3728 64.9007 45.3728ZM55.5583 11.5268H72.9736C73.5107 11.5268 73.9583 11.9662 73.9583 12.5115V26.8995C73.9583 27.4366 73.5189 27.8842 72.9736 27.8842H55.5583C55.0212 27.8842 54.5736 27.4447 54.5736 26.8995V12.5033C54.5736 11.9662 55.0212 11.5268 55.5583 11.5268ZM78.1006 11.5268H95.516C96.0531 11.5268 96.5006 11.9662 96.5006 12.5115V26.8995C96.5006 27.4366 96.0612 27.8842 95.516 27.8842H78.1006C77.5635 27.8842 77.1159 27.4447 77.1159 26.8995V12.5033C77.124 11.9662 77.5635 11.5268 78.1006 11.5268ZM97.2249 45.1287C97.2249 44.1277 96.8831 43.2895 96.1914 42.6059C95.4997 41.9141 94.6533 41.5723 93.6605 41.5723C92.6921 41.5723 91.862 41.9223 91.154 42.6059C90.446 43.2976 90.1042 44.1277 90.1042 45.1287C90.1042 46.0971 90.4541 46.919 91.154 47.6026C91.862 48.2943 92.6921 48.6362 93.6605 48.6362C94.6452 48.6362 95.4997 48.2943 96.1914 47.6026C96.8831 46.919 97.2249 46.1052 97.2249 45.1287ZM61.0433 45.1287C61.0433 44.1277 60.6934 43.2895 60.0098 42.6059C59.318 41.9141 58.4798 41.5723 57.4788 41.5723C56.4941 41.5723 55.6396 41.9223 54.9479 42.6059C54.2562 43.2976 53.9307 44.1277 53.9307 45.1287C53.9307 46.0971 54.2562 46.919 54.9479 47.6026C55.6396 48.2943 56.486 48.6362 57.4788 48.6362C58.4798 48.6362 59.318 48.2943 60.0098 47.6026C60.6934 46.919 61.0433 46.1052 61.0433 45.1287Z" fill="#3F60AC"/>
</svg>
