<svg width="20" height="20" viewBox="0 0 20 20" fill="none" xmlns="http://www.w3.org/2000/svg">
<path d="M4.375 0C4.54076 0 4.69973 0.065848 4.81694 0.183058C4.93415 0.300269 5 0.45924 5 0.625V1.25H15V0.625C15 0.45924 15.0658 0.300269 15.1831 0.183058C15.3003 0.065848 15.4592 0 15.625 0C15.7908 0 15.9497 0.065848 16.0669 0.183058C16.1842 0.300269 16.25 0.45924 16.25 0.625V1.25H17.5C18.163 1.25 18.7989 1.51339 19.2678 1.98223C19.7366 2.45107 20 3.08696 20 3.75V17.5C20 18.163 19.7366 18.7989 19.2678 19.2678C18.7989 19.7366 18.163 20 17.5 20H2.5C1.83696 20 1.20107 19.7366 0.732233 19.2678C0.263392 18.7989 0 18.163 0 17.5V3.75C0 3.08696 0.263392 2.45107 0.732233 1.98223C1.20107 1.51339 1.83696 1.25 2.5 1.25H3.75V0.625C3.75 0.45924 3.81585 0.300269 3.93306 0.183058C4.05027 0.065848 4.20924 0 4.375 0ZM2.5 2.5C2.16848 2.5 1.85054 2.6317 1.61612 2.86612C1.3817 3.10054 1.25 3.41848 1.25 3.75V5H18.75V3.75C18.75 3.41848 18.6183 3.10054 18.3839 2.86612C18.1495 2.6317 17.8315 2.5 17.5 2.5H2.5ZM18.75 6.25H1.25V17.5C1.25 17.8315 1.3817 18.1495 1.61612 18.3839C1.85054 18.6183 2.16848 18.75 2.5 18.75H17.5C17.8315 18.75 18.1495 18.6183 18.3839 18.3839C18.6183 18.1495 18.75 17.8315 18.75 17.5V6.25Z" fill="black"/>
<path d="M13.75 9.375C13.7499 9.29289 13.7659 9.21156 13.7973 9.13567C13.8287 9.05978 13.8747 8.99083 13.9328 8.93277C13.9908 8.8747 14.0598 8.82867 14.1357 8.79731C14.2116 8.76595 14.2929 8.74987 14.375 8.75H15.625C15.7071 8.74987 15.7884 8.76595 15.8643 8.79731C15.9402 8.82867 16.0092 8.8747 16.0672 8.93277C16.1253 8.99083 16.1713 9.05978 16.2027 9.13567C16.2341 9.21156 16.2501 9.29289 16.25 9.375V10.625C16.2501 10.7071 16.2341 10.7884 16.2027 10.8643C16.1713 10.9402 16.1253 11.0092 16.0672 11.0672C16.0092 11.1253 15.9402 11.1713 15.8643 11.2027C15.7884 11.2341 15.7071 11.2501 15.625 11.25H14.375C14.2929 11.2501 14.2116 11.2341 14.1357 11.2027C14.0598 11.1713 13.9908 11.1253 13.9328 11.0672C13.8747 11.0092 13.8287 10.9402 13.7973 10.8643C13.7659 10.7884 13.7499 10.7071 13.75 10.625V9.375ZM10 9.375C9.99987 9.29289 10.0159 9.21156 10.0473 9.13567C10.0787 9.05978 10.1247 8.99083 10.1828 8.93277C10.2408 8.8747 10.3098 8.82867 10.3857 8.79731C10.4616 8.76595 10.5429 8.74987 10.625 8.75H11.875C11.9571 8.74987 12.0384 8.76595 12.1143 8.79731C12.1902 8.82867 12.2592 8.8747 12.3172 8.93277C12.3753 8.99083 12.4213 9.05978 12.4527 9.13567C12.4841 9.21156 12.5001 9.29289 12.5 9.375V10.625C12.5001 10.7071 12.4841 10.7884 12.4527 10.8643C12.4213 10.9402 12.3753 11.0092 12.3172 11.0672C12.2592 11.1253 12.1902 11.1713 12.1143 11.2027C12.0384 11.2341 11.9571 11.2501 11.875 11.25H10.625C10.5429 11.2501 10.4616 11.2341 10.3857 11.2027C10.3098 11.1713 10.2408 11.1253 10.1828 11.0672C10.1247 11.0092 10.0787 10.9402 10.0473 10.8643C10.0159 10.7884 9.99987 10.7071 10 10.625V9.375ZM7.5 13.125C7.5 12.9592 7.56585 12.8003 7.68306 12.6831C7.80027 12.5658 7.95924 12.5 8.125 12.5H9.375C9.45711 12.4999 9.53844 12.5159 9.61433 12.5473C9.69022 12.5787 9.75917 12.6247 9.81723 12.6828C9.8753 12.7408 9.92133 12.8098 9.95269 12.8857C9.98406 12.9616 10.0001 13.0429 10 13.125V14.375C10.0001 14.4571 9.98406 14.5384 9.95269 14.6143C9.92133 14.6902 9.8753 14.7592 9.81723 14.8172C9.75917 14.8753 9.69022 14.9213 9.61433 14.9527C9.53844 14.9841 9.45711 15.0001 9.375 15H8.125C7.95924 15 7.80027 14.9342 7.68306 14.8169C7.56585 14.6997 7.5 14.5408 7.5 14.375V13.125ZM3.75 13.125C3.75 12.9592 3.81585 12.8003 3.93306 12.6831C4.05027 12.5658 4.20924 12.5 4.375 12.5H5.625C5.79076 12.5 5.94973 12.5658 6.06694 12.6831C6.18415 12.8003 6.25 12.9592 6.25 13.125V14.375C6.25 14.5408 6.18415 14.6997 6.06694 14.8169C5.94973 14.9342 5.79076 15 5.625 15H4.375C4.20924 15 4.05027 14.9342 3.93306 14.8169C3.81585 14.6997 3.75 14.5408 3.75 14.375V13.125Z" fill="black"/>
</svg>
