<svg width="100" height="100" viewBox="0 0 100 100" fill="none" xmlns="http://www.w3.org/2000/svg">
<g clip-path="url(#clip0_874_2305)">
<path d="M42.3854 32.7498L42.9639 32.7312C43.9649 32.6985 45.3983 32.393 45.7314 31.7636C46.0036 31.2477 46.0934 30.3967 46.0564 29.2545C45.8768 23.7322 45.6136 18.797 45.3866 13.3217C45.3382 12.1903 44.9126 11.1077 44.1776 10.2462C44.0119 10.0519 43.8277 9.826 43.6018 9.51772C43.332 9.15073 42.4581 7.96658 41.915 7.12414L41.8785 7.06738L41.6199 7.07594L37.7786 7.20073L37.4867 7.21006L37.4672 7.23999C36.7029 8.41132 35.9324 9.39098 35.6871 9.77469C35.4811 10.0974 35.3123 10.3345 35.1599 10.5394C34.4826 11.4464 34.1282 12.5539 34.1531 13.6856C34.281 19.1795 34.3393 24.107 34.5189 29.6293C34.5616 30.9483 34.555 31.867 35.2844 32.3778C35.9285 32.8292 37.0439 32.9221 37.8299 32.8976L42.3854 32.7498Z" fill="#C5DBEF"/>
<path d="M41.6204 7.07539C42.4873 7.07539 42.4056 6.46543 42.4025 6.37213C42.3683 5.1596 42.3092 3.5964 42.2987 3.26557C42.3089 3.15243 42.2946 3.03843 42.257 2.93126C42.2193 2.82409 42.1591 2.72625 42.0804 2.64433C42.0017 2.56242 41.9063 2.49835 41.8007 2.45643C41.6952 2.41452 41.5818 2.39574 41.4684 2.40137L37.627 2.52616C37.5175 2.52596 37.4091 2.54892 37.309 2.59354C37.209 2.63816 37.1194 2.70343 37.0464 2.78507C36.9733 2.8667 36.9183 2.96286 36.885 3.06725C36.8516 3.17163 36.8408 3.28187 36.853 3.39075C36.8888 4.49249 36.9351 6.00981 36.9525 6.5494C36.9572 6.68664 36.9669 7.22662 37.779 7.20018L41.6204 7.07539Z" fill="white"/>
<path d="M38.2728 7.71053C37.739 8.52264 37.1477 9.2916 36.5968 10.0913C36.0701 10.856 35.4694 11.595 35.2253 12.5058C34.945 13.5469 35.1087 14.7019 35.1324 15.7683C35.1568 16.9377 35.1802 18.1073 35.2028 19.2772C35.2486 21.6257 35.2949 23.9738 35.3559 26.3219C35.387 27.5317 35.4224 28.7413 35.4621 29.9505C35.4592 30.3213 35.4865 30.6918 35.5437 31.0581C35.6082 31.3769 35.658 31.5114 35.8609 31.6413C36.4658 32.0257 37.3382 31.9802 38.0232 31.9589C38.6748 31.9387 39.3263 31.9175 39.9779 31.8955L42.2078 31.8232C42.8181 31.8294 43.4275 31.7743 44.0268 31.6587C44.352 31.599 44.6625 31.4763 44.9407 31.2976C44.9314 31.3046 44.9516 31.2486 44.9575 31.228C45.0089 31.0509 45.0508 30.8712 45.083 30.6896C45.1702 29.6415 45.164 28.5877 45.0644 27.5406C44.9788 25.1778 44.8762 22.8161 44.7697 20.454C44.7103 19.1415 44.651 17.8291 44.5916 16.5167C44.5611 15.8317 44.531 15.1468 44.5014 14.4621C44.5096 13.8707 44.4664 13.2798 44.3724 12.696C44.1255 11.5787 43.4164 10.8299 42.7579 9.93811C42.1911 9.17031 41.6305 8.39668 41.1095 7.59701C40.4525 6.58624 42.0674 5.65089 42.7205 6.65505C43.2259 7.43257 43.7733 8.18714 44.3242 8.93511C44.9784 9.82381 45.6603 10.5936 46.0219 11.6615C46.4231 12.8476 46.3543 14.1647 46.4083 15.4009C46.4619 16.6299 46.517 17.8588 46.5735 19.0875C46.6901 21.6533 46.8068 24.2191 46.9028 26.7884C47.0028 28.0367 47.0235 29.2901 46.9646 30.5411C46.8818 31.4531 46.6863 32.3659 45.8827 32.9102C44.5574 33.8082 42.7213 33.6737 41.1896 33.7234C39.6183 33.7744 37.9629 33.973 36.4013 33.7398C35.4496 33.5975 34.4735 33.1978 34.0089 32.2994C33.5346 31.3823 33.605 30.2483 33.5735 29.2465C33.4922 26.6842 33.4339 24.1207 33.3818 21.5573C33.3528 20.1243 33.3244 18.6912 33.2967 17.258C33.2691 15.8733 33.1112 14.4236 33.2465 13.0447C33.4864 10.5932 35.3649 8.74268 36.6618 6.77051C37.3188 5.77141 38.9352 6.7052 38.2728 7.71247V7.71053Z" fill="#211715"/>
<path d="M41.6204 6.14253C41.8101 6.13787 41.6542 6.14992 41.6118 6.15769C41.5986 6.16002 41.742 6.13242 41.7413 6.12737C41.7343 6.08072 41.5582 6.23428 41.6717 6.15419C41.459 6.30425 41.555 6.25955 41.5939 6.21406C41.426 6.40572 41.4886 6.36451 41.5232 6.30503C41.562 6.23933 41.5562 6.17752 41.4746 6.42555C41.5348 6.24244 41.4847 6.62848 41.4722 6.50058C41.4396 6.16819 41.4536 5.82375 41.4431 5.48981C41.419 4.74884 41.3813 4.00748 41.3653 3.26612C41.3622 3.11683 41.2985 3.19653 41.382 3.34387C41.362 3.2899 41.3489 3.23359 41.3432 3.17631C41.3346 3.12539 41.2565 2.9866 41.3848 3.26806C41.3713 3.23831 41.3551 3.20993 41.3362 3.18331C41.3307 3.17592 41.4753 3.34153 41.4038 3.27389C41.3323 3.20625 41.592 3.36875 41.447 3.3046C41.6612 3.39946 41.5617 3.35048 41.5053 3.33065C41.3591 3.27933 41.5107 3.33804 41.5477 3.33415C41.5088 3.33843 41.4582 3.33415 41.4163 3.33415C41.3268 3.33648 41.2374 3.33998 41.1476 3.34309L39.3621 3.40102L37.7402 3.45389C37.7111 3.45827 37.6816 3.45919 37.6523 3.45661C37.6442 3.45584 37.636 3.45584 37.6278 3.45661C37.884 3.47605 37.6667 3.41268 37.657 3.45272L37.5944 3.47138L37.706 3.4259C37.5718 3.49121 37.7413 3.39363 37.7612 3.37536C37.6531 3.47488 37.8 3.31549 37.8082 3.30188C37.7001 3.45389 37.8576 3.31393 37.8164 3.24746C37.8053 3.30397 37.7901 3.35958 37.7709 3.41384C37.779 3.40568 37.7837 3.16037 37.7899 3.27661C37.7899 3.29683 37.786 3.31821 37.7868 3.33843C37.7917 3.51985 37.7971 3.70127 37.8028 3.88269C37.8287 4.72758 37.8552 5.57248 37.8825 6.41738C37.8863 6.5414 37.9435 6.80225 37.8657 6.43993C37.8879 6.54334 37.9485 6.61409 37.821 6.37928C37.8327 6.40256 37.8457 6.42515 37.8599 6.44693L37.7639 6.3233C37.8125 6.37034 37.8028 6.36568 37.7363 6.31047C37.5983 6.21328 37.814 6.29531 37.6585 6.26771C37.503 6.24011 37.6535 6.26771 37.6861 6.26771C37.8113 6.2786 37.5089 6.27704 37.6531 6.26305C37.6959 6.25877 37.7452 6.26305 37.788 6.26305C37.8572 6.26305 37.9264 6.25877 37.9952 6.25644L41.6215 6.13981C41.8683 6.14184 42.1045 6.24079 42.279 6.41533C42.4536 6.58987 42.5525 6.826 42.5545 7.07283C42.5496 7.31872 42.4497 7.55316 42.2758 7.72707C42.1019 7.90098 41.8674 8.00087 41.6215 8.00584L37.9633 8.1248C37.5383 8.16906 37.1098 8.08253 36.7352 7.87678C36.5236 7.73798 36.3483 7.55039 36.2243 7.32978C36.1002 7.10917 36.0309 6.862 36.0223 6.60904C35.9569 5.7631 35.9682 4.90434 35.9414 4.05646C35.8936 3.63622 35.914 3.21103 36.0016 2.79728C36.0835 2.51245 36.2405 2.25491 36.4561 2.05169C36.6718 1.84846 36.9382 1.70704 37.2274 1.64228C37.8525 1.55652 38.4838 1.52414 39.1144 1.54548L41.1838 1.47744C41.5783 1.43701 41.9764 1.5025 42.3372 1.66716C42.5534 1.78766 42.7406 1.95396 42.8858 2.15441C43.031 2.35486 43.1306 2.58462 43.1777 2.8276C43.2349 3.20228 43.2609 3.58106 43.2555 3.96005C43.2759 4.54474 43.2958 5.12943 43.3149 5.71412C43.3648 6.12212 43.3485 6.53549 43.2667 6.93832C43.144 7.2701 42.9175 7.55344 42.6209 7.74624C42.3243 7.93905 41.9734 8.03105 41.6204 8.00856C41.3736 8.00643 41.1375 7.90745 40.963 7.73293C40.7885 7.55842 40.6895 7.32234 40.6873 7.07555C40.6919 6.82953 40.7917 6.59487 40.9657 6.42088C41.1397 6.24689 41.3743 6.14712 41.6204 6.14253Z" fill="#211715"/>
<path d="M64.5216 1.63742C64.842 1.63791 65.1613 1.67389 65.4737 1.74472C66.2537 1.8971 66.9985 2.19361 67.6698 2.61903C68.4658 3.10331 69.1951 3.6896 69.839 4.363C70.1441 4.12938 70.5265 4.0203 70.9089 4.05782C71.2861 4.14398 71.6344 4.32671 71.9197 4.58809C73.3487 5.83444 74.2425 8.47138 72.8764 12.4309C72.6879 13.1573 72.328 13.8278 71.8268 14.3863C71.5348 14.0497 70.6076 13.6038 69.8006 13.276C67.9672 12.532 67.5314 11.1732 66.5583 9.79238C66.4703 9.64004 66.3333 9.52204 66.1696 9.45766C66.021 9.43157 65.8683 9.44103 65.7241 9.48526C64.2647 9.77838 62.7446 9.08951 61.6849 8.04453C61.6234 7.98427 61.5632 7.92246 61.5045 7.85987C60.6015 6.80826 59.8703 5.62062 59.3379 4.34084C59.9966 3.63365 60.7401 3.01055 61.5515 2.48569C62.3057 1.8388 63.5505 1.62265 64.5216 1.63742Z" fill="#99D298"/>
<path d="M61.5072 7.85975C61.5659 7.92234 61.6261 7.98415 61.6876 8.04441C62.7473 9.08939 64.2674 9.77826 65.7268 9.48514C65.871 9.44091 66.0237 9.43145 66.1723 9.45754C66.336 9.52192 66.473 9.63992 66.561 9.79226C67.5329 11.1731 67.9699 12.5318 69.8033 13.2759C70.7965 13.6791 71.9717 14.2614 71.9197 14.6004C71.802 15.2338 71.5375 15.8307 71.1474 16.3434C70.7573 16.856 70.2525 17.27 69.6734 17.5522C68.5736 18.0543 67.3743 18.3002 66.1657 18.2714C64.8692 18.2327 63.5839 18.019 62.3446 17.6362L60.9248 17.1977C58.8444 16.178 57.2207 14.4168 56.3733 12.2605C55.9116 11.0391 55.7133 9.73395 55.7914 8.43058C55.8695 7.1272 56.2223 5.85507 56.8265 4.6976C57.2417 3.91425 58.209 3.10991 58.9002 3.66506C59.0849 3.83907 59.2275 4.05285 59.3173 4.29018C59.8544 5.58812 60.5935 6.79289 61.5072 7.85975Z" fill="#6DBF6B"/>
<path d="M62.167 7.20021C62.7087 7.79924 63.3995 8.24403 64.1691 8.48933C64.5503 8.60673 64.9513 8.64639 65.3482 8.60596C65.9029 8.54064 66.3566 8.43801 66.855 8.7774C67.489 9.20931 67.8576 10.0957 68.2654 10.727C68.6055 11.3093 69.0792 11.8023 69.6474 12.1654C70.4016 12.6082 71.2639 12.8294 71.9924 13.327C72.2819 13.5013 72.5265 13.7409 72.7065 14.0268C72.7987 14.2515 72.8436 14.4927 72.8384 14.7355C72.8333 14.9783 72.7782 15.2174 72.6766 15.438C72.4007 16.2065 71.9528 16.9018 71.3671 17.4707C70.7814 18.0396 70.0734 18.4672 69.2971 18.7206C67.5026 19.3559 65.5573 19.2801 63.7127 18.936C62.055 18.625 60.3526 18.1282 58.9908 17.1089C57.4964 16.0074 56.3322 14.5178 55.6243 12.8017C54.9165 11.0855 54.692 9.20827 54.9753 7.3736C55.2366 5.63352 56.1027 2.75205 58.2261 2.56234C59.5001 2.44882 59.9798 3.54434 60.4498 4.50612C60.8893 5.48274 61.4676 6.39069 62.167 7.20177C62.9787 8.08463 61.6616 9.40757 60.8475 8.52121C59.8859 7.39176 59.0985 6.12493 58.5115 4.7627C58.4796 4.69623 58.4018 4.44392 58.3365 4.41477C58.2872 4.39261 58.3513 4.4206 58.3497 4.4206C58.2366 4.40349 57.9649 4.70128 57.8883 4.78914C57.5042 5.30703 57.2284 5.89697 57.0773 6.52377C56.6879 7.78388 56.6054 9.11887 56.8369 10.4173C57.0684 11.7158 57.6071 12.94 58.4081 13.9879C59.1577 14.9993 60.1491 15.8065 61.2915 16.3356C62.5005 16.811 63.7674 17.1232 65.0589 17.264C67.1236 17.4871 70.2321 17.2185 70.9214 14.8C70.9312 14.725 70.9494 14.6513 70.9758 14.5804C70.9991 14.4145 71.0333 14.4793 71.0784 14.7748C71.2054 15.0352 71.2245 15.1148 71.1356 15.0135C71.1329 15.0135 70.9023 14.8408 70.8946 14.8362C70.5992 14.6608 70.294 14.5025 69.9806 14.3619C69.2745 14.0883 68.6078 13.7223 67.9979 13.2734C67.4847 12.827 67.043 12.3045 66.6882 11.7242C66.5218 11.4695 66.3651 11.2087 66.2038 10.9509C66.079 10.7511 65.8928 10.3515 65.7008 10.2648L66.1715 10.3923C65.733 10.3394 65.2692 10.5089 64.8171 10.4813C64.3012 10.4544 63.7925 10.3486 63.3087 10.1676C62.376 9.80849 61.5349 9.24607 60.8467 8.52121C60.0163 7.65272 61.3338 6.33134 62.167 7.20021Z" fill="#211715"/>
<path d="M71.9776 12.1827C72.422 10.9796 72.6377 9.70411 72.6136 8.42182C72.5991 7.95658 72.5221 7.49539 72.3847 7.05068C72.3528 6.94338 72.3162 6.83764 72.2793 6.73229C72.2638 6.68797 72.247 6.64404 72.2299 6.60089C72.2443 6.63782 72.2941 6.73967 72.2167 6.57056C72.1322 6.38466 72.0363 6.20418 71.9294 6.03019C71.8781 5.94739 71.8229 5.8673 71.7681 5.78683C71.6445 5.6045 71.7922 5.80355 71.6903 5.6877C71.5668 5.53919 71.4318 5.40051 71.2868 5.27289C71.1155 5.1436 70.9249 5.04219 70.7219 4.97238C70.6053 4.92223 70.9085 4.94439 70.7079 4.97238C70.5874 4.98988 70.9245 4.90513 70.7017 4.97705C70.6667 4.98832 70.4568 5.06024 70.6038 5.00309C70.7507 4.94595 70.526 5.04391 70.498 5.05946C70.3581 5.13333 70.2259 5.21885 70.0922 5.30555C69.7582 5.52442 69.4355 5.75962 69.1004 5.97654C68.0359 6.68212 66.832 7.15054 65.5705 7.35002C65.3322 7.40785 65.0808 7.3726 64.8675 7.25146C64.6543 7.13032 64.4953 6.93241 64.4229 6.69808C64.3589 6.45955 64.3914 6.20541 64.5133 5.99064C64.6352 5.77587 64.8368 5.61774 65.0745 5.55046C66.2233 5.38156 67.3178 4.95044 68.2732 4.2905C68.9138 3.86754 69.5584 3.30073 70.3336 3.15106C71.5589 2.91508 72.6237 3.82555 73.306 4.74496C73.9377 5.65225 74.3237 6.70763 74.4264 7.80837C74.5749 9.45986 74.3527 11.1237 73.776 12.6783C73.7053 12.9138 73.5465 13.113 73.3327 13.2344C73.1189 13.3559 72.8665 13.3902 72.628 13.3303C72.3907 13.2624 72.1895 13.1041 72.0677 12.8894C71.9458 12.6747 71.9131 12.4208 71.9765 12.1823L71.9776 12.1827Z" fill="#211715"/>
<path d="M67.1986 3.42458C66.969 3.27939 66.7312 3.14764 66.4864 3.03C66.3538 2.96624 66.6897 3.10386 66.4514 3.01367C66.4005 2.99462 66.3503 2.97479 66.2994 2.95652C66.1657 2.90793 66.0304 2.86477 65.8939 2.82434C65.6307 2.74659 65.3633 2.66884 65.0939 2.61519C65.0474 2.59982 64.9989 2.5913 64.95 2.58992C64.9846 2.57904 65.1502 2.61091 65.0103 2.59925C64.8936 2.58953 64.7809 2.57904 64.6654 2.57437C64.4349 2.56543 64.204 2.56932 63.9739 2.58603C63.9062 2.59109 63.839 2.59692 63.7717 2.60392C63.6873 2.61286 63.5991 2.62919 63.7328 2.60703C63.6092 2.62724 63.486 2.64862 63.3639 2.67545C63.1069 2.72948 62.8553 2.80637 62.612 2.9052C62.7345 2.85389 62.6462 2.89121 62.5774 2.92814C62.5191 2.95963 62.4608 2.98918 62.4029 3.023C62.3582 3.04943 62.3154 3.08014 62.2699 3.1058C62.0604 3.22476 62.3959 2.99345 62.2132 3.14468C62.035 3.31343 61.7989 3.40748 61.5534 3.40748C61.308 3.40748 61.0719 3.31343 60.8937 3.14468C60.7206 2.96876 60.6235 2.73181 60.6235 2.48496C60.6235 2.23811 60.7206 2.00115 60.8937 1.82524C62.8993 0.158246 66.0506 0.492966 68.1405 1.81357C68.2463 1.87542 68.3389 1.9575 68.413 2.05513C68.487 2.15275 68.5411 2.264 68.5722 2.38253C68.6032 2.50107 68.6107 2.62456 68.594 2.74595C68.5773 2.86735 68.5369 2.98428 68.4751 3.09006C68.4132 3.19584 68.3311 3.2884 68.2335 3.36246C68.1359 3.43652 68.0246 3.49063 67.9061 3.52169C67.7876 3.55275 67.6641 3.56017 67.5427 3.5435C67.4213 3.52684 67.3044 3.48643 67.1986 3.42458Z" fill="#211715"/>
<path d="M73.5762 17.1926C73.3938 17.0979 73.2184 16.9902 73.0514 16.8704C72.2736 16.3069 71.6913 15.5145 71.386 14.6039C71.1851 14.0416 71.1033 13.4436 71.1458 12.848C71.1882 12.2524 71.3539 11.6721 71.6324 11.144C71.8233 10.8104 72.8142 9.41516 74.5014 9.2997C75.1553 9.18966 75.8237 9.19756 76.4748 9.32302C77.2463 9.4411 78.0025 9.64397 78.7296 9.92793C79.4101 10.1554 80.0219 10.5517 80.5077 11.0798C80.8212 11.4748 81.0493 11.9304 81.1777 12.4181C81.306 12.9057 81.3318 13.4146 81.2534 13.9127C81.1694 14.5257 80.9597 15.1147 80.6373 15.6429C80.3149 16.171 79.8869 16.6267 79.38 16.9815C78.0489 17.9146 76.6315 17.8006 75.7482 17.7291C74.9947 17.7036 74.2549 17.5209 73.5762 17.1926Z" fill="#F3736F"/>
<path d="M73.1054 17.9996C72.1914 17.4954 71.4358 16.7467 70.9234 15.8373C70.4109 14.9279 70.1619 13.8938 70.2041 12.8509C70.2615 11.7259 70.7167 10.6579 71.4885 9.83741C72.2603 9.01692 73.2985 8.49729 74.4178 8.37121C75.7991 8.21867 77.1968 8.3856 78.5033 8.8591C79.8297 9.3085 81.1433 9.98649 81.7735 11.3145C82.724 13.315 82.1028 15.7805 80.5058 17.2597C79.5918 18.0949 78.4227 18.5972 77.1877 18.6853C75.7902 18.8213 74.3817 18.5841 73.1058 17.998C72.8939 17.8715 72.7401 17.6668 72.6775 17.4281C72.6149 17.1893 72.6485 16.9355 72.7711 16.7213C72.8994 16.5115 73.104 16.3596 73.3419 16.2972C73.5798 16.2348 73.8326 16.2668 74.0474 16.3866C74.8726 16.7318 75.7649 16.887 76.6583 16.8407C77.0925 16.8466 77.525 16.7864 77.9412 16.6622C78.1755 16.5896 78.4004 16.4897 78.6114 16.3644C78.6845 16.3217 79.1401 15.9893 78.8901 16.1926C79.4013 15.8157 79.8037 15.3101 80.0563 14.7274C80.3089 14.1446 80.4029 13.5054 80.3285 12.8746C80.2465 12.4202 80.0452 11.9957 79.7451 11.6448C79.4451 11.2938 79.0572 11.0289 78.6211 10.8771C77.6242 10.4464 76.5571 10.2015 75.4722 10.1544C74.652 10.0963 73.837 10.3239 73.1657 10.7986C73.032 10.9088 72.906 11.0281 72.7886 11.1555C72.745 11.2017 72.4838 11.5283 72.6132 11.3499C72.3956 11.6475 72.238 11.9846 72.1491 12.3424C72 13.0467 72.0589 13.7791 72.3186 14.4506C72.3298 14.486 72.4115 14.6862 72.3302 14.4953C72.3668 14.5812 72.408 14.666 72.45 14.7492C72.5534 14.9579 72.6741 15.1576 72.8107 15.3463C73.1405 15.7803 73.5628 16.1354 74.047 16.3858C75.104 16.9581 74.1628 18.5695 73.1054 17.9996Z" fill="#211715"/>
<path d="M77.5244 13.1037C77.2783 13.2285 77.0462 13.3782 76.8017 13.5049C76.5834 13.6283 76.3256 13.6621 76.0829 13.599C75.8516 13.5283 75.6536 13.3764 75.5254 13.1714C75.3668 12.9222 75.1938 12.6804 75.0247 12.4382C74.9577 12.3344 74.9195 12.2147 74.9139 12.0914C74.8862 11.9681 74.8919 11.8397 74.9306 11.7193C75.0048 11.4898 75.1558 11.2928 75.3582 11.1615C75.4659 11.0992 75.5849 11.0588 75.7082 11.0426C75.8316 11.0265 75.9569 11.0349 76.077 11.0674L76.3002 11.1615C76.4383 11.2429 76.5535 11.358 76.6349 11.4962C76.804 11.7388 76.9766 11.9802 77.1352 12.2298L75.8589 11.8951C76.1031 11.7679 76.3352 11.6183 76.5813 11.4939C76.6848 11.4265 76.8046 11.3883 76.928 11.3831C77.0493 11.3611 77.174 11.3662 77.2931 11.3979C77.4123 11.4296 77.5229 11.4872 77.6173 11.5666C77.7186 11.6318 77.8015 11.7221 77.8579 11.8286C77.9203 11.9363 77.9606 12.0552 77.9767 12.1786C77.9928 12.302 77.9843 12.4273 77.9516 12.5474C77.8875 12.782 77.734 12.9821 77.524 13.1049L77.5244 13.1037Z" fill="#211715"/>
<path d="M49.7065 13.4007C50.1359 14.6582 50.8493 15.7998 51.7913 16.737C52.7332 17.6741 53.8785 18.3816 55.1382 18.8045C57.3344 19.5606 59.7075 19.6374 61.9481 19.0249C62.3335 18.9452 62.6986 18.7876 63.021 18.5619C63.1808 18.447 63.3084 18.293 63.3915 18.1147C63.4746 17.9363 63.5105 17.7396 63.4957 17.5433C63.4445 17.3267 63.3363 17.1276 63.1823 16.9669C63.0283 16.8061 62.8341 16.6894 62.6198 16.629C62.1911 16.5138 61.7527 16.4379 61.3101 16.4023C59.9627 16.1435 58.7347 15.4569 57.8086 14.4446C56.5244 13.114 55.5848 11.4898 55.0713 9.71338C54.6048 8.1117 54.3171 6.32653 53.1536 5.04829C52.4365 4.44042 51.5496 4.0681 50.6135 3.98193L50.3514 4.06202C48.8003 4.58917 48.7575 7.36645 48.8182 8.82235C48.8766 10.3851 49.1763 11.9295 49.7065 13.4007Z" fill="#FFDA71"/>
<path d="M50.6057 13.1529C51.5165 15.8812 53.9607 17.6897 56.7123 18.2845C58.3641 18.6228 60.0724 18.5682 61.6993 18.1251C61.9057 18.0703 62.9044 17.8141 62.394 17.5439C62.1001 17.4304 61.7891 17.3677 61.4742 17.3585C61.0246 17.3101 60.5814 17.2137 60.1524 17.0708C57.0373 15.973 54.964 12.8023 54.1092 9.74314C53.7305 8.38754 53.4891 6.74038 52.4694 5.68607C52.3469 5.55933 52.4776 5.67285 52.345 5.58266C52.2154 5.49585 52.0814 5.41591 51.9434 5.34318C51.684 5.20246 51.4103 5.08986 51.127 5.0073C51.0415 4.98242 50.8735 4.94821 50.8316 4.9276C50.7223 4.87473 50.6908 4.91477 50.8316 4.893C50.7959 4.89958 50.7611 4.91015 50.7278 4.92449C50.545 5.00691 50.5447 4.97153 50.4082 5.10215C50.1007 5.49388 49.9091 5.96388 49.855 6.45892C49.758 7.051 49.7174 7.65095 49.7337 8.2507C49.7689 9.92011 50.0617 11.5741 50.6018 13.1541C50.9703 14.2998 49.1692 14.7904 48.8022 13.6501C48.2277 11.941 47.9132 10.1552 47.8692 8.35255C47.8494 7.03467 47.9233 5.50607 48.6417 4.35613C48.9889 3.77059 49.5422 3.3358 50.1932 3.13699C50.9377 2.92006 51.7261 3.20696 52.4091 3.50553C53.0978 3.7811 53.7013 4.23389 54.1585 4.81797C54.7021 5.57206 55.1111 6.41447 55.3676 7.30796C55.6397 8.17528 55.8236 9.06903 56.1136 9.9313C56.4034 10.7761 56.8006 11.5802 57.2954 12.3237C58.2529 13.7815 59.628 15.1422 61.4026 15.4726C62.3267 15.6456 63.266 15.6468 63.9401 16.4111C64.1081 16.6056 64.2362 16.8314 64.3169 17.0755C64.3975 17.3196 64.4293 17.5772 64.4103 17.8336C64.3913 18.09 64.3219 18.3401 64.2062 18.5696C64.0904 18.7992 63.9305 19.0036 63.7356 19.1713C63.0171 19.8294 61.9407 20.0234 61.01 20.1735C60.0167 20.3427 59.0071 20.3965 58.0014 20.3337C53.9035 20.0405 50.138 17.6372 48.8061 13.647C48.4236 12.5072 50.2266 12.0174 50.6057 13.1529Z" fill="#211715"/>
<path d="M50.7806 1.14921C50.9645 1.90962 51.1375 2.67314 51.3218 3.43355C51.3835 3.6765 51.3499 3.93386 51.2277 4.15275C51.1351 4.31136 50.9978 4.43913 50.8329 4.52003C50.6681 4.60094 50.483 4.63138 50.3009 4.60756C50.1188 4.58373 49.9477 4.50669 49.8092 4.38609C49.6707 4.26549 49.5709 4.1067 49.5222 3.92961C49.3384 3.1692 49.165 2.40568 48.9811 1.64527C48.9193 1.40233 48.953 1.14495 49.0752 0.926068C49.1677 0.767455 49.3051 0.639692 49.4699 0.558788C49.6348 0.477885 49.8199 0.447438 50.002 0.471265C50.1841 0.495091 50.3551 0.572131 50.4936 0.692729C50.6321 0.813328 50.732 0.972122 50.7806 1.14921Z" fill="#211715"/>
<path d="M52.4492 1.8219C50.9627 2.1389 49.4425 2.26949 47.9237 2.21065C47.6774 2.20694 47.4422 2.10745 47.268 1.93327C47.0939 1.7591 46.9944 1.52393 46.9907 1.27764C46.9941 1.03125 47.0935 0.795913 47.2677 0.621673C47.4419 0.447434 47.6773 0.348037 47.9237 0.344619C48.6267 0.374827 49.3309 0.361844 50.0323 0.305743C50.2111 0.291489 50.3897 0.274254 50.568 0.254038C50.6502 0.244708 50.7323 0.23473 50.8145 0.224104C50.6454 0.245097 50.8277 0.22216 50.8922 0.212441C51.2472 0.159959 51.6001 0.0958142 51.9508 0.0215615C52.1893 -0.0396678 52.4422 -0.00596862 52.6564 0.115563C52.8705 0.237095 53.0291 0.436976 53.0988 0.673119C53.1609 0.911584 53.1276 1.16488 53.006 1.37918C52.8843 1.59347 52.6839 1.75188 52.4472 1.82073L52.4492 1.8219Z" fill="#211715"/>
<path d="M77.6737 91.1902C78.304 91.0631 78.9551 91.0817 79.5772 91.2446C80.1992 91.4074 80.7759 91.7102 81.2631 92.1298C81.781 92.6087 82.1631 93.2159 82.3706 93.89C82.5782 94.5642 82.6038 95.2812 82.4449 95.9684C82.2386 96.7331 81.82 97.4237 81.2374 97.9604C80.6549 98.497 79.9323 98.8577 79.1533 99.0007C78.943 99.0431 76.8025 99.4412 75.366 97.9231C73.9984 96.4784 74.0831 94.1568 75.1542 92.7137C75.7784 91.9137 76.6752 91.3713 77.6737 91.1902Z" fill="white"/>
<path d="M40.8327 91.1902C41.463 91.0631 42.1141 91.0817 42.7361 91.2446C43.3582 91.4074 43.9349 91.7102 44.4221 92.1298C44.94 92.6087 45.3221 93.2159 45.5296 93.89C45.7372 94.5642 45.7628 95.2812 45.6039 95.9684C45.3976 96.7331 44.979 97.4237 44.3964 97.9604C43.8139 98.497 43.0913 98.8577 42.3123 99.0007C42.1016 99.0431 39.9615 99.4412 38.5246 97.9231C37.1574 96.4784 37.2417 94.1568 38.3132 92.7137C38.9373 91.9136 39.8342 91.3713 40.8327 91.1902Z" fill="white"/>
<path d="M85.4333 45.4995C84.5982 49.4388 84.0726 51.9735 84.2405 51.4475L32.9184 51.4533C30.5268 39.0629 27.8645 25.1535 25.815 14.1416C28.0885 14.2582 29.8009 14.3441 29.8009 14.3441C36.6512 14.4219 82.4239 17.121 90.3615 17.5708C90.4566 17.5755 90.5496 17.6002 90.6343 17.6434C90.7191 17.6867 90.7937 17.7474 90.8532 17.8217C90.9128 17.8959 90.9559 17.9819 90.9797 18.0741C91.0035 18.1662 91.0074 18.2623 90.9913 18.3561C89.9708 24.2668 87.0936 37.663 85.4333 45.4995Z" fill="white"/>
<path d="M37.5182 75.129C37.9458 77.3223 38.2957 79.1021 38.5394 80.3585C38.5623 80.4772 38.626 80.5842 38.7194 80.6609C38.8128 80.7375 38.9302 80.7791 39.051 80.7784C48.8551 80.7784 72.635 80.7784 84.2378 80.7784C84.8545 80.7783 85.4461 81.0226 85.8829 81.4579C86.3198 81.8931 86.5663 82.4838 86.5684 83.1004L86.5746 84.6442C86.5761 84.9511 86.517 85.2553 86.4005 85.5393C86.2841 85.8232 86.1126 86.0814 85.8961 86.2989C85.6796 86.5164 85.4222 86.689 85.1387 86.8067C84.8553 86.9245 84.5514 86.985 84.2444 86.9849C73.3332 86.9849 51.2868 86.99 36.3293 86.9888C35.5793 86.9893 34.8525 86.7289 34.2735 86.252C33.6945 85.7752 33.2996 85.1118 33.1563 84.3756C30.4988 70.7718 22.2299 28.3339 19.1031 10.6151C18.9905 9.97904 18.6574 9.40296 18.1623 8.98801C17.6672 8.57305 17.0418 8.34573 16.3958 8.34594C13.0366 8.34594 13.0136 8.34594 11.3373 8.34594C11.0298 8.34595 10.7253 8.28514 10.4413 8.16702C10.1574 8.0489 9.89963 7.8758 9.68285 7.65768C9.46606 7.43956 9.29455 7.18072 9.17818 6.89606C9.06181 6.6114 9.00287 6.30654 9.00477 5.99902C9.0071 5.58577 9.00982 5.17057 9.01215 4.7616C9.01585 4.1454 9.26323 3.5557 9.70026 3.12128C10.1373 2.68687 10.7285 2.44304 11.3447 2.44305C14.1912 2.44305 16.3562 2.44305 20.9225 2.43994C21.6941 2.43889 22.4415 2.70906 23.0341 3.20323C23.6267 3.6974 24.0268 4.38412 24.1644 5.14336C26.243 16.6825 29.8111 35.3517 32.9192 51.4548L84.2829 51.4494C84.899 51.4492 85.4901 51.6933 85.9265 52.1282C86.3628 52.5632 86.6089 53.1534 86.6108 53.7695L86.6162 55.0742C86.6177 55.3808 86.5586 55.6846 86.4423 55.9683C86.326 56.252 86.1548 56.5099 85.9385 56.7272C85.7223 56.9446 85.4652 57.117 85.1821 57.2347C84.8989 57.3524 84.5954 57.4129 84.2888 57.4129C71.024 57.4129 40.835 57.4156 34.0707 57.416C35.4305 64.4273 36.6423 70.6435 37.5182 75.129Z" fill="#3F60AC"/>
<path d="M77.4249 90.2903C78.3795 90.0841 79.3733 90.1574 80.2873 90.5014C81.2013 90.8454 81.9968 91.4454 82.5786 92.2298C83.2554 93.1895 83.5629 94.3613 83.4445 95.5296C83.3262 96.698 82.7899 97.7843 81.9345 98.5887C81.319 99.1446 80.5858 99.554 79.7897 99.7864C78.9936 100.019 78.1553 100.068 77.3374 99.9307C76.2333 99.7511 75.23 99.1817 74.5097 98.3258C73.7893 97.4699 73.3995 96.3843 73.411 95.2656C73.3965 94.0988 73.7895 92.9634 74.5222 92.0551C75.2549 91.1468 76.2814 90.5224 77.4249 90.2895C77.6633 90.2299 77.9155 90.2643 78.1292 90.3856C78.343 90.5069 78.5018 90.7058 78.5729 90.9411C78.6362 91.1797 78.6034 91.4336 78.4815 91.6482C78.3596 91.8628 78.1583 92.021 77.9209 92.0887C77.6746 92.138 77.4324 92.2065 77.1967 92.2936C76.9323 92.3916 77.3569 92.2112 77.0863 92.3402C76.9973 92.383 76.9098 92.4273 76.8239 92.4751C76.674 92.5601 76.5297 92.6547 76.392 92.7582C75.8025 93.2487 75.4181 93.9421 75.3143 94.7019C75.1977 95.3949 75.3125 96.1069 75.6409 96.7281C75.8146 97.0411 76.0493 97.316 76.331 97.5367C76.6128 97.7574 76.936 97.9193 77.2814 98.013C77.374 98.039 77.4676 98.0616 77.5617 98.081C77.5757 98.0841 77.8782 98.1358 77.6749 98.1075C77.8141 98.1258 77.9543 98.137 78.0947 98.1409C78.1511 98.1409 78.8637 98.0865 78.8753 98.1094C78.8559 98.0705 78.6145 98.1572 78.7894 98.1199C78.8162 98.1144 78.8438 98.111 78.8711 98.1059C78.9749 98.0865 79.0775 98.0616 79.1793 98.034C79.6154 97.9262 80.0233 97.7266 80.3759 97.4483C80.7285 97.1701 81.0175 96.8197 81.2237 96.4207C81.4298 96.0216 81.5483 95.5832 81.5712 95.1346C81.5941 94.6861 81.5208 94.2378 81.3564 93.8198C81.1736 93.4122 80.9021 93.0506 80.5616 92.7613C80.2211 92.4721 79.8203 92.2626 79.3885 92.1482C79.0631 92.0531 78.7231 92.0182 78.3851 92.0452C78.2541 92.0491 78.1243 92.065 77.9932 92.0728C77.7989 92.0844 78.2078 92.0114 78.0492 92.0658C78.0074 92.076 77.9649 92.0834 77.9221 92.0879C77.6838 92.1473 77.4317 92.1127 77.2181 91.9914C77.0045 91.8702 76.8457 91.6714 76.7745 91.4364C76.7114 91.1982 76.7442 90.9449 76.8658 90.7306C76.9874 90.5164 77.1881 90.3583 77.4249 90.2903Z" fill="#211715"/>
<path d="M40.5847 90.2903C41.5393 90.0841 42.5331 90.1574 43.4471 90.5014C44.3611 90.8454 45.1566 91.4454 45.7384 92.2298C46.4154 93.1895 46.7231 94.3613 46.6049 95.5297C46.4867 96.6981 45.9505 97.7845 45.095 98.5891C44.4796 99.145 43.7464 99.5544 42.9503 99.7868C42.1542 100.019 41.3158 100.069 40.498 99.9311C39.3938 99.7515 38.3906 99.1821 37.6703 98.3262C36.9499 97.4703 36.5601 96.3846 36.5716 95.266C36.5571 94.0991 36.9501 92.9638 37.6828 92.0554C38.4155 91.1471 39.442 90.5228 40.5855 90.2899C40.8238 90.2303 41.076 90.2647 41.2897 90.3861C41.5033 90.5074 41.6621 90.7063 41.7331 90.9415C41.7966 91.18 41.7639 91.4339 41.642 91.6485C41.5201 91.8632 41.3189 92.0214 41.0815 92.0891C40.8351 92.1384 40.593 92.2069 40.3573 92.294C40.0925 92.3919 40.5174 92.2116 40.2465 92.3406C40.1578 92.3834 40.0704 92.4277 39.9844 92.4755C39.8346 92.5605 39.6903 92.655 39.5525 92.7585C38.9631 93.2492 38.5786 93.9425 38.4745 94.7023C38.3581 95.3953 38.473 96.1074 38.8015 96.7285C38.9752 97.0415 39.2099 97.3164 39.4916 97.5371C39.7734 97.7578 40.0966 97.9197 40.442 98.0134C40.5345 98.0394 40.6282 98.062 40.7223 98.0814C40.7363 98.0845 41.0388 98.1362 40.8354 98.1078C40.9747 98.1262 41.1149 98.1373 41.2553 98.1413C41.3117 98.1413 42.0239 98.0868 42.0359 98.1098C42.0165 98.0709 41.7747 98.1576 41.95 98.1203C41.9768 98.1148 42.0044 98.1113 42.0316 98.1063C42.1351 98.0868 42.2381 98.062 42.3399 98.0344C42.7759 97.9266 43.1839 97.727 43.5365 97.4487C43.8891 97.1705 44.1781 96.8201 44.3842 96.4211C44.5904 96.022 44.7089 95.5836 44.7318 95.135C44.7547 94.6865 44.6814 94.2382 44.517 93.8202C44.3342 93.4126 44.0626 93.051 43.7222 92.7617C43.3817 92.4725 42.9809 92.263 42.5491 92.1486C42.2237 92.0535 41.8836 92.0186 41.5457 92.0456C41.4143 92.0494 41.2844 92.0654 41.1538 92.0732C40.9594 92.0848 41.3684 92.0117 41.2098 92.0662C41.168 92.0763 41.1255 92.0837 41.0827 92.0883C40.8443 92.1476 40.5923 92.1131 40.3787 91.9918C40.1651 91.8706 40.0063 91.6718 39.9351 91.4368C39.8718 91.1987 39.9043 90.9452 40.0258 90.7309C40.1472 90.5166 40.3479 90.3584 40.5847 90.2903Z" fill="#211715"/>
<path d="M83.4339 50.5258C84.3183 46.0221 85.3236 41.5409 86.2718 37.0504C87.4731 31.3675 88.6883 25.6843 89.752 19.9734C89.8453 19.474 89.936 18.9738 90.0241 18.4728C90.0295 18.4105 90.0403 18.3487 90.0564 18.2882C90.091 18.1952 90.0299 18.1956 90.0645 18.2236C90.0575 18.2178 90.2507 18.5094 90.2437 18.4895C90.2663 18.5556 90.3604 18.4666 90.2406 18.4961C90.0713 18.5075 89.9012 18.4973 89.7345 18.4658L86.9689 18.3064C84.2079 18.1465 81.4468 17.987 78.6856 17.8279C71.1227 17.3919 63.5595 16.9643 55.9958 16.545C47.8785 16.0963 39.7582 15.6018 31.6328 15.3239C31.0216 15.3029 30.4101 15.285 29.7986 15.2772C28.5985 15.264 28.5954 13.398 29.7986 13.4112C33.4891 13.4501 37.185 13.6899 40.8685 13.8742C45.1329 14.0875 49.3963 14.3129 53.6586 14.5503C61.4244 14.9758 69.1893 15.4138 76.9533 15.8643C79.9579 16.0369 82.9625 16.2103 85.967 16.3844L89.0487 16.5609L90.1656 16.6251C91.1425 16.681 91.985 17.2859 91.9201 18.3546C91.8568 18.9222 91.7597 19.4855 91.6293 20.0415C91.522 20.6254 91.4122 21.2085 91.3 21.7909C91.0463 23.1126 90.7858 24.4325 90.5186 25.7504C89.8966 28.8314 89.2604 31.909 88.6102 34.9833C87.5485 40.0325 86.446 45.0735 85.4107 50.1282C85.3501 50.4252 85.2902 50.7226 85.2311 51.0203C85.1632 51.2576 85.005 51.4587 84.7904 51.5805C84.5758 51.7024 84.322 51.7352 84.0835 51.6719C83.8476 51.6019 83.648 51.4433 83.5265 51.2294C83.405 51.0154 83.3711 50.7627 83.4319 50.5243L83.4339 50.5258Z" fill="#211715"/>
<path d="M43.5252 46.612C42.5308 39.5561 41.4357 32.5145 40.2857 25.4823C40.0006 23.7342 39.7117 21.9865 39.4188 20.2391C39.3604 20.0008 39.3953 19.7492 39.5165 19.5358C39.6376 19.3224 39.8358 19.1635 40.0704 19.0915C40.3089 19.0277 40.563 19.0603 40.7778 19.1822C40.9926 19.3041 41.1508 19.5055 41.2184 19.7431C42.3321 26.4173 43.4094 33.098 44.4062 39.7909C44.7203 41.898 45.0262 44.0063 45.324 46.116C45.3815 46.3543 45.3461 46.6055 45.225 46.8187C45.1039 47.0318 44.9062 47.1909 44.6721 47.2636C44.4337 47.3274 44.1797 47.2948 43.9651 47.1728C43.7505 47.0509 43.5925 46.8495 43.5252 46.612Z" fill="#211715"/>
<path d="M77.4719 22.2337C76.437 28.3948 75.4344 34.5605 74.5092 40.7394C74.216 42.6933 73.931 44.6486 73.6539 46.6053C73.5867 46.8431 73.4285 47.0448 73.2137 47.1668C72.9988 47.2887 72.7445 47.3211 72.5059 47.2569C72.2709 47.1856 72.0722 47.0267 71.951 46.8132C71.8297 46.5996 71.7951 46.3476 71.8543 46.1093C72.7788 39.57 73.8012 33.0443 74.875 26.5291C75.138 24.9318 75.404 23.3347 75.6727 21.7377C75.7402 21.5002 75.8983 21.2987 76.113 21.1768C76.3278 21.0549 76.5818 21.0223 76.8203 21.0861C77.0558 21.1567 77.255 21.3154 77.3764 21.5292C77.4978 21.743 77.532 21.9954 77.4719 22.2337Z" fill="#211715"/>
<path d="M53.6781 46.3571C53.2115 39.5978 52.6863 32.8424 52.2008 26.0846C52.0712 24.2704 51.9437 22.4569 51.8182 20.644C51.8182 20.3965 51.9165 20.1592 52.0915 19.9842C52.2665 19.8092 52.5038 19.7109 52.7513 19.7109C52.9987 19.7109 53.236 19.8092 53.411 19.9842C53.586 20.1592 53.6843 20.3965 53.6843 20.644C54.1834 28.0074 54.7432 35.367 55.2817 42.7277C55.3703 43.9375 55.4601 45.1469 55.5437 46.3571C55.5415 46.6039 55.4425 46.8399 55.268 47.0144C55.0935 47.1889 54.8574 47.2879 54.6107 47.2901C54.3647 47.2855 54.1301 47.1857 53.9561 47.0117C53.7822 46.8377 53.6827 46.6031 53.6781 46.3571Z" fill="#211715"/>
<path d="M65.9495 21.3261C65.4721 28.4707 64.931 35.6117 64.4073 42.7532C64.3195 43.9545 64.2317 45.1559 64.1441 46.3574C64.1385 46.6031 64.0384 46.8371 63.8646 47.0109C63.6909 47.1847 63.4568 47.2848 63.2111 47.2904C62.9643 47.2883 62.7282 47.1893 62.5537 47.0148C62.3792 46.8403 62.2802 46.6042 62.2781 46.3574C62.7559 39.7147 63.2547 33.0735 63.7278 26.4305C63.8491 24.7293 63.9676 23.0278 64.0835 21.3261C64.089 21.0804 64.1891 20.8463 64.3629 20.6725C64.5367 20.4987 64.7708 20.3986 65.0165 20.3931C65.2633 20.3952 65.4994 20.4942 65.6739 20.6687C65.8484 20.8432 65.9474 21.0793 65.9495 21.3261Z" fill="#211715"/>
<path d="M78.9111 39.0388L47.7864 38.1373L38.9908 37.8826C37.7926 37.848 37.7876 35.982 38.9908 36.0166L69.6781 36.9057L78.9111 37.1728C80.1092 37.2074 80.1143 39.0738 78.9111 39.0388Z" fill="#211715"/>
<path d="M82.3803 30.2406C76.2333 29.9814 70.0869 29.7037 63.9412 29.4075C58.1023 29.1315 52.2636 28.8558 46.425 28.5806C43.0358 28.4251 39.6463 28.2753 36.2566 28.1312C35.0604 28.0807 35.0538 26.2146 36.2566 26.2652C42.1728 26.5153 48.0878 26.7833 54.0019 27.0691C59.9042 27.3488 65.807 27.6271 71.7101 27.9042C75.267 28.0669 78.8239 28.2237 82.3807 28.3746C83.5773 28.4251 83.5832 30.2915 82.3803 30.2406Z" fill="#211715"/>
<path d="M38.4178 74.8806C38.6842 76.2446 38.9506 77.6088 39.2171 78.9731L39.3625 79.7172C39.3761 79.7879 39.4546 79.9912 39.4285 80.0558C39.343 80.2684 39.1094 79.7296 39.0511 79.8451C39.1046 79.8404 39.1585 79.8404 39.212 79.8451C39.5802 79.8223 39.9494 79.8223 40.3176 79.8451H82.0321C82.9587 79.7871 83.8885 79.8061 84.8121 79.9018C85.4122 80.0109 85.9702 80.2849 86.4234 80.6933C86.8766 81.1016 87.2071 81.6281 87.3778 82.2138C87.5157 82.9012 87.5592 83.6042 87.5069 84.3033C87.5383 84.9459 87.4104 85.5863 87.1345 86.1674C86.8454 86.705 86.4139 87.1527 85.8873 87.4613C85.3606 87.7699 84.7591 87.9275 84.1488 87.9168C83.2687 87.9242 82.3882 87.9168 81.508 87.9168H68.1418H52.4838C47.4761 87.9168 42.4686 87.9168 37.4614 87.9168C36.2454 87.9168 35.0542 87.9343 34.0085 87.2081C33.5393 86.8819 33.1394 86.466 32.8316 85.9845C32.5239 85.5029 32.3145 84.9653 32.2155 84.4025C31.9768 83.1825 31.7387 81.9625 31.501 80.7423C30.8673 77.4946 30.235 74.2466 29.6039 70.9981C28.8295 67.0118 28.057 63.0251 27.2865 59.038C26.4398 54.6536 25.5959 50.2687 24.7549 45.8832C23.9139 41.4978 23.0785 37.1142 22.2486 32.7324C21.4915 28.7328 20.7414 24.7319 19.9981 20.7295C19.3986 17.4942 18.81 14.2571 18.2323 11.0179C18.0652 10.0892 17.4828 9.31129 16.4654 9.27553C15.4158 9.23898 14.3607 9.27553 13.3107 9.27553C12.7003 9.27553 12.0896 9.27553 11.4788 9.27553C10.8708 9.29237 10.2698 9.14318 9.74022 8.84398C9.21067 8.54479 8.77268 8.10691 8.47337 7.57743C8.18459 7.00574 8.04713 6.36959 8.07411 5.72967C8.01881 5.03552 8.08739 4.33706 8.27665 3.66693C8.50195 3.06095 8.89942 2.53401 9.42018 2.1509C9.94094 1.76779 10.5623 1.5452 11.2079 1.51049C12.1895 1.45218 13.1905 1.50621 14.1745 1.50582H17.421H19.3803C20.1342 1.46907 20.8898 1.49117 21.6402 1.57191C22.2397 1.67445 22.81 1.90501 23.3124 2.24789C23.8147 2.59077 24.2373 3.03792 24.5512 3.55885C25.118 4.49925 25.2004 5.65503 25.3929 6.714C25.595 7.82378 25.7982 8.93342 26.0024 10.0429C26.9572 15.2295 27.9277 20.4129 28.9138 25.5932C30.007 31.3637 31.1085 37.1323 32.2183 42.8991C32.7503 45.6679 33.2836 48.4365 33.818 51.2049L32.9184 50.5199L54.2515 50.5176L79.4305 50.5149C81.0835 50.5149 82.7633 50.4278 84.4144 50.518C84.9938 50.5451 85.5558 50.7247 86.0436 51.0387C86.5313 51.3528 86.9275 51.79 87.192 52.3063C87.4336 52.8204 87.5533 53.3832 87.5419 53.9511C87.5975 54.6232 87.5582 55.2998 87.4253 55.961C87.2665 56.5183 86.9632 57.0237 86.5461 57.4261C86.1291 57.8284 85.613 58.1133 85.0504 58.2519C84.264 58.369 83.4672 58.3995 82.6743 58.3429H77.8031H54.047H35.2374H34.0711L34.9707 57.1618C36.117 63.0676 37.2665 68.9724 38.4193 74.8763C38.4786 75.1147 38.4441 75.3667 38.3228 75.5803C38.2016 75.7939 38.0028 75.9528 37.7678 76.024C37.5292 76.0875 37.2752 76.0548 37.0606 75.9329C36.8459 75.811 36.6876 75.6098 36.6198 75.3724C35.4675 69.4685 34.3179 63.5636 33.1711 57.6579C33.1357 57.5195 33.1321 57.3749 33.1605 57.2349C33.189 57.0949 33.2487 56.9632 33.3353 56.8496C33.4218 56.736 33.533 56.6434 33.6604 56.5789C33.7879 56.5143 33.9283 56.4794 34.0711 56.4769H50.5544H74.0485H83.7675C84.522 56.4769 85.2688 56.4069 85.5919 55.5959C85.7793 55.1263 85.6805 54.5377 85.6786 54.044C85.7171 53.6474 85.6156 53.2498 85.3917 52.9201C84.8762 52.2518 84.0481 52.3794 83.3033 52.3794H80.8848L56.7399 52.3817L34.7572 52.384H32.9161C32.7123 52.3823 32.5145 52.3147 32.3523 52.1912C32.1902 52.0677 32.0723 51.8951 32.0165 51.699C29.87 40.579 27.7473 29.4545 25.6483 18.3254C25.2004 15.9348 24.7556 13.5438 24.3137 11.1524C24.11 10.0479 23.9073 8.94327 23.7056 7.83868C23.6149 7.34081 23.5242 6.84294 23.4335 6.34507C23.3779 5.83624 23.2723 5.33413 23.1182 4.84603C22.9372 4.41102 22.632 4.03895 22.2408 3.77624C21.8497 3.51353 21.3898 3.37181 20.9186 3.36875C19.5654 3.33765 18.2075 3.36875 16.8538 3.36875H13.7675H12.3967C11.9073 3.31668 11.4128 3.33751 10.9295 3.43056C9.80641 3.79172 9.89233 5.02447 9.93509 5.99208C9.97396 6.90644 10.6477 7.40172 11.5212 7.40638C13.0817 7.41416 14.6425 7.39899 16.203 7.40638C16.8368 7.38742 17.4653 7.5265 18.032 7.81107C18.5986 8.09563 19.0855 8.51675 19.4488 9.03644C19.9709 9.79724 20.0607 10.7081 20.2181 11.591C20.4913 13.1232 20.7682 14.6548 21.0489 16.1857C22.4795 24.0127 23.9476 31.8326 25.4531 39.6456C27.0657 48.0988 28.692 56.5494 30.332 64.9976C31.5434 71.2483 32.7595 77.4984 33.9805 83.7478C34.15 84.6155 34.4439 85.3673 35.2762 85.7973C36.1634 86.2553 37.3736 86.0492 38.34 86.0492C40.7355 86.0492 43.1311 86.0492 45.5266 86.0492H60.7993H75.3567H81.4497C82.3158 86.0492 83.1824 86.0519 84.0485 86.0492C84.8482 86.0469 85.5464 85.6255 85.6354 84.7741C85.698 84.1697 85.6969 83.5604 85.6319 82.9563C85.6056 82.7455 85.5329 82.5432 85.4191 82.3639C85.3054 82.1845 85.1533 82.0326 84.9738 81.9191C84.6296 81.7381 84.239 81.6649 83.8526 81.7087H49.8647C46.3162 81.7087 42.7571 81.7865 39.2093 81.7087C38.8809 81.7323 38.5537 81.6487 38.2769 81.4704C38 81.2921 37.7885 81.0289 37.6741 80.7201C37.5436 80.2429 37.444 79.7578 37.3759 79.2677L36.6155 75.3743C36.5561 75.1359 36.5907 74.8838 36.712 74.6702C36.8334 74.4566 37.0322 74.2978 37.2674 74.2267C37.5066 74.1625 37.7615 74.1952 37.9768 74.3176C38.1921 74.4399 38.3506 74.6422 38.4178 74.8806Z" fill="#211715"/>
<path d="M86.2178 12.2392C86.2199 11.5566 86.0154 10.8892 85.6312 10.325C85.4689 10.1159 85.2614 9.94628 85.0243 9.82874C84.7872 9.71119 84.5266 9.6488 84.262 9.64622C84.0588 9.6419 83.8623 9.57326 83.7007 9.45017C83.539 9.32709 83.4206 9.1559 83.3624 8.96123C83.245 8.51596 83.0352 8.10038 82.7467 7.74151C82.4581 7.38264 82.0973 7.08851 81.6876 6.87826C81.2779 6.66801 80.8285 6.54634 80.3687 6.52116C79.9089 6.49597 79.449 6.56785 79.0188 6.7321C78.7802 6.79559 78.5263 6.76289 78.3116 6.64104C78.0969 6.51919 77.9386 6.31792 77.8708 6.08054C77.8103 5.84204 77.8444 5.58938 77.9659 5.37541C78.0874 5.16145 78.2869 5.00276 78.5227 4.93254C79.1899 4.7066 79.8962 4.61954 80.5982 4.6767C81.3003 4.73387 81.9832 4.93405 82.605 5.26494C83.2268 5.59584 83.7743 6.05044 84.2139 6.6008C84.6535 7.15115 84.9759 7.78562 85.1612 8.46518L84.2616 7.78019C84.7791 7.79263 85.2885 7.91194 85.7578 8.13064C86.227 8.34934 86.646 8.6627 86.9883 9.05104C87.6918 9.96561 88.077 11.0851 88.0854 12.2388C88.0854 12.4863 87.9871 12.7236 87.8121 12.8986C87.6371 13.0736 87.3998 13.1719 87.1524 13.1719C86.9049 13.1719 86.6676 13.0736 86.4926 12.8986C86.3177 12.7236 86.2194 12.4863 86.2194 12.2388L86.2178 12.2392Z" fill="#211715"/>
</g>
<defs>
<clipPath id="clip0_874_2305">
<rect width="100" height="100" fill="white" transform="matrix(-1 0 0 1 100 0)"/>
</clipPath>
</defs>
</svg>
