<svg width="100" height="100" viewBox="0 0 100 100" fill="none" xmlns="http://www.w3.org/2000/svg">
<g clip-path="url(#clip0_879_2843)">
<path d="M58.4577 72.2849L54.2064 66.4276L47.4619 57.1351C44.7574 57.1351 42.1208 57.1351 40.3183 57.1351C39.7439 57.1351 39.1988 56.8795 38.829 56.4401C38.4591 56.0006 38.3015 55.421 38.3986 54.8551L39.2603 49.8403L35.4887 48.0088L32.4303 63.7994C32.3052 64.446 32.4754 65.1145 32.8944 65.6227C33.3133 66.131 33.9375 66.4276 34.5963 66.4276C35.4516 66.4276 36.4778 66.4276 37.6266 66.4276V95.2348C37.6266 97.8668 39.7603 100 42.3923 100C45.0242 100 47.1579 97.867 47.1579 95.2348V66.4276C47.843 66.4276 48.5305 66.4276 49.2155 66.4276V95.2348C49.2155 97.8668 51.3492 100 53.9812 100C56.6131 100 58.7468 97.867 58.7468 95.2348V82.3076C57.046 79.1899 56.9587 75.452 58.4577 72.2849Z" fill="#3F60AC"/>
<path d="M48.1867 16.4611C52.7323 16.4611 56.4173 12.7762 56.4173 8.23056C56.4173 3.68495 52.7323 0 48.1867 0C43.6411 0 39.9562 3.68495 39.9562 8.23056C39.9562 12.7762 43.6411 16.4611 48.1867 16.4611Z" fill="#3F60AC"/>
<path d="M53.9478 29.1999C55.0786 38.4433 54.6968 35.7782 55.6359 41.2439L58.9489 38.0149C58.3406 34.8743 58.5053 35.8863 58.2375 33.6967C58.9894 35.564 59.8115 37.5343 60.581 39.5221L51.2093 48.6559C49.6387 50.1868 49.6064 52.7011 51.1371 54.2718C52.6677 55.8422 55.182 55.8749 56.7529 54.3438L67.9802 43.4013C69.0948 42.3148 69.4721 40.6771 68.9449 39.2126C67.2553 34.5179 65.3495 30.3679 64.2489 27.1645C62.766 22.8496 60.4749 20.248 57.4216 19.396C55.3262 25.3098 55.1436 25.8251 53.9478 29.1999Z" fill="#3F60AC"/>
<path d="M63.4088 61.0412L61.7654 52.5566L59.1211 55.1338L63.4088 61.0412Z" fill="#3F60AC"/>
<path d="M75.0563 72.9491L74.9296 72.7749L75.0561 72.9491H75.0563Z" fill="#3F60AC"/>
<path d="M71.073 69.7384C69.3752 69.1278 67.4454 69.1105 65.6694 69.7954C65.6683 69.7958 65.6672 69.7961 65.6663 69.7965L56.4931 57.1582C54.968 57.8351 53.2059 57.8753 51.6253 57.2258L62.4456 72.1342C61.5559 73.2216 60.9364 74.6185 60.762 76.1376C60.4895 78.503 61.1778 80.1718 62.533 82.0389L75.0561 72.9493C74.2019 71.7708 73.216 70.5222 71.073 69.7384Z" fill="#3F60AC"/>
<path d="M80.9428 81.0593L76.8741 75.4536L64.351 84.5432L64.3508 84.543L68.4196 90.1489C68.4201 90.1493 68.4205 90.1498 68.4209 90.1504C69.5981 91.7653 74.209 89.2485 75.8687 88.1032C78.911 85.9987 81.9972 82.5123 80.9428 81.0593Z" fill="#3F60AC"/>
<path d="M47.2625 46.4767C48.2206 44.5037 47.3978 42.1275 45.4248 41.1694C45.4248 41.1694 35.689 36.3954 35.6689 36.3852C40.0767 29.1751 39.5437 30.0744 40.1399 28.9828L42.1186 31.7089L42.3976 29.4287C40.8358 25.0214 40.6512 24.5008 38.8533 19.4272C37.1922 19.9285 36.0155 20.9269 35.1123 22.0558C34.3317 23.0314 33.7609 24.092 33.2165 25.089L22.4461 10.2503C21.8168 9.38303 20.5715 9.15401 19.6691 9.80769C19.6685 9.80813 19.6678 9.80835 19.6674 9.80879C18.7783 10.4543 18.5804 11.6984 19.2259 12.5875L31.0131 28.8276C29.7146 30.9252 28.1247 33.3949 26.7922 35.4216C25.0294 38.1024 25.9517 40.5434 28.1037 41.5884L41.9552 48.3148C43.9291 49.2727 46.3046 48.4488 47.2625 46.4767Z" fill="#3F60AC"/>
<path d="M54.2489 19.0845H42.0156C42.6973 21.0079 44.6999 26.6589 45.4626 28.8114C47.541 28.8114 48.9427 28.8114 50.8019 28.8114C51.5676 26.6505 53.5833 20.9626 54.2489 19.0845Z" fill="#3F60AC"/>
</g>
<defs>
<clipPath id="clip0_879_2843">
<rect width="100" height="100" fill="white"/>
</clipPath>
</defs>
</svg>
