<svg width="12" height="12" viewBox="0 0 12 12" fill="none" xmlns="http://www.w3.org/2000/svg">
<path d="M0.252822 0.252016C0.332425 0.172136 0.427013 0.108755 0.531162 0.0655081C0.635311 0.0222615 0.746972 0 0.859743 0C0.972513 0 1.08418 0.0222615 1.18832 0.0655081C1.29247 0.108755 1.38706 0.172136 1.46666 0.252016L5.99929 4.78757L10.5348 0.252016C10.6957 0.0910483 10.914 0.000617628 11.1417 0.000617628C11.3693 0.000617628 11.5876 0.0910483 11.7486 0.252016C11.9096 0.412984 12 0.631303 12 0.858946C12 1.08659 11.9096 1.30491 11.7486 1.46588L7.2117 5.99857L11.7472 10.5341C11.9075 10.6955 11.9974 10.9136 11.9974 11.1411C11.9974 11.3685 11.9075 11.5867 11.7472 11.748C11.6676 11.8279 11.573 11.8912 11.4688 11.9345C11.3647 11.9777 11.253 12 11.1403 12C11.0275 12 10.9158 11.9777 10.8117 11.9345C10.7075 11.8912 10.6129 11.8279 10.5333 11.748L5.99929 7.211L1.46524 11.7466C1.30427 11.9075 1.08595 11.998 0.858315 11.998C0.630676 11.998 0.41236 11.9075 0.251394 11.7466C0.0904292 11.5856 0 11.3673 0 11.1396C0 10.912 0.0904292 10.6937 0.251394 10.5327L4.7883 5.99857L0.252822 1.46445C0.172943 1.38484 0.109564 1.29025 0.066318 1.1861C0.0230721 1.08195 0.000810326 0.970291 0.000810326 0.857518C0.000810326 0.744746 0.0230721 0.633083 0.066318 0.528932C0.109564 0.424781 0.172943 0.33162 0.252822 0.252016Z" fill="black"/>
</svg>
