<svg width="100" height="100" viewBox="0 0 100 100" fill="none" xmlns="http://www.w3.org/2000/svg">
<g clip-path="url(#clip0_879_2936)">
<path d="M73.3486 59.178L60.9231 31.9502C60.013 29.9621 58.2535 29.7463 56.1012 29.7463V54.6541V57.7832H60.5659V68.8764V74.008H39.437V68.8764V57.7832H43.9007V54.6541V29.7461C41.7296 29.7461 39.9738 29.9767 39.0761 31.95L26.654 59.1778C25.7946 61.0489 26.6208 63.2598 28.4938 64.1148C30.3857 64.9746 32.5803 64.1309 33.4284 62.2694L39.437 49.1123V54.6539C37.7073 54.6539 36.3091 56.0535 36.3091 57.783V74.0076C36.3091 75.7286 37.7013 77.1252 39.4271 77.1319V95.5263C39.4271 97.9973 41.4265 99.9997 43.9007 99.9997C46.3708 99.9997 48.3678 97.9973 48.3678 95.5263V77.1331H51.6355V95.5263C51.6355 97.9973 53.6311 99.9997 56.1014 99.9997C58.5766 99.9997 60.5721 97.9973 60.5721 95.5263V77.1319C62.302 77.125 63.6929 75.7286 63.6929 74.0076V57.783C63.6929 56.0533 62.2957 54.6539 60.5661 54.6539V49.1161L66.5698 62.2694C67.4218 64.1309 69.6166 64.9746 71.5095 64.1148C73.3808 63.258 74.203 61.0491 73.3486 59.178Z" fill="#3F60AC"/>
<path d="M52.978 29.7461H47.0247V42.321H52.978V29.7461Z" fill="#3F60AC"/>
<path d="M40.1849 12.9998V16.5853C40.1849 17.3314 40.7177 17.928 41.4126 18.0825C41.3547 18.5006 41.2864 18.9198 41.2864 19.3555C41.2864 24.1688 45.185 28.0683 50.0033 28.0683C54.8139 28.0683 58.716 24.1686 58.716 19.3555C58.716 18.9196 58.6468 18.5004 58.585 18.0825C59.2872 17.9318 59.8276 17.3352 59.8276 16.5853V12.9949C61.3162 11.8159 62.2076 10.0184 62.2076 8.10861C62.2076 4.33086 58.7905 1.27625 54.9673 1.92473C52.2818 -0.643823 47.711 -0.639999 45.0352 1.92674C41.2247 1.24546 37.7973 4.32905 37.7973 8.10861C37.7973 10.0202 38.6889 11.821 40.1849 12.9998ZM44.0623 4.96947C44.3712 4.96947 44.6943 5.02945 45.0539 5.15484C45.6879 5.36939 46.3879 5.16289 46.7935 4.6394C48.3712 2.61909 51.6279 2.61608 53.2142 4.6394C53.6272 5.16108 54.3232 5.36275 54.9514 5.15182C55.3086 5.02824 55.6341 4.96947 55.939 4.96947C57.6723 4.96947 59.0797 6.37713 59.0797 8.10861C59.0797 9.23007 58.485 10.2444 57.4871 10.8132C56.999 11.0926 56.6998 11.6112 56.6998 12.1708V15.0219H43.3082V12.172C43.3082 11.6112 43.0103 11.0914 42.522 10.8132C41.5181 10.2444 40.9222 9.23188 40.9222 8.10861C40.9217 6.37713 42.33 4.96947 44.0623 4.96947Z" fill="#3F60AC"/>
</g>
<defs>
<clipPath id="clip0_879_2936">
<rect width="100" height="100" fill="white"/>
</clipPath>
</defs>
</svg>
