<svg width="100" height="100" viewBox="0 0 100 100" fill="none" xmlns="http://www.w3.org/2000/svg">
<path d="M65.8368 46.1377L73.2001 48.1328L100 31.9111V25.9512L65.8368 46.1377Z" fill="#3F60AC"/>
<path d="M61.3442 44.9206L99.9992 22.0791V18.8891C99.9992 17.5891 99.5326 16.4074 98.7809 15.459L52.8259 42.614L61.3442 44.9206Z" fill="#3F60AC"/>
<path d="M93.6125 57.1149L46.6659 44.3999V51.2065L85.1692 61.8366L93.6125 57.1149Z" fill="#3F60AC"/>
<path d="M95.6098 13.4617C95.233 13.3801 94.8447 13.3334 94.4447 13.3334H86.6664V5.55507C86.6664 2.49335 84.1733 0 81.1116 0H65.5549C62.4932 0 59.9999 2.49335 59.9999 5.55507V13.3334H52.2216C49.1583 13.3334 46.6665 15.8267 46.6665 18.8884V30.9568L72.1848 16.6668H79.0065L46.6665 34.7767V40.9466L48.3331 41.3984L95.6098 13.4617ZM78.1366 13.3334H63.3333V5.55507C63.3333 4.33007 64.3299 3.33339 65.5549 3.33339H81.1116C82.3365 3.33339 83.3332 4.33007 83.3332 5.55507V13.3334H78.1366Z" fill="#3F60AC"/>
<path d="M62.8063 78.2482L62.713 78.2166L49.213 85.7681C50.0813 86.3314 51.1112 86.6663 52.2214 86.6663H59.9997V94.4447C59.9997 97.5064 62.493 99.9997 65.5563 99.9997H81.1114C84.1731 99.9997 86.6664 97.5064 86.6664 94.4447V86.6663H94.4447C97.508 86.6663 99.9998 84.173 99.9998 81.1113V69.2863L76.1198 83.333H69.5465L99.9998 65.4197V57.3613L62.8397 78.1464L62.8063 78.2482ZM63.3331 86.6665H63.8798H70.453H83.333V94.4448C83.333 95.6698 82.3364 96.6665 81.1114 96.6665H65.5563C64.3296 96.6665 63.3331 95.6698 63.3331 94.4448V86.6665Z" fill="#3F60AC"/>
<path d="M46.6665 69.3544L62.3715 74.5893L69.4266 70.6427L46.6665 64.3677V69.3544Z" fill="#3F60AC"/>
<path d="M81.0299 64.1528L46.6667 54.6646V60.9112L73.5666 68.3278L81.0299 64.1528Z" fill="#3F60AC"/>
<path d="M99.9992 35.8071L77.6459 49.3372L85.0627 51.3454L99.9992 42.2772V35.8071Z" fill="#3F60AC"/>
<path d="M97.7731 54.788L99.9998 53.543V46.1763L89.5031 52.5479L97.7731 54.788Z" fill="#3F60AC"/>
<path d="M46.6665 72.8682V81.1115C46.6665 81.8314 46.8147 82.5166 47.0665 83.1498L58.4348 76.7914L46.6665 72.8682Z" fill="#3F60AC"/>
<path d="M43.3333 1.6666C43.3333 0.746678 42.5866 0 41.6667 0C40.7468 0 40.0001 0.746678 40.0001 1.6666C40.0001 6.66151 36.3152 10.8015 31.5218 11.5383L31.6667 9.99998C31.6667 4.48495 27.1818 0 21.6668 0C16.1517 0 11.6668 4.48495 11.6734 10.1566L11.8168 11.6666H10C4.48497 11.6666 1.52588e-05 16.1515 1.52588e-05 21.6666C1.52588e-05 27.1816 4.48497 31.6665 10 31.6665H13.7033L16.5334 61.6665H10C4.48497 61.6665 1.52588e-05 66.1514 1.52588e-05 71.6665C1.52588e-05 77.1815 4.48497 81.6664 10 81.6664H18.4199L20.0066 98.4896C20.0883 99.3447 20.8066 99.9996 21.6666 99.9996C22.5265 99.9996 23.2449 99.3445 23.3265 98.4896L24.9115 81.6664H36.6665C37.5865 81.6664 38.3331 80.9198 38.3331 79.9998C38.3331 79.0799 37.5865 78.3332 36.6665 78.3332H25.225L27.2683 56.6667H33.3333C38.8484 56.6667 43.3333 52.1817 43.3333 46.6667C43.3333 41.1517 38.8484 36.6667 33.3333 36.6667H29.1533L31.2015 14.94C37.9915 14.3283 43.3333 8.61326 43.3333 1.6666ZM10 28.3331C6.32324 28.3331 3.33341 25.3431 3.33341 21.6666C3.33341 17.99 6.32324 14.9998 10 14.9998H12.1316L13.3883 28.3331H10ZM10 78.333C6.32324 78.333 3.33341 75.343 3.33341 71.6665C3.33341 67.9899 6.32324 64.9997 10 64.9997H16.8482L18.1049 78.333H10ZM23.3334 16.6666C23.3334 17.5865 22.5867 18.3332 21.6668 18.3332C20.7468 18.3332 20.0002 17.5865 20.0002 16.6666V9.99979C20.0002 9.07987 20.7468 8.33319 21.6668 8.33319C22.5867 8.33319 23.3334 9.07987 23.3334 9.99979V16.6666ZM33.3333 39.9997C37.0101 39.9997 39.9999 42.9898 39.9999 46.6663C39.9999 50.3429 37.0099 53.3329 33.3333 53.3329H27.5816L28.8382 39.9995H33.3333V39.9997Z" fill="#3F60AC"/>
</svg>
