<svg width="190" height="48" viewBox="0 0 190 48" fill="none" xmlns="http://www.w3.org/2000/svg">
<line x1="1.5" y1="2.47949" x2="1.5" y2="46.4999" stroke="#A5B6DE" stroke-width="3" stroke-linecap="round"/>
<line x1="45.5" y1="2.47949" x2="45.5" y2="46.4999" stroke="#A5B6DE" stroke-width="3" stroke-linecap="round"/>
<line x1="89.5" y1="2.47949" x2="89.5" y2="46.4999" stroke="#A5B6DE" stroke-width="3" stroke-linecap="round"/>
<line x1="133.5" y1="2.47949" x2="133.5" y2="46.4999" stroke="#A5B6DE" stroke-width="3" stroke-linecap="round"/>
<line x1="23.5" y1="14.2349" x2="23.5" y2="34.7451" stroke="#A5B6DE" stroke-width="3" stroke-linecap="round"/>
<line x1="67.5" y1="14.2349" x2="67.5" y2="34.7451" stroke="#A5B6DE" stroke-width="3" stroke-linecap="round"/>
<line x1="111.5" y1="14.2349" x2="111.5" y2="34.7451" stroke="#A5B6DE" stroke-width="3" stroke-linecap="round"/>
<line x1="155.5" y1="14.2349" x2="155.5" y2="34.7451" stroke="#A5B6DE" stroke-width="3" stroke-linecap="round"/>
<line x1="12.5" y1="14.2349" x2="12.5" y2="34.7451" stroke="#A5B6DE" stroke-width="3" stroke-linecap="round"/>
<line x1="56.5" y1="14.2349" x2="56.5" y2="34.7451" stroke="#A5B6DE" stroke-width="3" stroke-linecap="round"/>
<line x1="177.5" y1="13.2549" x2="177.5" y2="33.7651" stroke="#A5B6DE" stroke-width="3" stroke-linecap="round"/>
<line x1="100.5" y1="14.2349" x2="100.5" y2="34.7451" stroke="#A5B6DE" stroke-width="3" stroke-linecap="round"/>
<line x1="144.5" y1="14.2349" x2="144.5" y2="34.7451" stroke="#A5B6DE" stroke-width="3" stroke-linecap="round"/>
<line x1="34.5" y1="14.2349" x2="34.5" y2="34.7451" stroke="#A5B6DE" stroke-width="3" stroke-linecap="round"/>
<line x1="78.5" y1="2.47949" x2="78.5" y2="46.4999" stroke="#A5B6DE" stroke-width="3" stroke-linecap="round"/>
<line x1="188.5" y1="1.5" x2="188.5" y2="45.5204" stroke="#A5B6DE" stroke-width="3" stroke-linecap="round"/>
<line x1="122.5" y1="14.2349" x2="122.5" y2="34.7451" stroke="#A5B6DE" stroke-width="3" stroke-linecap="round"/>
<line x1="166.5" y1="2.47949" x2="166.5" y2="46.4999" stroke="#A5B6DE" stroke-width="3" stroke-linecap="round"/>
</svg>
