<svg width="16" height="16" viewBox="0 0 16 16" fill="none" xmlns="http://www.w3.org/2000/svg">
<path d="M5.35298 4.92626L7.53616 0.311114C7.57817 0.218236 7.6438 0.139821 7.72557 0.0848124C7.80734 0.0298039 7.90196 0.000415966 7.99863 0C8.09571 2.03529e-05 8.19081 0.029216 8.27305 0.0842411C8.35528 0.139266 8.42132 0.217894 8.4636 0.311114L10.6468 4.92626L15.5448 5.66938C15.6669 5.68971 15.7788 5.75443 15.8614 5.85258C15.944 5.95073 15.9923 6.0763 15.9981 6.20805C16.005 6.29571 15.9933 6.3839 15.9638 6.46607C15.9344 6.54824 15.888 6.62229 15.8281 6.68272L12.305 10.2623L13.1349 15.3077C13.2133 15.7797 12.775 16.1504 12.3892 15.9388L7.9978 13.5326L3.60977 15.9388C3.56389 15.9642 3.51475 15.9821 3.46394 15.9921C3.1223 16.0561 2.79566 15.721 2.86398 15.3077L3.69393 10.2623L0.17167 6.68272C0.116939 6.62739 0.0734576 6.56065 0.043928 6.48664C0.0143984 6.41263 -0.000548715 6.33293 1.53921e-05 6.25249C-0.000131281 6.13891 0.0292932 6.02751 0.0850095 5.93071C0.124424 5.8604 0.178125 5.80043 0.242157 5.7552C0.306188 5.70997 0.378917 5.68064 0.454984 5.66938L5.35298 4.92626ZM7.99863 12.2952C8.07918 12.2952 8.15858 12.3156 8.23028 12.3548L11.9159 14.3752L11.2226 10.1547C11.2061 10.0577 11.2122 9.95782 11.2404 9.86389C11.2686 9.76996 11.318 9.68486 11.3842 9.61608L14.2907 6.66139L10.2393 6.04627C10.1554 6.03286 10.0758 5.99796 10.0073 5.94455C9.93879 5.89114 9.88345 5.82082 9.846 5.7396L7.99946 1.83735L7.99863 1.8409V12.2952Z" fill="#FBB954"/>
</svg>
