<svg width="40" height="40" viewBox="0 0 40 40" fill="none" xmlns="http://www.w3.org/2000/svg">
<path d="M15 36.6668H25C33.3334 36.6668 36.6667 33.3335 36.6667 25.0002V15.0002C36.6667 6.66683 33.3334 3.3335 25 3.3335H15C6.66671 3.3335 3.33337 6.66683 3.33337 15.0002V25.0002C3.33337 33.3335 6.66671 36.6668 15 36.6668Z" stroke="#3F60AC" stroke-width="2" stroke-linecap="round" stroke-linejoin="round"/>
<path d="M15 16.6667C16.841 16.6667 18.3333 15.1743 18.3333 13.3333C18.3333 11.4924 16.841 10 15 10C13.159 10 11.6666 11.4924 11.6666 13.3333C11.6666 15.1743 13.159 16.6667 15 16.6667Z" stroke="#3F60AC" stroke-width="2" stroke-linecap="round" stroke-linejoin="round"/>
<path d="M4.45007 31.5836L12.6667 26.0669C13.9834 25.1836 15.8834 25.2836 17.0667 26.3003L17.6167 26.7836C18.9167 27.9003 21.0167 27.9003 22.3167 26.7836L29.25 20.8336C30.55 19.7169 32.65 19.7169 33.95 20.8336L36.6667 23.1669" stroke="#3F60AC" stroke-width="2" stroke-linecap="round" stroke-linejoin="round"/>
</svg>
