<svg width="24" height="26" viewBox="0 0 24 26" fill="none" xmlns="http://www.w3.org/2000/svg">
<path fill-rule="evenodd" clip-rule="evenodd" d="M11.9995 0C10.8166 0 8.8409 0.430625 6.98086 0.91C5.31879 1.34252 3.66826 1.81391 2.03076 2.32375C1.55923 2.47161 1.14127 2.74256 0.824882 3.10546C0.508495 3.46836 0.306519 3.9085 0.242156 4.37531C-0.780722 11.6499 1.59075 17.0422 4.46795 20.6091C5.68773 22.1345 7.14204 23.4779 8.78232 24.5944C9.44377 25.0385 10.0581 25.3784 10.5795 25.61C11.0595 25.8253 11.5752 26 11.9995 26C12.4253 26 12.9395 25.824 13.421 25.61C14.0496 25.3216 14.6496 24.9817 15.2182 24.5944C16.8584 23.4779 18.3128 22.1345 19.5325 20.6091C22.4097 17.0422 24.7798 11.6499 23.7583 4.37531C23.6938 3.9082 23.4916 3.46781 23.175 3.10469C22.8583 2.74157 22.4401 2.47043 21.9683 2.3224C20.331 1.81346 18.681 1.34207 17.0196 0.908646C15.1596 0.433333 13.1824 0 11.9995 0ZM15.6782 8.36333C15.8392 8.2107 16.0576 8.12494 16.2853 8.12494C16.5131 8.12494 16.7315 8.2107 16.8925 8.36333C17.0535 8.51597 17.144 8.72299 17.144 8.93885C17.144 9.15472 17.0535 9.36174 16.8925 9.51437L11.7495 14.3894C11.6699 14.4651 11.5753 14.5252 11.4711 14.5662C11.3669 14.6072 11.2552 14.6283 11.1424 14.6283C11.0296 14.6283 10.9179 14.6072 10.8137 14.5662C10.7095 14.5252 10.6148 14.4651 10.5352 14.3894L7.96374 11.9519C7.884 11.8763 7.82076 11.7866 7.7776 11.6878C7.73445 11.5891 7.71224 11.4832 7.71224 11.3764C7.71224 11.2695 7.73445 11.1636 7.7776 11.0649C7.82076 10.9661 7.884 10.8764 7.96374 10.8008C8.04347 10.7253 8.13813 10.6653 8.2423 10.6244C8.34648 10.5835 8.45813 10.5624 8.57089 10.5624C8.68365 10.5624 8.79531 10.5835 8.89948 10.6244C9.00366 10.6653 9.09831 10.7253 9.17805 10.8008L11.1424 12.6642L15.6782 8.36333Z" fill="#3F60AC"/>
</svg>
