<svg width="100" height="100" viewBox="0 0 100 100" fill="none" xmlns="http://www.w3.org/2000/svg">
<g clip-path="url(#clip0_879_2833)">
<path d="M61.001 39.4736H94.21C96.7129 39.4736 98.6633 41.6439 98.3965 44.1328L92.983 94.6592C92.7537 96.7988 90.9482 98.4211 88.7965 98.4211H61.001V39.4736Z" fill="#674F99"/>
<path d="M77.3683 62.6314V37.3682H85.7894C86.9521 37.3682 87.8947 38.3107 87.8947 39.4734V52.1051C87.8947 57.9186 83.1818 62.6314 77.3683 62.6314Z" fill="#9CB1E0"/>
<path d="M68.9473 98.4213H10C5.34923 98.4213 1.57892 94.651 1.57892 90.0002V5.78965C1.57892 3.46426 3.46388 1.5791 5.78947 1.5791H73.1578C75.4832 1.5791 77.3684 3.46406 77.3684 5.78965V90.0002C77.3684 94.651 73.5981 98.4213 68.9473 98.4213Z" fill="#3F60AC"/>
<path d="M77.3684 5.78965V18.4213H1.57892V5.78965C1.57892 3.46426 3.46388 1.5791 5.78947 1.5791H73.1578C75.4834 1.5791 77.3684 3.46426 77.3684 5.78965Z" fill="#E5E5E5"/>
<path d="M30 24.7369H1.57892V10H30C34.0695 10 37.3684 13.299 37.3684 17.3684C37.3684 21.4379 34.0695 24.7369 30 24.7369ZM52.1053 16.3158C52.1053 13.9904 50.2203 12.1053 47.8947 12.1053C45.5693 12.1053 43.6842 13.9902 43.6842 16.3158C43.6842 18.6412 45.5692 20.5264 47.8947 20.5264C50.2201 20.5264 52.1053 18.6412 52.1053 16.3158ZM66.8422 16.3158C66.8422 13.9904 64.9572 12.1053 62.6317 12.1053C60.3063 12.1053 58.4211 13.9902 58.4211 16.3158C58.4211 18.6412 60.3061 20.5264 62.6317 20.5264C64.9571 20.5264 66.8422 18.6412 66.8422 16.3158ZM68.9473 60.5264C68.9473 44.2484 55.7516 31.0527 39.4736 31.0527C23.1957 31.0527 10 44.2484 10 60.5264C10 76.8043 23.1957 90 39.4736 90C55.7516 90 68.9473 76.8043 68.9473 60.5264Z" fill="#3D7EAA"/>
<path d="M12.1053 18.4211H1.57892V10H12.1053H30C34.0695 10 37.3684 13.299 37.3684 17.3684C37.3684 17.7258 37.3414 18.077 37.2924 18.4209H30L12.1053 18.4211Z" fill="#C1C1C1"/>
<path d="M39.4736 81.5787C27.8467 81.5787 18.4211 72.1529 18.4211 60.5262C18.4211 48.8994 27.8467 39.4736 39.4736 39.4736C51.1006 39.4736 60.5262 48.8994 60.5262 60.5262C60.5262 72.1529 51.1006 81.5787 39.4736 81.5787Z" fill="#A2CCDB"/>
<path d="M60.5264 60.5266C60.5264 72.1535 51.1008 81.5791 39.4738 81.5791C36.4795 81.5791 33.6316 80.9525 31.0527 79.8256C38.4877 76.5768 43.6844 69.159 43.6844 60.5264C43.6844 51.8938 38.4877 44.476 31.0527 41.2271C33.6316 40.1002 36.4795 39.4736 39.4738 39.4736C51.1006 39.4738 60.5264 48.8994 60.5264 60.5266Z" fill="#B5E1F4"/>
<path d="M37.8947 47.8947C37.8947 47.0225 38.6018 46.3158 39.4736 46.3158C47.3094 46.3158 53.6842 52.6906 53.6842 60.5264C53.6842 61.3986 52.9771 62.1053 52.1053 62.1053C51.2334 62.1053 50.5264 61.3986 50.5264 60.5264C50.5264 54.432 45.5684 49.4738 39.4738 49.4738C38.6018 49.4736 37.8947 48.767 37.8947 47.8947ZM16.8422 60.5264C16.8422 48.0475 26.9945 37.8947 39.4738 37.8947C51.9531 37.8947 62.1055 48.0473 62.1055 60.5264C62.1055 73.0055 51.9531 83.158 39.4738 83.158C26.9945 83.158 16.8422 73.0053 16.8422 60.5264ZM20 60.5264C20 71.2643 28.7357 80 39.4736 80C50.2115 80 58.9473 71.2643 58.9473 60.5264C58.9473 49.7885 50.2115 41.0527 39.4736 41.0527C28.7357 41.0527 20 49.7885 20 60.5264ZM70.5264 60.5264C70.5264 43.4039 56.5963 29.4738 39.4738 29.4738C31.9547 29.4738 24.6998 32.1961 19.0449 37.1393C13.4447 42.035 9.7834 48.766 8.73535 56.0924C8.61191 56.9555 9.21152 57.7553 10.0748 57.8789C10.9377 58 11.7379 57.4025 11.8613 56.5393C13.8111 42.9098 25.6818 32.6316 39.4738 32.6316C54.8551 32.6316 67.3686 45.1451 67.3686 60.5264C67.3686 75.9076 54.8551 88.4211 39.4738 88.4211C24.8963 88.4211 12.6742 77.0443 11.6492 62.5205C11.5879 61.6506 10.8324 60.9969 9.96309 61.0566C9.09316 61.1182 8.43789 61.873 8.49902 62.743C9.05098 70.5637 12.518 77.8305 18.2611 83.2047C24.0322 88.6049 31.5658 91.5789 39.4738 91.5789C56.5963 91.5789 70.5264 77.6488 70.5264 60.5264ZM39.4736 74.7369C40.3457 74.7369 41.0525 74.0303 41.0525 73.158C41.0525 72.2857 40.3455 71.5791 39.4736 71.5791C33.3791 71.5791 28.4211 66.6207 28.4211 60.5266C28.4211 59.6543 27.7141 58.9477 26.8422 58.9477C25.9701 58.9477 25.2633 59.6543 25.2633 60.5266C25.2631 68.3621 31.6379 74.7369 39.4736 74.7369ZM100 98.4211C100 99.2934 99.293 100 98.4211 100H85.7895C84.9174 100 84.2105 99.2934 84.2105 98.4211C84.2105 97.5488 84.9176 96.8422 85.7895 96.8422H88.7967C90.1447 96.8422 91.2697 95.8313 91.4133 94.491L96.8268 43.9646C96.9074 43.2125 96.6732 42.4881 96.1676 41.9252C95.6619 41.3623 94.9668 41.0523 94.2102 41.0523H89.4738V52.1049C89.4738 58.2449 84.8793 63.3316 78.9475 64.1076V90C78.9475 92.6443 77.9158 95.052 76.234 96.8422H79.4738C80.3459 96.8422 81.0527 97.5488 81.0527 98.4211C81.0527 99.2934 80.3457 100 79.4736 100H20.5264C19.6543 100 18.9475 99.2934 18.9475 98.4211C18.9475 97.5488 19.6545 96.8422 20.5264 96.8422H68.9473C72.7199 96.8422 75.7895 93.7729 75.7895 90V50C75.7895 49.1277 76.4965 48.4211 77.3684 48.4211C78.2404 48.4211 78.9473 49.1277 78.9473 50V60.9131C83.1305 60.165 86.3156 56.5002 86.3156 52.1053V39.4736C86.3156 39.1834 86.0795 38.9473 85.7893 38.9473H78.9471V43.6842C78.9471 44.5564 78.24 45.2631 77.3682 45.2631C76.4961 45.2631 75.7893 44.5564 75.7893 43.6842V20H73.1576C72.2855 20 71.5787 19.2934 71.5787 18.4211C71.5787 17.5488 72.2857 16.8422 73.1576 16.8422H75.7893V5.78945C75.7893 4.33828 74.6088 3.15781 73.1576 3.15781H5.78945C4.33828 3.15781 3.15781 4.33828 3.15781 5.78945V8.42109H30C34.9336 8.42109 38.9475 12.4348 38.9475 17.3686C38.9475 22.3023 34.9338 26.316 30 26.316H3.15781V90C3.15781 93.7729 6.22734 96.8422 10 96.8422H14.2105C15.0826 96.8422 15.7895 97.5488 15.7895 98.4211C15.7895 99.2934 15.0826 100 14.2105 100H1.57891C0.707031 100 0 99.2934 0 98.4211C0 97.5488 0.707031 96.8422 1.57891 96.8422H2.71348C1.03164 95.052 0 92.6443 0 90V5.78945C0 2.59727 2.59707 0 5.78945 0H73.1578C76.3502 0 78.9473 2.59727 78.9473 5.78945V35.7895H85.7895C87.2562 35.7895 88.5256 36.6512 89.118 37.8947H94.2102C95.8506 37.8947 97.4203 38.5945 98.5164 39.8145C99.6129 41.0346 100.141 42.6697 99.9668 44.301L94.5533 94.8273C94.4758 95.5498 94.2689 96.2289 93.9568 96.842H98.4211C99.293 96.8422 100 97.5488 100 98.4211ZM3.15781 11.5789V23.1578H30C33.1924 23.1578 35.7895 20.5605 35.7895 17.3684C35.7895 14.1762 33.1924 11.5789 30 11.5789H3.15781ZM47.8947 22.1053C44.7023 22.1053 42.1053 19.508 42.1053 16.3158C42.1053 13.1236 44.7023 10.5264 47.8947 10.5264C51.0871 10.5264 53.6842 13.1236 53.6842 16.3158C53.6842 19.508 51.0871 22.1053 47.8947 22.1053ZM47.8947 18.9475C49.3459 18.9475 50.5264 17.767 50.5264 16.3158C50.5264 14.8646 49.3459 13.6842 47.8947 13.6842C46.4436 13.6842 45.2631 14.8646 45.2631 16.3158C45.2631 17.767 46.4436 18.9475 47.8947 18.9475ZM7.89473 20H28.9473C29.8193 20 30.5262 19.2934 30.5262 18.4211C30.5262 17.5488 29.8191 16.8422 28.9473 16.8422H7.89473C7.02266 16.8422 6.31582 17.5488 6.31582 18.4211C6.31582 19.2934 7.02266 20 7.89473 20ZM62.6316 22.1053C59.4393 22.1053 56.8422 19.508 56.8422 16.3158C56.8422 13.1236 59.4393 10.5264 62.6316 10.5264C65.824 10.5264 68.4211 13.1236 68.4211 16.3158C68.4211 19.508 65.824 22.1053 62.6316 22.1053ZM62.6316 18.9475C64.0828 18.9475 65.2633 17.767 65.2633 16.3158C65.2633 14.8646 64.0828 13.6842 62.6316 13.6842C61.1805 13.6842 60 14.8646 60 16.3158C60 17.767 61.1805 18.9475 62.6316 18.9475Z" fill="black"/>
</g>
<defs>
<clipPath id="clip0_879_2833">
<rect width="100" height="100" fill="white"/>
</clipPath>
</defs>
</svg>
