<svg width="100" height="100" viewBox="0 0 100 100" fill="none" xmlns="http://www.w3.org/2000/svg">
<g clip-path="url(#clip0_879_2855)">
<path d="M50.6604 27.4097C43.091 27.4097 36.9557 21.2736 36.9557 13.7044C36.9557 6.13602 43.091 0 50.6604 0C58.2294 0 64.3654 6.13602 64.3656 13.7044C64.3654 21.2734 58.2292 27.4097 50.6604 27.4097Z" fill="#3F60AC"/>
<path d="M10.9265 81.1445H32.4265C34.336 81.1445 35.8849 82.6914 35.8849 84.5997V96.5447C35.8849 98.4522 34.3366 99.9999 32.4265 99.9999H10.9265C9.01748 99.9999 7.46718 98.453 7.46718 96.5447V84.5997C7.46819 82.6918 9.01688 81.1445 10.9265 81.1445Z" fill="#3F60AC"/>
<path d="M34.1062 77.3271C26.4394 80.4935 20.1631 81.9825 15.3098 77.8461C10.1861 73.3652 9.72351 66.479 11.9094 59.9921L22.1648 31.0084C24.1678 24.9847 30.7458 22.7147 36.0756 23.1509L36.1189 23.1555C36.1189 23.1555 37.9883 23.3734 39.5724 23.8593C41.2249 24.37 42.6137 25.3442 42.6137 25.3442C43.7422 26.0557 44.8368 26.9571 45.8132 27.9972C46.8762 29.0334 47.9197 30.0666 48.911 31.0634C55.1108 37.2861 58.2839 40.4477 63.0169 39.1951C63.0169 39.1951 63.0585 39.1849 63.1346 39.1636L59.3903 36.3986C59.1792 36.2426 59.0404 36.0082 59.005 35.7485C58.9696 35.4885 59.0412 35.2253 59.203 35.0191L73.7207 16.5038C74.0507 16.0829 74.6587 16.008 75.0807 16.3366L78.7702 19.2082L83.238 14.041C83.4509 13.7947 83.773 13.6714 84.0957 13.7131C84.4185 13.7545 84.6988 13.9551 84.8428 14.2469L92.433 29.6672C92.6062 30.0193 92.5505 30.441 92.2915 30.736L78.7302 46.1923L76.975 48.2591C76.6831 48.6028 76.2004 48.6951 75.809 48.503C75.7571 48.4776 75.7066 48.4471 75.6587 48.4116L74.1139 47.2708C72.6913 48.0638 71.406 48.6752 70.2819 49.1436C66.8416 50.7809 63.7304 51.4786 60.8813 51.4786C55.5157 51.4786 51.0762 49.0223 47.0992 45.7778L42.7666 56.9535C50.1646 54.0799 56.8742 52.7316 61.8748 56.7024C69.2223 62.5314 75.3684 82.068 77.6696 90.1976C78.8159 94.2479 76.4636 98.4642 72.4108 99.611C71.7157 99.8066 71.0157 99.9042 70.3267 99.9042C67.0032 99.9042 63.9473 97.7118 62.9947 94.3549C60.041 83.9366 55.7241 73.1599 53.1764 69.5766C51.9426 69.8143 50.1629 70.4358 48.2495 71.1933C51.9171 76.3368 53.8328 80.863 57.7058 90.3853C59.1442 93.9225 57.4422 97.9527 53.9042 99.3943C53.0517 99.7418 52.1728 99.9042 51.303 99.9042C48.5726 99.9042 45.9855 98.2782 44.8941 95.5931C40.9521 85.9054 39.702 82.496 35.4795 76.7358L34.1062 77.3271ZM83.7483 16.4185L80.304 20.402L89.065 27.2199L83.7483 16.4185Z" fill="#3F60AC"/>
</g>
<defs>
<clipPath id="clip0_879_2855">
<rect width="100" height="100" fill="white" transform="matrix(-1 0 0 1 100 0)"/>
</clipPath>
</defs>
</svg>
