<svg width="10" height="14" viewBox="0 0 10 14" fill="none" xmlns="http://www.w3.org/2000/svg">
<path d="M5 14C5 14 10 9.0249 10 5.25C10 3.85761 9.47322 2.52226 8.53553 1.53769C7.59785 0.553123 6.32608 0 5 0C3.67392 0 2.40215 0.553123 1.46447 1.53769C0.526784 2.52226 0 3.85761 0 5.25C0 9.0249 5 14 5 14ZM5 7.875C4.6717 7.875 4.3466 7.8071 4.04329 7.67518C3.73998 7.54326 3.46438 7.34991 3.23223 7.10615C3.00009 6.8624 2.81594 6.57302 2.6903 6.25454C2.56466 5.93606 2.5 5.59472 2.5 5.25C2.5 4.90528 2.56466 4.56394 2.6903 4.24546C2.81594 3.92698 3.00009 3.6376 3.23223 3.39384C3.46438 3.15009 3.73998 2.95673 4.04329 2.82482C4.3466 2.6929 4.6717 2.625 5 2.625C5.66304 2.625 6.29893 2.90156 6.76777 3.39384C7.23661 3.88613 7.5 4.55381 7.5 5.25C7.5 5.94619 7.23661 6.61387 6.76777 7.10615C6.29893 7.59844 5.66304 7.875 5 7.875Z" fill="#888888"/>
</svg>
