<svg width="100" height="100" viewBox="0 0 100 100" fill="none" xmlns="http://www.w3.org/2000/svg">
<g clip-path="url(#clip0_879_2884)">
<path d="M49.99 81.0078H49.9633C48.8363 81.0078 47.9225 81.9215 47.9225 83.0486C47.9225 84.1758 48.8363 85.0894 49.9633 85.0894H49.99C51.1172 85.0894 52.0309 84.1758 52.0309 83.0486C52.0309 81.9215 51.117 81.0078 49.99 81.0078Z" fill="#3F60AC"/>
<path d="M50.0168 81.0078H49.99C48.8631 81.0078 47.9492 81.9215 47.9492 83.0486C47.9492 84.1758 48.8631 85.0894 49.99 85.0894H50.0168C51.1437 85.0894 52.0576 84.1758 52.0576 83.0486C52.0576 81.9215 51.1437 81.0078 50.0168 81.0078Z" fill="#3F60AC"/>
<path d="M97.9592 94.8301H97.9324C96.8055 94.8301 95.8916 95.7438 95.8916 96.8709C95.8916 97.998 96.8055 98.9117 97.9324 98.9117H97.9592C99.0861 98.9117 100 97.998 100 96.8709C100 95.7438 99.0861 94.8301 97.9592 94.8301Z" fill="#3F60AC"/>
<path d="M2.06758 94.8296H2.04082C0.913867 94.8296 0 95.7435 0 96.8706C0 97.9978 0.913867 98.9114 2.04082 98.9114H2.06758C3.19453 98.9114 4.1084 97.9978 4.1084 96.8706C4.1084 95.7435 3.19453 94.8296 2.06758 94.8296Z" fill="#3F60AC"/>
<path d="M42.5572 40.3398C41.2994 40.3398 40.2762 41.3631 40.2762 42.6211C40.2762 43.8789 41.2994 44.9021 42.5572 44.9021C43.8151 44.9021 44.8385 43.8789 44.8385 42.6211C44.8383 41.3631 43.8149 40.3398 42.5572 40.3398Z" fill="#3F60AC"/>
<path d="M57.4428 40.3398C56.185 40.3398 55.1615 41.3631 55.1615 42.6211C55.1615 43.8789 56.185 44.9021 57.4428 44.9021C58.7006 44.9021 59.7236 43.8789 59.7238 42.6211C59.7238 41.3631 58.7006 40.3398 57.4428 40.3398Z" fill="#3F60AC"/>
<path d="M51.9859 49.9551H47.9973C46.8703 49.9551 45.9565 50.8688 45.9565 51.9959C45.9565 54.2207 47.7664 56.0311 49.9914 56.0311C52.2164 56.0311 54.0266 54.2209 54.0268 51.9959C54.0268 50.8688 53.1129 49.9551 51.9859 49.9551Z" fill="#3F60AC"/>
<path d="M21.8752 33.8996L17.3853 25.9404C17.0234 25.299 16.3441 24.9023 15.6078 24.9023H6.62812C5.89179 24.9023 5.21249 25.299 4.85058 25.9404L0.360736 33.8996C0.00975952 34.5219 0.00975952 35.2826 0.360736 35.9049L4.85058 43.8641C5.21249 44.5055 5.89179 44.9021 6.62812 44.9021H15.6078C16.3441 44.9021 17.0232 44.5055 17.3853 43.8641L21.8752 35.9049C22.2262 35.2826 22.2262 34.5219 21.8752 33.8996ZM14.4156 40.8207H7.81972L4.48144 34.9023L7.81972 28.984H14.4156L17.7541 34.9023L14.4156 40.8207Z" fill="#3F60AC"/>
<path d="M11.118 30.3867C8.65958 30.3867 6.65958 32.4123 6.65958 34.9018C6.65958 37.3916 8.65958 39.417 11.118 39.417C13.5762 39.417 15.5764 37.3914 15.5766 34.9018C15.5766 32.4123 13.5764 30.3867 11.118 30.3867ZM11.118 35.3357C10.9102 35.3357 10.7412 35.141 10.7412 34.9021C10.7412 34.6631 10.9102 34.4688 11.118 34.4688C11.3258 34.4688 11.4949 34.6631 11.4949 34.9021C11.4949 35.1412 11.326 35.3357 11.118 35.3357Z" fill="#3F60AC"/>
<path d="M11.118 6.57324C8.65958 6.57324 6.65958 8.59883 6.65958 11.0883C6.65958 13.5781 8.65958 15.6035 11.118 15.6035C13.5762 15.6035 15.5764 13.5779 15.5766 11.0883C15.5766 8.59883 13.5764 6.57324 11.118 6.57324ZM11.118 11.5221C10.9102 11.5221 10.7412 11.3273 10.7412 11.0885C10.7412 10.8496 10.9102 10.6551 11.118 10.6551C11.3258 10.6551 11.4949 10.8494 11.4949 11.0885C11.4949 11.3275 11.326 11.5221 11.118 11.5221Z" fill="#3F60AC"/>
<path d="M21.8752 10.0856L17.3853 2.12646C17.0234 1.48506 16.3441 1.08838 15.6078 1.08838H6.62812C5.89179 1.08838 5.21249 1.48506 4.85058 2.12646L0.360736 10.0856C0.00975952 10.7079 0.00975952 11.4687 0.360736 12.0909L4.85058 20.0501C5.21249 20.6915 5.89179 21.0882 6.62812 21.0882H15.6078C16.3441 21.0882 17.0232 20.6915 17.3853 20.0501L21.8752 12.0909C22.2262 11.4687 22.2262 10.7079 21.8752 10.0856ZM14.4156 17.0065H7.81972L4.48144 11.0882L7.81972 5.16982H14.4156L17.7539 11.0882L14.4156 17.0065Z" fill="#3F60AC"/>
<path d="M16.1125 78.6323V59.5089C17.9195 57.9688 18.9697 55.7237 18.9697 53.3052C18.9697 50.8376 17.8703 48.5282 15.9531 46.9696C15.3682 46.494 14.5693 46.3798 13.8746 46.6718C13.1801 46.9636 12.7029 47.6145 12.6336 48.3651C12.5459 49.3134 11.7603 50.0284 10.8064 50.0284C9.85253 50.0284 9.06699 49.3134 8.97929 48.3651C8.90995 47.6147 8.43281 46.9637 7.73808 46.6716C7.04374 46.38 6.24453 46.494 5.65976 46.9696C3.74277 48.5284 2.64316 50.8376 2.64316 53.305C2.64316 55.7235 3.69335 57.9686 5.50038 59.5087V78.6321C3.69335 80.172 2.64316 82.4171 2.64316 84.8356C2.64316 87.303 3.74257 89.6122 5.65976 91.171C6.24472 91.6466 7.04355 91.7608 7.73808 91.469C8.43281 91.177 8.90995 90.5261 8.97929 89.7755C9.06699 88.8272 9.85253 88.1122 10.8064 88.1122C11.7603 88.1122 12.5459 88.8272 12.6336 89.7755C12.7029 90.5257 13.1801 91.1766 13.8746 91.4686C14.1295 91.5759 14.398 91.6282 14.6654 91.6282C15.1268 91.6282 15.5828 91.4721 15.9531 91.1712C17.8701 89.6126 18.9697 87.3032 18.9697 84.8356C18.9695 82.4173 17.9193 80.1723 16.1125 78.6323ZM12.9814 81.3827C14.1754 82.137 14.8879 83.4278 14.8879 84.8354C14.8879 85.0897 14.8646 85.3405 14.8189 85.5854C13.7639 84.6147 12.3539 84.0305 10.8062 84.0305C9.25859 84.0305 7.84863 84.6149 6.79355 85.5854C6.74785 85.3405 6.7246 85.0895 6.7246 84.8354C6.7246 83.4278 7.4373 82.137 8.63105 81.3827C9.22285 81.0087 9.58163 80.3573 9.58163 79.6573V58.4829C9.58163 57.7827 9.22285 57.1317 8.63105 56.7575C7.4371 56.003 6.7246 54.7122 6.7246 53.3046C6.7246 53.0505 6.74785 52.7997 6.79355 52.5548C7.84863 53.5255 9.25859 54.1096 10.8062 54.1096C12.3539 54.1096 13.7639 53.5253 14.8189 52.5548C14.8646 52.7995 14.8879 53.0503 14.8879 53.3046C14.8879 54.7124 14.1752 56.003 12.9814 56.7575C12.3896 57.1315 12.0309 57.7829 12.0309 58.4829V79.6573C12.0309 80.3577 12.3896 81.0087 12.9814 81.3827Z" fill="#3F60AC"/>
<path d="M76.3908 54.0078C75.1078 54.0078 74.0641 55.0516 74.0641 56.3344C74.0641 57.6172 75.1078 58.6609 76.3908 58.6609C77.6738 58.6609 78.7174 57.6172 78.7174 56.3344C78.7174 55.0514 77.6736 54.0078 76.3908 54.0078Z" fill="#3F60AC"/>
<path d="M76.3908 64.3193C75.1078 64.3193 74.0641 65.3631 74.0641 66.6461C74.0641 67.9289 75.1078 68.9727 76.3908 68.9727C77.6738 68.9727 78.7176 67.9287 78.7174 66.6461C78.7174 65.3631 77.6736 64.3193 76.3908 64.3193Z" fill="#3F60AC"/>
<path d="M71.2349 59.1636C69.9521 59.1636 68.9084 60.2073 68.9084 61.4901C68.9084 62.7729 69.9521 63.8167 71.2349 63.8167C72.5178 63.8167 73.5615 62.7729 73.5615 61.4901C73.5615 60.2073 72.5178 59.1636 71.2349 59.1636Z" fill="#3F60AC"/>
<path d="M81.5467 59.1636C80.2639 59.1636 79.2201 60.2073 79.2201 61.4901C79.2201 62.7729 80.2639 63.8167 81.5467 63.8167C82.8295 63.8167 83.8732 62.7729 83.8732 61.4901C83.8732 60.2073 82.8297 59.1636 81.5467 59.1636Z" fill="#3F60AC"/>
<path d="M93.6367 77.5996C97.7336 73.2153 99.99 67.4942 99.99 61.4904C99.99 48.4778 89.4035 37.8912 76.3908 37.8912C75.3883 37.8912 74.3828 37.9567 73.3871 38.0836C72.6041 37.1701 71.5775 36.4713 70.4082 36.0912V34.9492C72.3951 33.3281 73.4529 31.4381 73.459 29.4088C73.459 29.4059 73.4594 29.4033 73.4594 29.4006C73.4594 29.3998 73.4592 29.399 73.4592 29.3979C73.4592 29.3957 73.4594 29.3934 73.4594 29.3912C73.4594 29.3039 73.4394 18.6549 73.4394 18.6549C73.4394 18.5819 73.4353 18.5086 73.4275 18.436C73.0947 15.3528 71.0123 12.6297 67.857 11.152C67.8209 11.135 67.7844 11.1192 67.7472 11.1045L54.9639 5.90764C51.8451 4.46565 48.1355 4.46584 45.0168 5.90725L32.1951 11.1041C32.1576 11.119 32.1209 11.135 32.0844 11.1522C28.9545 12.6178 26.8863 15.341 26.5523 18.4362C26.5445 18.5088 26.5207 18.5834 26.5207 18.6567C26.5207 18.6567 26.5207 29.3041 26.5207 29.3918C26.5207 29.3942 26.5209 29.3963 26.5209 29.3985C26.5209 29.3992 26.5207 29.4 26.5207 29.4012C26.5207 29.4041 26.5211 29.4067 26.5211 29.4094C26.5271 31.4453 27.5924 33.3412 29.592 34.9656V36.0918C26.9418 36.9539 25.0207 39.4477 25.0207 42.3819C25.0207 45.316 26.9418 47.8098 29.592 48.6719V50.3662C29.592 50.418 29.5939 50.4701 29.5978 50.5217C29.8648 54.0123 31.6185 57.1492 34.2894 58.9133C34.3252 58.9369 34.3617 58.9594 34.3988 58.9809L39.7336 62.0397V65.2174C39.7336 65.7233 39.4318 66.1762 38.9648 66.3707L25.8305 71.8432C22.3932 73.2754 19.9926 77.0537 19.9926 81.0321V94.8311H8.66991C7.54296 94.8311 6.62909 95.7447 6.62909 96.8719C6.62909 97.999 7.54296 98.9127 8.66991 98.9127H91.3301C92.457 98.9127 93.3709 97.999 93.3709 96.8719C93.3709 95.7447 92.457 94.8311 91.3301 94.8311H80.0078V84.8135C85.2142 84.0113 89.9986 81.493 93.6367 77.5996ZM30.6223 18.7758C30.8357 17.1637 32.0039 15.7123 33.7691 14.8701L46.5978 9.67034C46.631 9.65686 46.664 9.64241 46.6965 9.62717C48.7283 8.67581 51.2519 8.676 53.2834 9.62717C53.3152 9.64202 53.3474 9.65627 53.3803 9.66956L66.1719 14.8698C67.9621 15.7233 69.1447 17.175 69.3578 18.776V27.3504H30.6223V18.7758ZM68.2398 31.4319C67.3715 32.2502 66.0402 33.0561 64.3652 33.7463C60.5588 35.3145 55.4535 36.1781 49.99 36.1781C44.5266 36.1781 39.4217 35.3145 35.6148 33.7463C33.9396 33.0561 32.6086 32.2502 31.7402 31.4319H68.2398ZM36.4898 55.4737C34.9318 54.4188 33.8588 52.4408 33.6734 50.2828V46.9524C33.6734 45.8252 32.7596 44.9115 31.6326 44.9115C30.2373 44.9115 29.1021 43.7762 29.1021 42.3811C29.1021 40.986 30.2375 39.8506 31.6326 39.8506C32.7596 39.8506 33.6734 38.9369 33.6734 37.8098V37.3567C33.801 37.4117 33.9295 37.4666 34.0603 37.5205C38.3484 39.2871 44.0057 40.26 49.9902 40.26C55.9748 40.26 61.6318 39.2871 65.9201 37.5205C66.0576 37.4639 66.1928 37.4063 66.3269 37.3483V37.81C66.3269 38.9371 67.2408 39.8508 68.3678 39.8508C69.7631 39.8508 70.8982 40.9862 70.8982 42.3813C70.8982 43.7764 69.7629 44.9117 68.3678 44.9117C67.2408 44.9117 66.3269 45.8254 66.3269 46.9526V50.2834C66.1392 52.4864 65.1041 54.417 63.5445 55.4733L52.5553 61.7555C52.5172 61.7772 52.4799 61.8002 52.4433 61.8242C50.9131 62.8346 49.0869 62.8346 47.5566 61.8242C47.5209 61.8006 47.4844 61.7781 47.4473 61.7567L36.4898 55.4737ZM64.2115 67.693L61.0353 66.3698C60.5681 66.175 60.2664 65.7225 60.2664 65.2164V62.0481L62.7441 60.6317C62.7265 60.9158 62.7174 61.2022 62.7174 61.4904C62.7174 63.7229 63.2586 65.8299 64.2115 67.693ZM56.1885 65.3156C54.7254 67.268 52.4549 68.4174 49.9898 68.4174C47.5369 68.4174 45.2742 67.2768 43.8105 65.3399C43.8113 65.2985 43.815 65.2576 43.815 65.2162V64.3787L45.3642 65.267C46.7971 66.1979 48.3984 66.6633 49.9998 66.6633C51.6008 66.6633 53.2015 66.1981 54.6342 65.2678L56.1849 64.3813V65.2162C56.1849 65.2498 56.1879 65.2824 56.1885 65.3156ZM28.4594 94.8301H24.074V81.0311C24.074 78.7307 25.5041 76.4 27.4002 75.61L28.4594 75.1686V94.8301ZM59.5818 94.8301H40.3982V92.3811H59.5818V94.8301ZM63.6635 94.8301V90.3402C63.6635 89.2131 62.7496 88.2994 61.6226 88.2994H38.3574C37.2305 88.2994 36.3166 89.2131 36.3166 90.3402V94.8301H32.541V73.468L36.3166 71.8949V83.0489C36.3166 84.176 37.2305 85.0897 38.3574 85.0897H43.3611C44.4881 85.0897 45.4019 84.176 45.4019 83.0489C45.4019 81.9217 44.4881 81.008 43.3611 81.008H40.3982V70.1944L40.5346 70.1377C41.0391 69.9276 41.498 69.6463 41.9027 69.3092C44.067 71.3422 46.933 72.4998 49.99 72.4998C53.0539 72.4998 55.9226 71.3393 58.0875 69.3004C58.4947 69.6414 58.9566 69.926 59.4652 70.1379L59.5816 70.1865V81.0086H56.6187C55.4918 81.0086 54.5779 81.9223 54.5779 83.0494C54.5779 84.1766 55.4918 85.0903 56.6187 85.0903H61.6224C62.7494 85.0903 63.6633 84.1766 63.6633 83.0494V71.8869L67.4389 73.46V94.8299L63.6635 94.8301ZM75.926 94.8301H71.5207V75.1604L72.5994 75.61C74.4959 76.4002 75.926 78.7309 75.926 81.0311V94.8301ZM66.799 61.4904C66.799 59.7613 67.2613 58.1391 68.0652 56.7365C68.3472 56.3721 68.6066 55.9867 68.8426 55.5826C70.6 53.342 73.3291 51.8983 76.391 51.8983C81.6801 51.8983 85.9828 56.2012 85.9828 61.4901C85.9828 66.7791 81.6799 71.0819 76.391 71.0819C71.1021 71.0819 66.799 66.7793 66.799 61.4904ZM80.0002 80.6729C79.9266 78.6324 79.2271 76.6625 78.0891 75.0547C84.8297 74.2154 90.0646 68.4547 90.0646 61.4904C90.0646 53.9508 83.9308 47.817 76.3912 47.817C74.2461 47.817 72.2172 48.317 70.4086 49.201V48.6707C73.0588 47.8086 74.9799 45.3149 74.9799 42.3807C74.9799 42.2625 74.9717 42.1461 74.9656 42.0295C75.4402 41.9949 75.916 41.9729 76.3912 41.9729C87.1531 41.9729 95.9088 50.7283 95.9088 61.4904C95.9084 70.9317 89.0787 78.9676 80.0002 80.6729Z" fill="#3F60AC"/>
</g>
<defs>
<clipPath id="clip0_879_2884">
<rect width="100" height="100" fill="white"/>
</clipPath>
</defs>
</svg>
