<svg width="100" height="100" viewBox="0 0 100 100" fill="none" xmlns="http://www.w3.org/2000/svg">
<g clip-path="url(#clip0_877_2402)">
<path d="M62.5217 58.9694V23.1962C62.5217 22.1713 61.6898 21.3394 60.6649 21.3394H1.85683C0.831936 21.3394 0 22.1713 0 23.1962V58.9726C0 59.9975 0.831936 60.8326 1.85683 60.8326H60.6649C61.6898 60.8326 62.5217 60.0007 62.5217 58.9694ZM48.4389 36.1434L51.3396 31.1138C51.6307 30.614 52.3487 30.614 52.6334 31.1138L55.5404 36.1434C55.8315 36.6432 55.474 37.2695 54.892 37.2695H53.6741V46.6486C53.6741 47.0629 53.3357 47.3983 52.9276 47.3983H51.0486C50.6342 47.3983 50.2989 47.0629 50.2989 46.6486V37.2695H49.0811C48.5117 37.2695 48.1511 36.64 48.4389 36.1434ZM37.1999 36.1434L40.1069 31.1138C40.3916 30.614 41.1128 30.614 41.4039 31.1138L44.3077 36.1434C44.5987 36.6432 44.235 37.2695 43.6561 37.2695H42.4382V46.6486C42.4382 47.0629 42.1061 47.3983 41.6885 47.3983H39.8127C39.4015 47.3983 39.0662 47.0629 39.0662 46.6486V37.2695H37.8452C37.2695 37.2695 36.912 36.64 37.1999 36.1434ZM24.6766 50.2041C24.8727 50.2452 25.0087 50.4128 25.0087 50.6121V51.5168C25.0087 51.7762 24.7999 51.9818 24.5405 51.9818H10.7076C10.4799 51.9818 10.2901 51.7952 10.2901 51.5674V50.6121C10.2901 50.416 10.4293 50.242 10.6222 50.2041L15.5094 49.214V45.1239C11.5649 44.1622 8.62936 40.6289 8.62936 36.3901C8.62936 34.1063 9.50558 32.0438 10.9037 30.459H24.3919C25.79 32.047 26.6694 34.1094 26.6694 36.3901C26.6694 40.6289 23.7307 44.1622 19.7893 45.1239V49.214L24.6766 50.2041ZM56.9702 51.6307C56.9702 51.8331 56.8026 52.004 56.597 52.004H35.9219C35.7163 52.004 35.5455 51.8331 35.5455 51.6307V50.5077C35.5455 50.3053 35.7132 50.1376 35.9219 50.1376H56.597C56.8026 50.1376 56.9702 50.3021 56.9702 50.5077V51.6307Z" fill="#3F60AC"/>
<path d="M98.8138 63.8505H95.9162V47.6831C95.9162 45.7851 95.35 43.9283 94.284 42.3561L87.0401 31.6264C85.2719 29.004 82.3174 27.4351 79.1541 27.4351H67.9182C66.6055 27.4351 65.5363 28.4979 65.5363 29.8138V61.9905C65.5363 63.0154 64.7012 63.8505 63.6795 63.8505H47.142C48.8849 65.3562 50.087 67.4597 50.4349 69.8417H69.8352C70.5216 65.1158 74.5864 61.4717 79.5084 61.4717C84.4241 61.4717 88.4857 65.1126 89.1753 69.8417H98.8138C99.4685 69.8417 100 69.3071 100 68.6523V65.043C100 64.3882 99.4685 63.8505 98.8138 63.8505ZM86.9515 44.504H72.1254C71.4674 44.504 70.9391 43.9726 70.9391 43.3146V35.0838C70.9391 34.4259 71.4674 33.8944 72.1254 33.8944H81.1533C81.5424 33.8944 81.9062 34.0811 82.1307 34.3974L87.9227 42.6282C88.4826 43.419 87.9227 44.504 86.9515 44.504Z" fill="#3F60AC"/>
<path d="M79.5085 63.8506C75.4184 63.8506 72.1064 67.1688 72.1064 71.2621C72.1064 75.349 75.4184 78.6641 79.5085 78.6641C83.5986 78.6641 86.9136 75.349 86.9136 71.2621C86.9105 67.1688 83.5954 63.8506 79.5085 63.8506ZM79.5085 74.9599C77.465 74.9599 75.8075 73.3056 75.8075 71.2621C75.8075 69.2155 77.4618 67.5579 79.5085 67.5579C81.5551 67.5579 83.2126 69.2123 83.2126 71.2621C83.2095 73.3024 81.5456 74.9599 79.5085 74.9599Z" fill="#3F60AC"/>
<path d="M17.7964 63.8506C17.1385 63.8506 16.6071 64.3883 16.6071 65.0431V68.6556C16.6071 69.3135 17.1416 69.845 17.7964 69.845H31.0948C31.4427 67.463 32.6448 65.3563 34.3909 63.8506H17.7964Z" fill="#3F60AC"/>
<path d="M40.7649 63.8506C36.678 63.8506 33.3629 67.1688 33.3629 71.2621C33.3629 75.349 36.678 78.6641 40.7649 78.6641C44.855 78.6641 48.1701 75.349 48.1701 71.2621C48.1701 67.1688 44.855 63.8506 40.7649 63.8506ZM40.7649 74.9599C38.7215 74.9599 37.0639 73.3056 37.0639 71.2621C37.0639 69.2155 38.7215 67.5579 40.7649 67.5579C42.8084 67.5579 44.4659 69.2123 44.4659 71.2621C44.4659 73.3024 42.8084 74.9599 40.7649 74.9599Z" fill="#3F60AC"/>
</g>
<defs>
<clipPath id="clip0_877_2402">
<rect width="100" height="100" fill="white"/>
</clipPath>
</defs>
</svg>
