<svg width="32" height="32" viewBox="0 0 32 32" fill="none" xmlns="http://www.w3.org/2000/svg">
<path d="M27.6719 24.7656L22.9844 20.0781C22.75 19.8906 22.4688 19.75 22.1875 19.75H21.4375C22.7031 18.1094 23.5 16.0469 23.5 13.75C23.5 8.40625 19.0938 4 13.75 4C8.35938 4 4 8.40625 4 13.75C4 19.1406 8.35938 23.5 13.75 23.5C16 23.5 18.0625 22.75 19.75 21.4375V22.2344C19.75 22.5156 19.8438 22.7969 20.0781 23.0312L24.7188 27.6719C25.1875 28.1406 25.8906 28.1406 26.3125 27.6719L27.625 26.3594C28.0938 25.9375 28.0938 25.2344 27.6719 24.7656ZM13.75 19.75C10.4219 19.75 7.75 17.0781 7.75 13.75C7.75 10.4688 10.4219 7.75 13.75 7.75C17.0312 7.75 19.75 10.4688 19.75 13.75C19.75 17.0781 17.0312 19.75 13.75 19.75Z" fill="#AAAAAA"/>
</svg>
