<svg width="24" height="24" viewBox="0 0 24 24" fill="none" xmlns="http://www.w3.org/2000/svg">
<path fill-rule="evenodd" clip-rule="evenodd" d="M21.9549 2.8569C22.0003 2.74329 22.0113 2.61886 21.9867 2.49903C21.962 2.3792 21.9027 2.26924 21.8162 2.18279C21.7296 2.09633 21.6196 2.03718 21.4997 2.01267C21.3799 1.98816 21.2554 1.99937 21.1419 2.0449L2.95989 9.3189H2.95789L2.39289 9.5439C2.28609 9.58672 2.19319 9.6582 2.12442 9.75044C2.05564 9.84269 2.01367 9.95214 2.00312 10.0667C1.99257 10.1813 2.01386 10.2966 2.06464 10.3998C2.11541 10.5031 2.19371 10.5903 2.29089 10.6519L2.80289 10.9769L2.80489 10.9799L9.04789 14.9519L13.0209 21.1959L13.0239 21.1979L13.3489 21.7109C13.4107 21.8078 13.4981 21.8857 13.6013 21.9361C13.7046 21.9866 13.8197 22.0076 13.9341 21.9968C14.0485 21.9861 14.1578 21.944 14.2498 21.8752C14.3419 21.8064 14.4132 21.7136 14.4559 21.6069L21.9549 2.8569ZM19.6639 5.2199L20.2519 3.7469L18.7799 4.3359L9.41189 13.7029L9.83489 13.9729C9.91257 14.0216 9.97821 14.0872 10.0269 14.1649L10.2969 14.5869L19.6639 5.2199Z" fill="white"/>
</svg>
