<svg width="48" height="48" viewBox="0 0 48 48" fill="none" xmlns="http://www.w3.org/2000/svg">
<path d="M24 45C18.4305 45 13.089 42.7875 9.15076 38.8492C5.21249 34.911 3 29.5695 3 24C3 18.4305 5.21249 13.089 9.15076 9.15076C13.089 5.21249 18.4305 3 24 3C29.5695 3 34.911 5.21249 38.8492 9.15076C42.7875 13.089 45 18.4305 45 24C45 29.5695 42.7875 34.911 38.8492 38.8492C34.911 42.7875 29.5695 45 24 45ZM24 48C30.3652 48 36.4697 45.4714 40.9706 40.9706C45.4714 36.4697 48 30.3652 48 24C48 17.6348 45.4714 11.5303 40.9706 7.02944C36.4697 2.52856 30.3652 0 24 0C17.6348 0 11.5303 2.52856 7.02944 7.02944C2.52856 11.5303 0 17.6348 0 24C0 30.3652 2.52856 36.4697 7.02944 40.9706C11.5303 45.4714 17.6348 48 24 48Z" fill="#3F60AC"/>
<path d="M15 19.5C15 18.3065 15.4741 17.1619 16.318 16.318C17.1619 15.4741 18.3065 15 19.5 15H28.5C29.0909 15 29.6761 15.1164 30.2221 15.3425C30.768 15.5687 31.2641 15.9002 31.682 16.318C32.0998 16.7359 32.4313 17.232 32.6575 17.7779C32.8836 18.3239 33 18.9091 33 19.5V28.5C33 29.0909 32.8836 29.6761 32.6575 30.2221C32.4313 30.768 32.0998 31.2641 31.682 31.682C31.2641 32.0998 30.768 32.4313 30.2221 32.6575C29.6761 32.8836 29.0909 33 28.5 33H19.5C18.9091 33 18.3239 32.8836 17.7779 32.6575C17.232 32.4313 16.7359 32.0998 16.318 31.682C15.9002 31.2641 15.5687 30.768 15.3425 30.2221C15.1164 29.6761 15 29.0909 15 28.5V19.5Z" fill="#3F60AC"/>
</svg>
