<svg width="16" height="16" viewBox="0 0 16 16" fill="none" xmlns="http://www.w3.org/2000/svg">
<path d="M3.61076 15.9395C3.22411 16.1502 2.7858 15.7795 2.86413 15.3084L3.69408 10.2625L0.171785 6.6831C-0.157363 6.348 0.0134602 5.73648 0.455102 5.66982L5.35232 4.92763L7.53553 0.312759C7.57718 0.219174 7.64285 0.14011 7.72493 0.0847484C7.80702 0.029387 7.90214 0 7.99926 0C8.09637 0 8.1915 0.029387 8.27358 0.0847484C8.35566 0.14011 8.42134 0.219174 8.46298 0.312759L10.6479 4.92763L15.5459 5.66982C15.9867 5.73648 16.1575 6.348 15.8276 6.6831L12.3061 10.2625L13.1361 15.3075C13.2135 15.7804 12.7761 16.1502 12.3894 15.9386L7.99884 13.5325L3.61076 15.9395Z" fill="#FBB955"/>
</svg>
