<svg width="15" height="15" viewBox="0 0 15 15" fill="none" xmlns="http://www.w3.org/2000/svg">
<path d="M15 7.5C15 9.48912 14.2098 11.3968 12.8033 12.8033C11.3968 14.2098 9.48912 15 7.5 15C5.51088 15 3.60322 14.2098 2.1967 12.8033C0.790176 11.3968 0 9.48912 0 7.5C0 5.51088 0.790176 3.60322 2.1967 2.1967C3.60322 0.790176 5.51088 0 7.5 0C9.48912 0 11.3968 0.790176 12.8033 2.1967C14.2098 3.60322 15 5.51088 15 7.5ZM5.1525 5.65575H5.92575C6.0555 5.65575 6.15825 5.55 6.1755 5.42175C6.2595 4.80675 6.68175 4.35825 7.43325 4.35825C8.07675 4.35825 8.6655 4.68 8.6655 5.45325C8.6655 6.04875 8.3145 6.3225 7.76025 6.73875C7.13025 7.197 6.63 7.7325 6.66525 8.60175L6.66825 8.805C6.66943 8.86648 6.69468 8.92504 6.73858 8.96809C6.78247 9.01115 6.84151 9.03526 6.903 9.03525H7.66275C7.72488 9.03525 7.78448 9.01062 7.82848 8.96676C7.87248 8.9229 7.8973 8.86338 7.8975 8.80125V8.703C7.8975 8.0295 8.15325 7.83375 8.84475 7.3095C9.41475 6.87525 10.011 6.39375 10.011 5.382C10.011 3.96525 8.814 3.28125 7.5045 3.28125C6.3165 3.28125 5.01525 3.834 4.92675 5.424C4.92531 5.45434 4.93011 5.48466 4.94086 5.51307C4.9516 5.54149 4.96807 5.56739 4.98923 5.58918C5.01039 5.61098 5.0358 5.6282 5.06388 5.63978C5.09197 5.65136 5.12213 5.6563 5.1525 5.65575ZM7.332 11.6962C7.90425 11.6962 8.29725 11.3273 8.29725 10.827C8.29725 10.3095 7.90275 9.94575 7.332 9.94575C6.7845 9.94575 6.38625 10.3095 6.38625 10.827C6.38625 11.3265 6.7845 11.6962 7.33275 11.6962H7.332Z" fill="#3F60AC"/>
</svg>
