<svg width="100" height="100" viewBox="0 0 100 100" fill="none" xmlns="http://www.w3.org/2000/svg">
<path d="M54.6953 41.9766C54.6953 41.9766 55.1094 40.7812 56.0078 40.3672C56.8984 39.9531 58.3906 39.8906 58.3906 39.8906L60.8906 69.4609L58.8594 84.0547C58.8594 84.0547 58.2656 85.7812 56.7109 85.8437C55.1641 85.9062 42.2812 85.8437 41.1484 85.8437C40.0156 85.8437 39.6563 84.3516 39.6016 83.6953C39.5391 83.0391 39.5625 81.9375 39.5625 81.9375L34.0625 81.9141C34.0625 81.9141 33.7422 84.2578 34.2734 85.7344C34.7344 87.0156 35.1484 88.0391 35.1406 88.4766C35.1328 89.1016 34.3047 89.7266 33.3516 89.6719C32.3984 89.6094 30.9688 88.3594 30.0156 87.5859C29.0625 86.8125 13.7812 86.9922 13.7812 86.9922C13.7812 86.9922 13.0469 88.3516 12.2266 89.1719C11.7344 89.6641 10.9375 89.9063 10.2188 89.9063C9.5 89.9063 8.60937 88.9531 8.78906 88.2969C8.96875 87.6406 9.78125 86.1328 9.92187 84.6641C9.98437 84 9.90625 82.1484 9.57813 81.8438C9.5 81.7734 8.3125 81.8125 7.20312 81.6953C5.3125 81.5 3.42188 79.0547 3.1875 77.1484C2.94531 75.2422 3.125 69.2187 3.125 69.2187L54.6953 41.9766Z" fill="#B3AFAF"/>
<path d="M59.3594 75.0859H3.08594C3.08594 75.0859 2.95312 76.6641 3.22656 77.6797C3.37154 78.2188 3.61814 78.7253 3.95312 79.1719L59.0391 79.1641L59.3594 75.0859Z" fill="#9A9A9A"/>
<path d="M79.1016 72.5313L91.0156 76.2188L96.9688 74.1641C96.9688 74.1641 96.7578 62.961 96.6875 61.8281C96.6172 60.6953 96.3359 59.7032 95.2656 58.9922C94.2031 58.2813 91.2266 56.5078 91.2266 56.5078C91.2266 56.5078 82.0781 41.8282 81.2969 40.7657C80.5156 39.7032 79.5547 38.4063 77.2812 38.1953C75.0078 37.9844 60.9766 38.1563 59.7031 38.2266C58.4297 38.2969 57.4766 38.875 57.4766 41.6406C57.4766 44.4063 57.5469 65.5157 57.6172 66.5782C57.6875 67.6407 63.0078 71.5391 63.0078 71.5391L79.1016 72.5313Z" fill="#E0E0E0"/>
<path d="M61.7578 85.9609C61.7578 85.9609 60.6172 85.9922 59.8281 85.8828C59.0391 85.7734 57.8516 84.9844 57.7969 83.1172C57.7656 82.0078 57.6172 66.5781 57.6172 66.5781L78.8672 66.625L85.7422 74.1484L96.9687 74.1641C96.9687 74.1641 97.0156 78.5781 96.9844 79.7578C96.9531 80.9453 90.8438 83.5312 90.8438 83.5312L61.7578 85.9609Z" fill="#3F60AC"/>
<path d="M96.9844 79.758H84.1875C84.1875 79.758 81.4453 74.2893 73.5625 74.383C61.9844 74.5237 61.75 85.9533 61.75 85.9533H91.9063C93.6016 85.9533 96.0234 85.3908 96.6406 83.2502C97.1641 81.4533 96.9844 79.758 96.9844 79.758Z" fill="#3F60AC"/>
<path d="M89.1484 59.5781C89.1484 59.5781 89.1484 58.3047 89.9844 58.2578C90.8203 58.2109 91.7422 58.7344 92.5781 59.4453C93.4609 60.1953 93.8984 60.875 94.0703 61.4687C94.3359 62.3515 94.1172 63.1406 92.75 63.1797C91.0781 63.2344 64.5312 63.0625 63.3047 62.9609C61.7656 62.8281 60.8437 62.1719 60.8906 61.0234C60.9297 59.9219 61.7266 59.5703 65.0234 59.5312C68.3203 59.4922 89.1484 59.5781 89.1484 59.5781Z" fill="white"/>
<path d="M96.7188 63.3046C96.7188 63.3046 88.7422 63.0546 88.5703 63.2499C88.3281 63.5389 88.2812 67.3046 88.3672 67.8749C88.4531 68.4452 89.2031 68.8436 90.125 68.8827C91.0469 68.9218 96.8516 69.0155 96.8516 69.0155L96.7188 63.3046Z" fill="#FDEDC5"/>
<path d="M63.875 58.211C62.6406 58.211 62.2031 56.8048 62.2031 55.836V43.5782C62.2031 42.6094 62.8203 42.086 64.75 41.9923C66.6875 41.9063 75.5156 42.0079 76.4844 42.0391C77.9766 42.086 78.9922 42.7423 80.3516 44.6329C81.2344 45.8594 86.6797 54.8751 87.1172 55.6173C87.5547 56.3673 88.0859 58.3438 85.7969 58.3829C83.4297 58.4298 63.875 58.211 63.875 58.211Z" fill="#5F6369"/>
<path d="M84.6641 56.1485H64.9766C64.5781 56.1485 64.2266 55.711 64.2266 55.1797C64.2266 54.6485 64.1953 46.3516 64.1797 45.8594C64.1328 44.5 65.1484 44.1875 66.0234 44.2344C66.9062 44.2813 75.7969 44.25 76.3203 44.2735C77.3281 44.3203 78.3281 45.6719 79.2031 47.0078C80.2578 48.625 84.6641 56.1485 84.6641 56.1485Z" fill="#AFE3FB"/>
<path d="M84.3594 57.6016C84.2734 59.5781 81.1094 61.2031 80.3125 61.25C79.5234 61.2969 79.0391 59.7578 78.9531 57.6875C78.8672 55.6172 79.6953 53.9062 80.3594 53.9062C81.0156 53.9062 84.4297 55.9297 84.3594 57.6016Z" fill="#5F6369"/>
<path d="M83.6719 87.2033C83.6094 91.1096 80.5 96.7268 73.7344 96.7658C66.9688 96.8049 63.4531 91.6174 63.6719 86.2971C63.8906 80.8908 68.0859 77.0705 74.125 77.2424C79.7734 77.4143 83.7578 81.8049 83.6719 87.2033Z" fill="#4E433D"/>
<path d="M78.8359 86.9763C78.8047 89.031 77.1719 91.9998 73.6094 92.0232C70.0469 92.0467 68.3281 89.4685 68.4375 86.6638C68.5547 83.8123 70.8281 81.6873 73.8125 81.7342C76.7813 81.7732 78.875 84.1248 78.8359 86.9763Z" fill="#C8C8C8"/>
<path d="M32.1094 87.2033C32.0469 91.1096 28.9375 96.7268 22.1719 96.7658C15.4063 96.8049 11.8906 91.6174 12.1094 86.2971C12.3281 80.8908 16.5234 77.0705 22.5625 77.2424C28.2109 77.4143 32.1953 81.8049 32.1094 87.2033Z" fill="#4E433D"/>
<path d="M27.2734 86.9763C27.2422 89.031 25.6094 91.9998 22.0469 92.0232C18.4922 92.0467 16.7656 89.4685 16.875 86.6638C16.9922 83.8123 19.2656 81.6873 22.25 81.7342C25.2188 81.7732 27.3125 84.1248 27.2734 86.9763Z" fill="#C8C8C8"/>
<path d="M55.5703 22.3594C55.5703 20.3125 54.6719 19.4922 53.0313 19.5781C51.3906 19.6562 6.42968 19.4141 4.96093 19.4141C3.49218 19.4141 2.91406 20.9687 2.91406 21.8672C2.91406 22.7656 3.19531 68.3438 3.13281 69.2266C3.07812 70.1094 3.32031 71.3359 4.875 71.5C6.42968 71.6641 52.5391 71.5781 53.5234 71.5C54.5078 71.4219 55.7344 70.6016 55.7344 69.4531C55.7344 68.2969 55.5703 23.4219 55.5703 22.3594Z" fill="#3F60AC"/>
<path d="M51.4766 24.1562C51.4766 25.2187 51.8047 65.0234 51.8047 66.0078C51.8047 66.9922 51.3125 68.1406 50 68.1406C48.6875 68.1406 8.39843 68.2187 7.57812 68.1406C6.75781 68.0625 6.26562 67.5703 6.1875 66.2578C6.10937 64.9453 6.10938 24.9844 6.10938 23.6719C6.10938 22.3594 7.42187 22.2812 8.8125 22.2812C10.2031 22.2812 49.5937 22.3594 50.1719 22.4453C50.7422 22.5156 51.4766 23.0937 51.4766 24.1562Z" fill="#3F60AC"/>
<path d="M41.8359 69.5312C41.8828 55.1172 41.9844 21.5 41.8203 20.5859L40.6641 20.7969L39.5 20.9375C39.6094 22.2266 39.5547 50.6953 39.4922 69.5234L41.8359 69.5312Z" fill="#3F60AC"/>
<path d="M29.8828 20.7188H27.5391V69.6094H29.8828V20.7188Z" fill="#3F60AC"/>
<path d="M18.0547 20.7578H15.7109V69.4062H18.0547V20.7578Z" fill="#3F60AC"/>
</svg>
