<svg width="17" height="14" viewBox="0 0 17 14" fill="none" xmlns="http://www.w3.org/2000/svg">
<path fill-rule="evenodd" clip-rule="evenodd" d="M16.8438 3.66823C16.8934 3.72243 16.9326 3.78682 16.9595 3.85773C16.9863 3.92863 17.0001 4.00465 17.0001 4.08143C17.0001 4.1582 16.9863 4.23422 16.9595 4.30513C16.9326 4.37603 16.8934 4.44043 16.8438 4.49462L13.6566 7.99462C13.6072 8.049 13.5486 8.09215 13.484 8.12159C13.4194 8.15104 13.3502 8.16619 13.2803 8.16619C13.2104 8.16619 13.1412 8.15104 13.0766 8.12159C13.012 8.09215 12.9534 8.049 12.904 7.99462L11.3104 6.24462C11.2106 6.13504 11.1545 5.98641 11.1545 5.83143C11.1545 5.67645 11.2106 5.52782 11.3104 5.41823C11.4102 5.30865 11.5455 5.24708 11.6867 5.24708C11.8278 5.24708 11.9632 5.30865 12.0629 5.41823L13.2803 6.75504L16.0913 3.66726C16.1407 3.61299 16.1994 3.56995 16.2639 3.54058C16.3285 3.51121 16.3977 3.49609 16.4676 3.49609C16.5374 3.49609 16.6066 3.51121 16.6712 3.54058C16.7358 3.56995 16.7944 3.61397 16.8438 3.66823Z" fill="#198553"/>
<path d="M1.06242 14C1.06242 14 0 14 0 12.8333C0 11.6667 1.06242 8.16667 6.37451 8.16667C11.6866 8.16667 12.749 11.6667 12.749 12.8333C12.749 14 11.6866 14 11.6866 14H1.06242ZM6.37451 7C7.21983 7 8.03052 6.63125 8.62824 5.97487C9.22597 5.3185 9.56177 4.42826 9.56177 3.5C9.56177 2.57174 9.22597 1.6815 8.62824 1.02513C8.03052 0.368749 7.21983 0 6.37451 0C5.5292 0 4.71851 0.368749 4.12078 1.02513C3.52306 1.6815 3.18726 2.57174 3.18726 3.5C3.18726 4.42826 3.52306 5.3185 4.12078 5.97487C4.71851 6.63125 5.5292 7 6.37451 7Z" fill="#198553"/>
</svg>
