<svg width="18" height="18" viewBox="0 0 18 18" fill="none" xmlns="http://www.w3.org/2000/svg">
<path d="M16.1685 5.8689C16.1892 5.7123 16.2 5.5557 16.2 5.4C16.2 3.2589 14.2713 1.5408 12.1311 1.8315C11.8184 1.27608 11.3636 0.81378 10.8134 0.491953C10.2633 0.170126 9.6374 0.000343535 9 0C8.3626 0.000343535 7.73674 0.170126 7.18655 0.491953C6.63636 0.81378 6.18162 1.27608 5.8689 1.8315C3.7242 1.5408 1.8 3.2589 1.8 5.4C1.8 5.5557 1.8108 5.7123 1.8315 5.8689C1.27627 6.18183 0.814119 6.63663 0.492321 7.18677C0.170522 7.73691 0.000622869 8.36265 0 9C0 10.3185 0.7218 11.5065 1.8315 12.1311C1.81074 12.2865 1.80022 12.4432 1.8 12.6C1.8 14.7411 3.7242 16.4547 5.8689 16.1685C6.18162 16.7239 6.63636 17.1862 7.18655 17.508C7.73674 17.8299 8.3626 17.9997 9 18C9.6374 17.9997 10.2633 17.8299 10.8134 17.508C11.3636 17.1862 11.8184 16.7239 12.1311 16.1685C14.2713 16.4547 16.2 14.7411 16.2 12.6C16.2 12.4443 16.1892 12.2877 16.1685 12.1311C16.7237 11.8182 17.1859 11.3634 17.5077 10.8132C17.8295 10.2631 17.9994 9.63735 18 9C17.9994 8.36265 17.8295 7.73691 17.5077 7.18677C17.1859 6.63663 16.7237 6.18183 16.1685 5.8689ZM8.0595 12.9744L4.7592 9.6318L6.0408 8.3682L8.0721 10.4256L11.9664 6.561L13.2336 7.839L8.0595 12.9744Z" fill="#21B06E"/>
</svg>
